<svg height="512pt" viewBox="-86 0 512 512" width="512pt" xmlns="http://www.w3.org/2000/svg"><path d="m74.574219 0s22.101562 73.339844 95.097656 73.339844 95.101563-73.339844 95.101563-73.339844l24.929687 24.929688v145.734374l-120.03125 26.046876-121.660156-28.785157v-141.878906zm0 0" fill="#fda2b0"/><path d="m316.179688 307.40625c45.238281-137.765625 10.28125-132.625 10.28125-202.539062v-85.886719c0-10.484375-8.5-18.980469-18.980469-18.980469h-42.707031v58.089844c0 52.523437-42.578126 95.097656-95.101563 95.097656s-95.097656-42.574219-95.097656-95.097656v-58.089844h-42.707031c-10.484376 0-18.980469 8.496094-18.980469 18.980469v85.886719c0 69.910156-34.957031 64.769531 10.28125 202.539062 16.714843 57.023438-19.726563 59.515625-22.941407 186.410156-.2539058 9.972656 7.785157 18.183594 17.757813 18.183594h303.375c9.972656 0 18.015625-8.210938 17.761719-18.179688-3.214844-126.898437-39.65625-129.386718-22.941406-186.414062zm0 0" fill="#fec6d0"/><g fill="#545b67"><path d="m89.246094 299.125c-4.265625 0-7.726563-3.460938-7.726563-7.726562v-14.558594c0-4.265625 3.460938-7.722656 7.726563-7.722656 4.269531 0 7.726562 3.457031 7.726562 7.722656v14.558594c0 4.265624-3.457031 7.726562-7.726562 7.726562zm0 0"/><path d="m250.097656 299.125c-4.265625 0-7.726562-3.460938-7.726562-7.726562v-14.558594c0-4.265625 3.460937-7.722656 7.726562-7.722656 4.269532 0 7.726563 3.457031 7.726563 7.722656v14.558594c0 4.265624-3.457031 7.726562-7.726563 7.726562zm0 0"/><path d="m169.671875 306.894531c-9.964844 0-19.320313-4.164062-25.667969-11.425781-2.808594-3.210938-2.480468-8.09375.734375-10.902344 3.210938-2.808594 8.09375-2.480468 10.902344.734375 3.410156 3.902344 8.523437 6.140625 14.03125 6.140625s10.625-2.238281 14.035156-6.140625c2.808594-3.214843 7.6875-3.542969 10.902344-.734375 3.210937 2.808594 3.539063 7.691406.730469 10.902344-6.347656 7.261719-15.699219 11.425781-25.667969 11.425781zm0 0"/></g></svg>