<svg height="511pt" viewBox="0 -23 511.99955 511" width="511pt" xmlns="http://www.w3.org/2000/svg"><path d="m160.902344.5h190.195312l12.445313 36.160156-66.832031 71.625h-81.425782l-66.828125-71.625zm0 0" fill="#545b67"/><path d="m392.820312 36.660156 107.523438 62.515625c7.910156 4.597657 12.421875 13.371094 11.550781 22.476563-2.382812 24.875-13.640625 72.835937-64.140625 90.945312h-33.871094l-47.886718-93.546875zm0 0" fill="#606673"/><path d="m119.179688 36.660156-107.527344 62.515625c-7.90625 4.597657-12.417969 13.371094-11.546875 22.476563 2.382812 24.875 13.640625 72.835937 64.136719 90.945312h33.875l47.886718-93.546875zm0 0" fill="#606673"/><path d="m160.902344.5s29.554687 68.84375 94.574218 68.84375c65.019532 0 94.574219-68.84375 94.574219-68.84375l-53.339843 444.226562h-81.425782zm0 0" fill="#606673"/><path d="m446.714844 212.597656h-33.875l-47.886719-93.546875 26.824219-82.390625 30.160156 17.535156c-.0625 10.007813.460938 24.480469 2.957031 40.878907 4.261719 27.980469 15.292969 67.292969 43.667969 95.664062l6.117188 6.121094c-7.636719 6.3125-16.847657 11.75-27.964844 15.738281zm0 0" fill="#545b67"/><path d="m64.242188 212.597656h33.875l47.886718-93.546875-26.824218-82.390625-30.160157 17.535156c.0625 10.007813-.460937 24.484376-2.957031 40.882813-4.261719 27.980469-15.292969 67.289063-43.667969 95.660156l-6.117187 6.121094c7.636718 6.3125 16.847656 11.75 27.964844 15.738281zm0 0" fill="#545b67"/><path d="m139.765625 398.265625-75.519531 17.386719v29.070312c0 11.597656 9.398437 20.996094 20.988281 20.996094h109.054687c11.601563 0 20.996094-9.398438 20.996094-20.996094v-29.070312zm0 0" fill="#75b8db"/><path d="m380.925781 398.265625-84.214843 17.386719v29.070312c0 11.597656 9.398437 20.996094 20.996093 20.996094h109.058594c11.585937 0 20.984375-9.398438 20.984375-20.996094v-29.070312zm0 0" fill="#75b8db"/><path d="m215.289062 108.285156v307.367188h-151.042968v-203.058594c66.40625-66.40625 54.929687-175.929688 54.929687-175.929688l54.941407 56.671876zm0 0" fill="#96ccec"/><path d="m447.753906 212.59375v203.058594h-151.042968v-307.367188l41.171874-14.949218 54.9375-56.671876s-11.472656 109.523438 54.933594 175.929688zm0 0" fill="#96ccec"/><path d="m392.820312 36.664062-54.9375 56.671876-41.171874 14.945312v31.023438c7.890624.859374 20.167968 3.96875 24.511718 7.738281 8.457032 7.339843 19.28125 11.378906 30.488282 11.378906 17.238281 0 33.097656-9.394531 41.386718-24.519531 2.304688-4.203125 4.472656-8.34375 6.519532-12.421875-10.890626-45.671875-6.796876-84.816407-6.796876-84.816407zm0 0" fill="#75b8db"/><path d="m351.097656.5c-6.261718 54.9375-54.382812 107.785156-54.382812 107.785156s29.148437 1.863282 44.765625 15.417969c7.683593 6.667969 19.625 4.265625 24.515625-4.65625 12.148437-22.164063 27.242187-55.277344 26.824218-82.386719 0 0-4.867187-20.859375-41.722656-36.160156zm0 0" fill="#b4dbf3"/><path d="m355.269531 93.335938c0 4.800781-3.894531 8.691406-8.695312 8.691406s-8.691407-3.890625-8.691407-8.691406c0-4.800782 3.890626-8.691407 8.691407-8.691407s8.695312 3.890625 8.695312 8.691407zm0 0" fill="#545b67"/><path d="m337.1875 439.644531c0 4.800781-3.890625 8.691407-8.691406 8.691407-4.800782 0-8.695313-3.890626-8.695313-8.691407s3.894531-8.695312 8.695313-8.695312c4.800781 0 8.691406 3.894531 8.691406 8.695312zm0 0" fill="#606673"/><g fill="#75b8db"><path d="m384.363281 168.398438h-10.300781c-4.269531 0-7.726562 3.457031-7.726562 7.726562 0 4.265625 3.457031 7.726562 7.726562 7.726562h10.300781c4.269531 0 7.726563-3.460937 7.726563-7.726562 0-4.269531-3.460938-7.726562-7.726563-7.726562zm0 0"/><path d="m330.277344 176.125c0 4.265625 3.460937 7.726562 7.726562 7.726562h10.304688c4.265625 0 7.726562-3.460937 7.726562-7.726562 0-4.269531-3.460937-7.726562-7.726562-7.726562h-10.304688c-4.265625 0-7.726562 3.457031-7.726562 7.726562zm0 0"/><path d="m296.710938 181.792969c1.378906 1.273437 3.214843 2.058593 5.238281 2.058593h10.300781c4.269531 0 7.726562-3.460937 7.726562-7.726562 0-4.269531-3.457031-7.726562-7.726562-7.726562h-10.300781c-2.023438 0-3.859375.78125-5.238281 2.054687zm0 0"/><path d="m416.34375 168.398438h-6.226562c-4.265626 0-7.726563 3.457031-7.726563 7.726562 0 4.265625 3.460937 7.726562 7.726563 7.726562h10.300781c1.425781 0 2.757812-.394531 3.90625-1.066406-2.910157-4.722656-5.5625-9.53125-7.980469-14.386718zm0 0"/><path d="m401.398438 364.117188c-4.269532 0-7.726563 3.457031-7.726563 7.726562 0 4.265625 3.457031 7.722656 7.726563 7.722656h10.300781c4.269531 0 7.726562-3.457031 7.726562-7.722656 0-4.269531-3.457031-7.726562-7.726562-7.726562zm0 0"/><path d="m365.339844 364.117188c-4.265625 0-7.726563 3.457031-7.726563 7.726562 0 4.265625 3.460938 7.722656 7.726563 7.722656h10.304687c4.265625 0 7.726563-3.457031 7.726563-7.722656 0-4.269531-3.460938-7.726562-7.726563-7.726562zm0 0"/><path d="m321.558594 371.84375c0 4.265625 3.457031 7.722656 7.726562 7.722656h10.300782c4.269531 0 7.726562-3.457031 7.726562-7.722656 0-4.269531-3.457031-7.726562-7.726562-7.726562h-10.300782c-4.269531 0-7.726562 3.457031-7.726562 7.726562zm0 0"/><path d="m296.710938 379.566406h6.820312c4.265625 0 7.726562-3.457031 7.726562-7.722656 0-4.269531-3.460937-7.726562-7.726562-7.726562h-6.820312zm0 0"/><path d="m447.753906 364.117188h-10.300781c-4.265625 0-7.726563 3.457031-7.726563 7.726562 0 4.265625 3.460938 7.722656 7.726563 7.722656h10.300781zm0 0"/><path d="m119.175781 36.664062s4.097657 39.144532-6.792969 84.816407c2.046876 4.078125 4.214844 8.21875 6.519532 12.425781 8.292968 15.121094 24.148437 24.515625 41.386718 24.515625 11.203126 0 22.03125-4.039063 30.488282-11.375 4.097656-3.558594 15.652344-6.746094 24.511718-7.726563v-31.035156l-41.171874-14.949218zm0 0"/></g><path d="m160.902344.5c6.257812 54.9375 54.382812 107.785156 54.382812 107.785156s-29.148437 1.863282-44.765625 15.417969c-7.683593 6.667969-19.628906 4.265625-24.515625-4.65625-12.148437-22.164063-27.242187-55.277344-26.824218-82.386719 0 0 4.867187-20.859375 41.722656-36.160156zm0 0" fill="#b4dbf3"/><path d="m174.117188 93.335938c0 4.800781-3.890626 8.691406-8.691407 8.691406s-8.695312-3.890625-8.695312-8.691406c0-4.800782 3.894531-8.691407 8.695312-8.691407s8.691407 3.890625 8.691407 8.691407zm0 0" fill="#545b67"/><path d="m413.882812 250.5v24.375c0 8.691406-4.632812 16.710938-12.160156 21.050781l-17.371094 10.003907c-7.5 4.316406-16.738281 4.316406-24.238281 0l-17.371093-10.003907c-7.519532-4.339843-12.160157-12.359375-12.160157-21.050781v-24.375zm0 0" fill="#75b8db"/><path d="m98.117188 250.5v24.375c0 8.691406 4.628906 16.710938 12.160156 21.050781l17.367187 10.003907c7.5 4.316406 16.742188 4.316406 24.242188 0l17.367187-10.003907c7.523438-4.339843 12.164063-12.359375 12.164063-21.050781v-24.375zm0 0" fill="#75b8db"/><path d="m413.882812 212.769531v37.730469l-41.652343 13.203125-41.648438-13.203125v-37.730469zm0 0" fill="#b4dbf3"/><path d="m98.117188 212.769531v37.730469l41.648437 13.203125 41.652344-13.203125v-37.730469zm0 0" fill="#b4dbf3"/><path d="m148.457031 243.78125c0 4.800781-3.890625 8.695312-8.691406 8.695312s-8.691406-3.894531-8.691406-8.695312 3.890625-8.691406 8.691406-8.691406 8.691406 3.890625 8.691406 8.691406zm0 0" fill="#606673"/><path d="m379.882812 243.78125c0 4.800781-3.890624 8.695312-8.691406 8.695312-4.800781 0-8.691406-3.894531-8.691406-8.695312s3.890625-8.691406 8.691406-8.691406c4.800782 0 8.691406 3.890625 8.691406 8.691406zm0 0" fill="#606673"/><path d="m127.636719 168.398438c-4.269531 0-7.726563 3.457031-7.726563 7.726562 0 4.265625 3.457032 7.726562 7.726563 7.726562h10.300781c4.269531 0 7.726562-3.460937 7.726562-7.726562 0-4.269531-3.457031-7.726562-7.726562-7.726562zm0 0" fill="#75b8db"/><path d="m163.691406 168.398438c-4.265625 0-7.726562 3.457031-7.726562 7.726562 0 4.265625 3.460937 7.726562 7.726562 7.726562h10.304688c4.265625 0 7.722656-3.460937 7.722656-7.726562 0-4.269531-3.457031-7.726562-7.722656-7.726562zm0 0" fill="#75b8db"/><path d="m215.289062 170.453125c-1.378906-1.273437-3.214843-2.054687-5.238281-2.054687h-10.300781c-4.269531 0-7.726562 3.457031-7.726562 7.726562 0 4.265625 3.457031 7.726562 7.726562 7.726562h10.300781c2.023438 0 3.859375-.785156 5.238281-2.058593zm0 0" fill="#75b8db"/><path d="m91.578125 183.851562h10.304687c4.265626 0 7.726563-3.460937 7.726563-7.726562 0-4.269531-3.460937-7.726562-7.726563-7.726562h-6.226562c-2.417969 4.855468-5.070312 9.664062-7.980469 14.386718 1.148438.671875 2.476563 1.066406 3.902344 1.066406zm0 0" fill="#75b8db"/><path d="m136.355469 364.117188c-4.265625 0-7.726563 3.457031-7.726563 7.726562 0 4.265625 3.460938 7.722656 7.726563 7.722656h10.304687c4.265625 0 7.726563-3.457031 7.726563-7.722656 0-4.269531-3.460938-7.726562-7.726563-7.726562zm0 0" fill="#75b8db"/><path d="m164.6875 371.84375c0 4.265625 3.457031 7.722656 7.726562 7.722656h10.300782c4.269531 0 7.726562-3.457031 7.726562-7.722656 0-4.269531-3.457031-7.726562-7.726562-7.726562h-10.300782c-4.269531 0-7.726562 3.457031-7.726562 7.726562zm0 0" fill="#75b8db"/><path d="m100.300781 364.117188c-4.269531 0-7.726562 3.457031-7.726562 7.726562 0 4.265625 3.457031 7.722656 7.726562 7.722656h10.300781c4.269532 0 7.726563-3.457031 7.726563-7.722656 0-4.269531-3.457031-7.726562-7.726563-7.726562zm0 0" fill="#75b8db"/><path d="m215.289062 364.117188c-.003906 0-.003906 0 0 0h-6.820312c-4.265625 0-7.726562 3.457031-7.726562 7.726562 0 4.265625 3.460937 7.722656 7.726562 7.722656h6.816406.003906zm0 0" fill="#75b8db"/><path d="m64.246094 379.566406h10.296875c4.269531 0 7.726562-3.457031 7.726562-7.722656 0-4.269531-3.457031-7.726562-7.726562-7.726562h-10.296875zm0 0" fill="#75b8db"/></svg>