<svg height="511pt" viewBox="1 -15 511.99897 511" width="511pt" xmlns="http://www.w3.org/2000/svg"><g fill="#7eda9a"><path d="m492.847656 330.125c.167969 3.472656.238282 6.964844.238282 10.476562v26.199219l-237.085938 30.320313-237.085938-30.320313v-26.199219c0-3.511718.070313-7.003906.238282-10.476562l26.691406-39.113281h422.886719zm0 0"/><path d="m448.058594 201.570312c13.523437 18.644532 24.394531 39.34375 32.066406 61.523438l-11.394531 27.917969h-422.886719l-13.96875-27.917969c7.671875-22.179688 18.542969-42.878906 32.066406-61.523438l41.652344-14.09375h303.386719zm0 0"/><path d="m103.019531 159.476562c41.296875-34.914062 94.683594-55.957031 152.980469-55.957031s111.683594 21.042969 152.980469 55.957031v28h-303.386719zm0 0"/></g><path d="m493.082031 366.800781h-474.164062c-10.449219 0-18.917969 8.46875-18.917969 18.917969v76.371094c0 10.445312 8.46875 18.917968 18.917969 18.917968h474.164062c10.445313 0 18.917969-8.472656 18.917969-18.917968v-76.371094c0-10.449219-8.46875-18.917969-18.917969-18.917969zm0 0" fill="#fd747f"/><path d="m41.207031 462.089844v-76.371094c0-10.449219 8.46875-18.917969 18.917969-18.917969h-41.207031c-10.449219 0-18.917969 8.46875-18.917969 18.917969v76.371094c0 10.449218 8.46875 18.917968 18.917969 18.917968h41.207031c-10.449219 0-18.917969-8.472656-18.917969-18.917968zm0 0" fill="#e36263"/><path d="m158.070312 435.761719c-4.269531 0-7.726562-3.460938-7.726562-7.726563v-17.722656c0-4.269531 3.457031-7.726562 7.726562-7.726562 4.269532 0 7.726563 3.457031 7.726563 7.726562v17.722656c0 4.265625-3.460937 7.726563-7.726563 7.726563zm0 0" fill="#545b67"/><path d="m353.929688 435.761719c-4.269532 0-7.726563-3.460938-7.726563-7.726563v-17.722656c0-4.269531 3.457031-7.726562 7.726563-7.726562 4.269531 0 7.726562 3.457031 7.726562 7.726562v17.722656c0 4.265625-3.460938 7.726563-7.726562 7.726563zm0 0" fill="#545b67"/><path d="m256 445.222656c-11.648438 0-22.578125-4.863281-29.988281-13.335937-2.808594-3.214844-2.480469-8.09375.730469-10.902344 3.214843-2.808594 8.097656-2.480469 10.902343.734375 4.476563 5.117188 11.164063 8.050781 18.355469 8.050781s13.878906-2.933593 18.351562-8.050781c2.808594-3.214844 7.6875-3.542969 10.902344-.734375s3.542969 7.691406.734375 10.902344c-7.410156 8.472656-18.339843 13.335937-29.988281 13.335937zm0 0" fill="#545b67"/><path d="m60.121094 366.800781v-26.199219c0-16.65625 1.75-33.304687 5.210937-49.59375h-19.488281l-26.691406 39.117188c-.066406 1.339844-.238282 8.335938-.238282 10.476562 0 0 0 26.199219.003907 26.199219zm0 0" fill="#61c87c"/><path d="m73.082031 263.089844c9.558594-27.628906 24.308594-53.332032 43.152344-75.613282h-10.640625l-41.585938 14.070313c-9.738281 13.429687-18.085937 27.859375-24.828124 43.03125-.007813.011719-.011719.019531-.015626.03125-2.691406 6.050781-5.125 12.222656-7.289062 18.480469l13.96875 27.917968h19.488281c2.007813-9.449218 4.589844-18.777343 7.75-27.917968zm0 0" fill="#61c87c"/><path d="m105.59375 187.476562h10.640625c8.527344-10.082031 17.890625-19.460937 27.992187-28 36.378907-30.753906 82.140626-50.742187 132.351563-55.070312-6.839844-.585938-13.714844-.890625-20.578125-.890625-24.773438 0-49.523438 3.855469-73.09375 11.484375-29.601562 9.585938-56.65625 24.835938-79.886719 44.476562zm0 0" fill="#61c87c"/><path d="m448.058594 201.570312c-6.347656.011719-12.683594 1.773438-18.339844 5.296876-28.144531 17.511718-63.117188 17.511718-91.261719 0-11.355469-7.070313-25.46875-7.070313-36.832031 0-28.144531 17.511718-63.105469 17.511718-91.25 0-11.363281-7.070313-25.476562-7.070313-36.832031 0-28.144531 17.511718-63.117188 17.511718-91.261719 0-5.65625-3.523438-11.992188-5.285157-18.339844-5.296876 11.292969-15.566406 24.417969-29.699218 39.078125-42.09375 2.191407 1.113282 4.355469 2.339844 6.476563 3.65625 11.363281 7.070313 25.476562 7.070313 36.832031 0 28.144531-17.511718 63.117187-17.511718 91.261719 0 11.351562 7.070313 25.46875 7.070313 36.820312 0 28.152344-17.511718 63.117188-17.511718 91.261719 0 11.363281 7.070313 25.46875 7.070313 36.832031 0 2.121094-1.316406 4.285156-2.542968 6.476563-3.65625 14.660156 12.394532 27.785156 26.527344 39.078125 42.09375zm0 0" fill="#fd747f"/><path d="m492.847656 330.125-26.300781-16.367188c-11.363281-7.078124-25.476563-7.066406-36.828125 0-14.070312 8.753907-29.855469 13.132813-45.636719 13.132813-15.773437 0-31.554687-4.378906-45.625-13.132813-11.355469-7.078124-25.46875-7.078124-36.832031 0-28.144531 17.511719-63.105469 17.511719-91.25 0-11.363281-7.078124-25.476562-7.078124-36.832031 0-28.144531 17.511719-63.117188 17.511719-91.261719 0-11.351562-7.078124-25.464844-7.078124-36.820312 0l-26.308594 16.367188c1.007812-23.382812 5.40625-45.882812 12.722656-67.03125 25.269531-10.167969 53.878906-7.851562 77.621094 6.933594 11.363281 7.066406 25.476562 7.066406 36.832031 0 28.144531-17.523438 63.117187-17.523438 91.261719 0 11.351562 7.066406 25.46875 7.066406 36.820312 0 28.152344-17.523438 63.117188-17.523438 91.261719 0 11.363281 7.066406 25.46875 7.066406 36.832031 0 23.742188-14.785156 52.351563-17.101563 77.621094-6.933594 7.316406 21.148438 11.714844 43.648438 12.722656 67.03125zm0 0" fill="#fd747f"/><path d="m73.082031 263.089844c.632813-1.828125 1.296875-3.648438 1.976563-5.460938-14.5-1.921875-29.34375-.109375-43.1875 5.476563-.5 1.441406-.980469 2.890625-1.453125 4.34375-3.582031 11.050781-6.335938 22.371093-8.246094 33.832031-.003906.023438-.007813.050781-.015625.074219-1.5625 9.515625-2.589844 19.132812-3.003906 28.769531l26.308594-16.367188c5.210937-3.25 11-4.988281 16.839843-5.253906 2.089844-15.441406 5.683594-30.675781 10.78125-45.414062zm0 0" fill="#e36263"/><path d="m135.011719 167.695312c-8.613281 1.808594-17.710938.289063-25.515625-4.5625-2.121094-1.316406-4.285156-2.542968-6.5-3.636718-5.816406 4.917968-11.386719 10.125-16.703125 15.578125-4.066407 4.164062-7.90625 8.519531-11.703125 12.925781-3.695313 4.394531-7.230469 8.921875-10.597656 13.570312 6.328124.019532 12.648437 1.777344 18.289062 5.292969 4.644531 2.890625 9.476562 5.292969 14.429688 7.230469 10.75-16.988281 23.632812-32.621094 38.300781-46.398438zm0 0" fill="#e36263"/><path d="m314.71875 59.21875c0 32.429688-26.289062 58.722656-58.71875 58.722656s-58.71875-26.292968-58.71875-58.722656 26.289062-58.71875 58.71875-58.71875 58.71875 26.289062 58.71875 58.71875zm0 0" fill="#fd747f"/><path d="m276.605469 97.335938c-32.433594 0-58.722657-26.289063-58.722657-58.722657 0-10.925781 2.996094-21.152343 8.199219-29.917969-17.242187 10.230469-28.800781 29.023438-28.800781 50.523438 0 32.429688 26.289062 58.71875 58.71875 58.71875 21.5 0 40.292969-11.558594 50.523438-28.800781-8.765626 5.203125-18.988282 8.199219-29.917969 8.199219zm0 0" fill="#e36263"/></svg>