<svg height="511pt" viewBox="1 -83 511.99998 511" width="511pt" xmlns="http://www.w3.org/2000/svg"><path d="m352.371094 53.195312h159.628906v240.066407h-159.628906zm0 0" fill="#b1785d"/><path d="m352.371094 293.261719h82.636718c38.117188-26.324219 63.148438-70.308594 63.148438-120.035157 0-49.726562-25.03125-93.707031-63.148438-120.03125h-82.636718zm0 0" fill="#925b47"/><path d="m352.371094 53.195312h-352.371094v240.066407h352.371094c66.289062 0 120.03125-53.742188 120.03125-120.035157 0-66.292968-53.742188-120.03125-120.03125-120.03125zm0 0" fill="#c58d6f"/><path d="m185.605469 293.261719v-240.066407h158.523437c0-29.101562-23.59375-52.695312-52.695312-52.695312h-116.664063c-22.84375 0-41.359375 18.519531-41.359375 41.363281v262.730469c0 22.84375 18.515625 41.359375 41.359375 41.359375h116.664063c29.101562 0 52.695312-23.589844 52.695312-52.691406zm0 0" fill="#fbd173"/><path d="m376.53125 173.226562c0 13.34375-10.816406 24.164063-24.160156 24.164063-13.347656 0-24.164063-10.820313-24.164063-24.164063s10.816407-24.160156 24.164063-24.160156c13.34375 0 24.160156 10.816406 24.160156 24.160156zm0 0" fill="#b1785d"/><path d="m87.625 173.226562c0 13.34375-10.816406 24.164063-24.160156 24.164063-13.347656 0-24.164063-10.820313-24.164063-24.164063s10.816407-24.160156 24.164063-24.160156c13.34375 0 24.160156 10.816406 24.160156 24.160156zm0 0" fill="#b1785d"/><path d="m251.886719 200.136719c14.859375 0 26.90625-12.046875 26.90625-26.910157 0-14.859374-12.046875-26.910156-26.90625-26.910156h-61.136719c-14.863281 0-26.910156 12.050782-26.910156 26.910156 0 14.863282 12.046875 26.910157 26.910156 26.910157zm0 0" fill="#fed994"/></svg>