<svg height="512pt" viewBox="0 -29 512.00169 512" width="512pt" xmlns="http://www.w3.org/2000/svg"><path d="m444.226562 88.195312-36.632812-20.367187-41.511719 20.367187 7.410157 157.460938 61.8125 124.480469c39.292968 0 61.304687-24.125 70.910156-38.449219 3.921875-5.847656 5.957031-12.769531 5.777344-19.804688-3.195313-123.898437-67.765626-223.6875-67.765626-223.6875zm0 0" fill="#fda2b0"/><path d="m67.777344 88.195312 36.632812-20.367187 41.511719 20.367187-7.414063 157.460938-61.8125 124.480469c-39.292968 0-61.304687-24.125-70.910156-38.449219-3.921875-5.847656-5.957031-12.769531-5.7734372-19.804688 3.1914062-123.898437 67.7656252-223.6875 67.7656252-223.6875zm0 0" fill="#fda2b0"/><g fill="#fd89a0"><path d="m435.304688 370.140625c-15.242188-182.726563-69.226563-281.945313-69.226563-281.945313l-28.9375-20.367187-43.320313 20.367187-37.820312 192.378907 81.140625 142.90625c39.71875 0 69.210937-15.332031 85.351563-26.425781 8.78125-6.039063 13.699218-16.292969 12.8125-26.914063zm0 0"/><path d="m144.464844 119.097656 1.457031-30.902344-41.511719-20.367187-36.632812 20.367187s-7.289063 11.265626-17.082032 30.902344zm0 0"/><path d="m76.699219 370.140625c15.238281-182.726563 69.222656-281.945313 69.222656-281.945313l28.9375-20.367187 43.320313 20.367187 37.820312 192.378907-81.140625 142.910156c-39.71875 0-69.207031-15.335937-85.347656-26.429687-8.785157-6.039063-13.699219-16.292969-12.8125-26.914063zm0 0"/></g><path d="m293.824219 88.195312h-75.644531s-42.058594 106.105469-43.320313 335.285157c-.035156 6.726562 3.859375 12.863281 9.976563 15.664062 13.414062 6.144531 39.28125 15.628907 71.164062 15.628907 31.886719 0 57.753906-9.484376 71.167969-15.628907 6.117187-2.800781 10.011719-8.9375 9.976562-15.664062-1.261719-229.179688-43.320312-335.285157-43.320312-335.285157zm0 0" fill="#fda2b0"/><path d="m444.226562 88.195312-36.632812-20.367187-41.511719 20.367187 1.453125 30.902344h93.769532c-9.792969-19.636718-17.078126-30.902344-17.078126-30.902344zm0 0" fill="#fd89a0"/><path d="m380.003906 119.097656c-8.21875-20.414062-13.921875-30.902344-13.921875-30.902344l-28.9375-20.367187-43.320312 20.367187-6.078125 30.902344zm0 0" fill="#f27991"/><path d="m224.253906 119.097656-6.074218-30.902344-43.320313-20.367187-28.9375 20.367187s-5.703125 10.488282-13.921875 30.902344zm0 0" fill="#f27991"/><path d="m401.828125 0h-291.65625c-23.414063 0-42.394531 18.984375-42.394531 42.398438v45.796874h376.449218v-45.796874c0-23.414063-18.980468-42.398438-42.398437-42.398438zm0 0" fill="#fec6d0"/><path d="m179.765625 55.039062c-4.265625 0-7.726563-3.457031-7.726563-7.726562v-13.796875c0-4.265625 3.460938-7.726563 7.726563-7.726563 4.269531 0 7.726563 3.460938 7.726563 7.726563v13.796875c0 4.269531-3.457032 7.726562-7.726563 7.726562zm0 0" fill="#545b67"/><path d="m332.234375 55.039062c-4.265625 0-7.726563-3.457031-7.726563-7.726562v-13.796875c0-4.265625 3.460938-7.726563 7.726563-7.726563s7.726563 3.460938 7.726563 7.726563v13.796875c0 4.269531-3.460938 7.726562-7.726563 7.726562zm0 0" fill="#545b67"/><path d="m256 62.40625c-9.5625 0-18.539062-4-24.632812-10.96875-2.808594-3.210938-2.480469-8.09375.734374-10.902344 3.210938-2.808594 8.09375-2.480468 10.902344.734375 3.15625 3.609375 7.894532 5.683594 12.996094 5.683594 5.105469 0 9.84375-2.074219 13-5.683594 2.808594-3.214843 7.6875-3.542969 10.902344-.734375 3.210937 2.808594 3.539062 7.691406.730468 10.902344-6.089843 6.96875-15.070312 10.96875-24.632812 10.96875zm0 0" fill="#545b67"/><path d="m303.425781 119.097656c-5.585937-20.761718-9.601562-30.902344-9.601562-30.902344h-75.644531s-4.019532 10.140626-9.605469 30.902344zm0 0" fill="#fd89a0"/></svg>