<svg height="511pt" viewBox="-103 0 511 511.99937" width="511pt" xmlns="http://www.w3.org/2000/svg"><path d="m306.1875 186.699219c2.433594-72.910157-27.972656-140.136719-41.503906-166.242188-4.488282-8.660156-12.425782-15.050781-21.875-17.472656-9.933594-2.542969-19.71875-3.0625-26.792969-2.9765625-4.949219.0625-8.132813 5.2656255-5.992187 9.7265625 14.847656 30.941406 53.96875 130.519531-56.609376 132.277344-110.582031-1.757813-71.460937-101.335938-56.613281-132.277344 2.144531-4.460937-1.039062-9.6640625-5.992187-9.7265625-7.070313-.0859375-16.859375.4335935-26.789063 2.9765625-9.449219 2.421875-17.390625 8.8125-21.878906 17.472656-13.527344 26.105469-43.933594 93.332031-41.503906 166.242188 3.117187 93.539062 54.808593 95.613281-.136719 193.308593 0 0 101.988281 37.414063 120.695312 131.992188h64.4375c18.707032-94.578125 120.695313-131.992188 120.695313-131.992188-54.945313-97.695312-3.257813-99.769531-.140625-193.308593zm0 0" fill="#a3f0f1"/><path d="m29.660156 394.390625c49.527344-92.472656 4.933594-116.175781 1.882813-207.691406-2.429688-72.910157 27.972656-140.136719 41.503906-166.242188 4.488281-8.660156 12.429687-15.050781 21.875-17.472656.394531-.097656.785156-.191406 1.179687-.285156-1.1875-1.582031-3.058593-2.6640628-5.292968-2.6914065-7.070313-.0859375-16.859375.4335935-26.789063 2.9765625-9.449219 2.421875-17.390625 8.8125-21.878906 17.472656-13.527344 26.105469-43.933594 93.332031-41.503906 166.242188 3.117187 93.539062 54.808593 95.617187-.136719 193.308593 0 0 12.3125 4.523438 29.160156 14.382813zm0 0" fill="#81e2e1"/><g fill="#545b67"><path d="m80.378906 225.601562c-4.269531 0-7.726562-3.460937-7.726562-7.726562v-13.21875c0-4.269531 3.457031-7.726562 7.726562-7.726562 4.269532 0 7.726563 3.457031 7.726563 7.726562v13.21875c0 4.265625-3.460938 7.726562-7.726563 7.726562zm0 0"/><path d="m226.445312 225.601562c-4.265624 0-7.726562-3.460937-7.726562-7.726562v-13.21875c0-4.269531 3.460938-7.726562 7.726562-7.726562 4.269532 0 7.726563 3.457031 7.726563 7.726562v13.21875c0 4.265625-3.460937 7.726562-7.726563 7.726562zm0 0"/><path d="m153.414062 232.65625c-9.257812 0-17.945312-3.871094-23.84375-10.617188-2.8125-3.210937-2.480468-8.09375.730469-10.902343 3.210938-2.808594 8.09375-2.480469 10.902344.730469 2.964844 3.390624 7.414063 5.335937 12.210937 5.335937 4.792969 0 9.242188-1.945313 12.207032-5.332031 2.808594-3.214844 7.691406-3.542969 10.902344-.734375 3.210937 2.808593 3.539062 7.691406.730468 10.902343-5.894531 6.746094-14.585937 10.617188-23.839844 10.617188zm0 0"/></g></svg>