<svg height="512pt" viewBox="0 -63 512 512" width="512pt" xmlns="http://www.w3.org/2000/svg"><path d="m191.117188 18.183594c117.648437-75.5625 62.683593 126.109375 155.578124 186.347656l-17.074218 27.195312h-64.210938zm0 0" fill="#e36263"/><path d="m406.628906 219.617188c-22.253906-10-46.9375-15.554688-72.910156-15.554688-84.707031 0-71.722656-189.550781-163.25-189.550781-81.746094 0-113.40625-34.4375-153.121094 2.785156-3.339844 3.125-4.773437 7.800781-3.757812 12.253906 28.410156 125.484375-4.171875 185.546875-12.664063 302.589844l162.449219 26.636719 163.375-26.636719 89.039062-56.261719zm0 0" fill="#fd747f"/><path d="m326.75 332.140625h-325.824219c-.328125 4.507813-.617187 9.109375-.8710935 13.800781-1.1484375 21.445313 15.9414065 39.476563 37.4179685 39.476563h282.609375l26.613281-26.636719zm0 0" fill="#efedee"/><g fill="#e36263"><path d="m195.601562 59.84375c0 8.269531-6.707031 14.976562-14.976562 14.976562-8.273438 0-14.976562-6.707031-14.976562-14.976562 0-8.273438 6.703124-14.980469 14.976562-14.980469 8.269531 0 14.976562 6.707031 14.976562 14.980469zm0 0"/><path d="m226.058594 103.691406c0 8.269532-6.707032 14.976563-14.980469 14.976563-8.269531 0-14.976563-6.707031-14.976563-14.976563 0-8.273437 6.707032-14.980468 14.976563-14.980468 8.273437 0 14.980469 6.707031 14.980469 14.980468zm0 0"/><path d="m248.539062 154.195312c0 8.273438-6.703124 14.976563-14.976562 14.976563-8.269531 0-14.976562-6.703125-14.976562-14.976563 0-8.269531 6.707031-14.976562 14.976562-14.976562 8.273438 0 14.976562 6.707031 14.976562 14.976562zm0 0"/><path d="m272.875 206.109375c0 8.273437-6.707031 14.976563-14.976562 14.976563-8.273438 0-14.976563-6.703126-14.976563-14.976563 0-8.269531 6.703125-14.976563 14.976563-14.976563 8.269531 0 14.976562 6.707032 14.976562 14.976563zm0 0"/></g><path d="m65.851562 279.769531c-4.265624 0-7.726562-3.457031-7.726562-7.726562v-14.242188c0-4.265625 3.460938-7.726562 7.726562-7.726562 4.269532 0 7.726563 3.460937 7.726563 7.726562v14.242188c0 4.269531-3.457031 7.726562-7.726563 7.726562zm0 0" fill="#545b67"/><path d="m223.253906 279.769531c-4.265625 0-7.722656-3.457031-7.722656-7.726562v-14.242188c0-4.265625 3.457031-7.726562 7.722656-7.726562 4.269532 0 7.726563 3.460937 7.726563 7.726562v14.242188c0 4.269531-3.457031 7.726562-7.726563 7.726562zm0 0" fill="#545b67"/><path d="m144.554688 287.375c-9.800782 0-19-4.097656-25.242188-11.234375-2.808594-3.214844-2.480469-8.097656.734375-10.90625 3.210937-2.804687 8.089844-2.480469 10.902344.734375 3.304687 3.78125 8.265625 5.953125 13.605469 5.953125 5.34375 0 10.300781-2.171875 13.605468-5.953125 2.8125-3.214844 7.691406-3.539062 10.902344-.734375 3.214844 2.808594 3.542969 7.691406.734375 10.90625-6.242187 7.136719-15.441406 11.234375-25.242187 11.234375zm0 0" fill="#545b67"/><path d="m176.011719 144.214844c0 33.8125-27.410157 61.226562-61.226563 61.226562s-61.226562-27.414062-61.226562-61.226562c0-33.816406 27.410156-61.230469 61.226562-61.230469s61.226563 27.414063 61.226563 61.230469zm0 0" fill="#fff"/><path d="m144.246094 130.695312-17.761719-2.582031-7.945313-16.09375c-1.535156-3.113281-5.972656-3.113281-7.507812 0l-7.941406 16.09375-17.761719 2.582031c-3.4375.496094-4.808594 4.71875-2.324219 7.140626l12.851563 12.527343-3.03125 17.691407c-.589844 3.417968 3.003906 6.027343 6.074219 4.414062l15.886718-8.351562 15.886719 8.351562c3.074219 1.613281 6.664063-.996094 6.078125-4.414062l-3.035156-17.691407 12.851562-12.527343c2.484375-2.421876 1.113282-6.644532-2.320312-7.140626zm0 0" fill="#fbd173"/><path d="m504.828125 332.140625h-178.078125c-4.363281 16.339844-6.691406 33.511719-6.691406 51.230469 0 .683594 0 1.359375.023437 2.046875h188.84375c1.699219 0 3.074219-1.375 3.074219-3.074219 0-17.4375-2.5-34.28125-7.171875-50.203125zm0 0" fill="#d4d2d3"/><path d="m504.828125 332.140625h-178.078125c12.390625-46.425781 41.21875-86.140625 79.878906-112.523437 47.171875 21.160156 83.464844 62.234374 98.199219 112.523437zm0 0" fill="#efedee"/></svg>