<svg height="512pt" viewBox="0 -11 512.00034 512" width="512pt" xmlns="http://www.w3.org/2000/svg"><path d="m317.339844.0390625-.375-.0117187c-.664063-.015625-1.324219-.0273438-1.988282-.0273438l-120.316406.0390625 13.601563 54.4062495 47.738281 39.445313 46.925781-38.761719zm0 0" fill="#e36263"/><path d="m88.496094 117.996094-54.792969-40.277344-23.679687 12.945312c-8.820313 4.8125-12.445313 15.609376-8.332032 24.769532l50.566406 112.695312c5.261719 11.710938 20.304688 15.113282 30.058594 6.769532 4.757813-4.074219 10.078125-8.792969 15.636719-14.003907zm0 0" fill="#545b67"/><path d="m208.261719 54.445312-47.738281-45.929687c-1.039063.511719-2.070313 1.039063-3.089844 1.597656l-123.730469 67.605469 64.25 143.175781c18.75-17.609375 40.164063-40.882812 51.398437-63.996093l23.503907 15.878906 18.375-15.878906c13.800781-9.425782 27.917969-21.78125 42.117187-36.816407zm0 0" fill="#fd747f"/><path d="m423.503906 117.996094 54.792969-40.277344 23.679687 12.945312c8.820313 4.8125 12.445313 15.609376 8.332032 24.769532l-50.566406 112.695312c-5.261719 11.710938-20.304688 15.113282-30.058594 6.769532-4.757813-4.074219-10.078125-8.792969-15.636719-14.003907zm0 0" fill="#545b67"/><path d="m354.566406 10.113281c-1.015625-.558593-2.050781-1.085937-3.089844-1.597656l-22.539062 13.53125-84.167969 115.234375v19.617188l55.964844 18.3125 61.914063-18.3125c11.234374 23.113281 32.648437 46.386718 51.394531 63.996093l64.25-143.175781zm0 0" fill="#fd747f"/><path d="m350.980469 248.953125-94.980469-34.535156-94.980469 34.535156s-30.679687 57.433594-41.582031 164.550781l100.046875 76.296875h164.847656c6.675781 0 12.035157-5.476562 11.929688-12.148437-2.261719-148.171875-45.28125-228.699219-45.28125-228.699219zm0 0" fill="#fd747f"/><path d="m149.351562 156.898438 11.671876 92.054687h189.953124l11.675782-92.054687zm0 0" fill="#545b67"/><g fill="#fff"><path d="m194.1875 216.175781c-4.265625 0-7.722656-3.457031-7.722656-7.726562v-11.1875c0-4.265625 3.457031-7.726563 7.722656-7.726563 4.269531 0 7.726562 3.460938 7.726562 7.726563v11.1875c0 4.269531-3.457031 7.726562-7.726562 7.726562zm0 0"/><path d="m317.8125 216.175781c-4.269531 0-7.726562-3.457031-7.726562-7.726562v-11.1875c0-4.265625 3.457031-7.726563 7.726562-7.726563 4.265625 0 7.726562 3.460938 7.726562 7.726563v11.1875c0 4.269531-3.460937 7.726562-7.726562 7.726562zm0 0"/><path d="m256 222.148438c-8.175781 0-15.855469-3.425782-21.074219-9.390626-2.808593-3.214843-2.480469-8.09375.734375-10.902343 3.210938-2.808594 8.09375-2.480469 10.902344.730469 2.28125 2.609374 5.722656 4.109374 9.4375 4.109374 3.71875 0 7.15625-1.496093 9.4375-4.109374 2.808594-3.210938 7.691406-3.539063 10.902344-.730469 3.214844 2.808593 3.542968 7.6875.734375 10.902343-5.21875 5.964844-12.898438 9.390626-21.074219 9.390626zm0 0"/></g><path d="m225.488281 51.601562c-12.628906-19.222656-23.082031-37.324218-30.828125-51.5624995-11.863281.3398435-23.503906 3.2343755-34.136718 8.4804685 14.039062 26.625 39.550781 70.960938 72.824218 111.566407h22.652344v-26.195313c-10.21875-12.808594-20.414062-26.925781-30.511719-42.289063zm0 0" fill="#fed994"/><path d="m233.347656 120.085938h22.652344v-26.195313c-5.363281-6.722656-10.71875-13.8125-16.058594-21.246094-7.550781 9.742188-15.109375 18.710938-22.617187 26.851563 5.117187 6.898437 10.457031 13.796875 16.023437 20.589844zm0 0" fill="#fbd173"/><path d="m244.769531 156.898438c49.828125-47.523438 88.21875-113.3125 106.707031-148.382813-10.632812-5.242187-22.273437-8.136719-34.136718-8.4765625-7.746094 14.2343755-18.199219 32.3398435-30.828125 51.5585935-31.613281 48.117188-64.238281 84.097656-95.28125 105.300782zm0 0" fill="#fed994"/><path d="m361.671875 391.832031c2.546875-3 2.335937-7.496093-.480469-10.242187-6.339844-6.171875-15.097656-9.820313-24.621094-9.4375 4.652344-8.316406 5.359376-17.78125 2.722657-26.222656-1.171875-3.753907-5.082031-5.976563-8.90625-5.066407-8.605469 2.050781-16.375 7.496094-21.148438 15.746094-4.535156-8.378906-12.152343-14.042969-20.695312-16.335937-3.800781-1.015626-7.769531 1.101562-9.046875 4.824218-2.898438 8.4375-2.425782 18.007813 2.097656 26.503906 1.777344 3.34375 4.050781 6.257813 6.667969 8.707032-3.578125-.242188-7.257813.089844-10.914063 1.070312-9.296875 2.5-16.609375 8.691406-20.796875 16.570313-1.847656 3.476562-.675781 7.824219 2.664063 9.90625 7.574218 4.714843 17.003906 6.402343 26.300781 3.902343 6.394531-1.71875 11.84375-5.1875 15.988281-9.746093-1.796875 5.890625-1.996094 12.347656-.203125 18.722656 2.601563 9.265625 8.875 16.511719 16.800781 20.609375 3.496094 1.808594 7.832032.589844 9.875-2.777344 4.632813-7.625 6.210938-17.074218 3.609376-26.339844-1.023438-3.648437-2.621094-6.980468-4.660157-9.929687 3.445313 1 7.109375 1.460937 10.894531 1.28125 9.617188-.457031 18.082032-4.941406 23.851563-11.746094zm0 0" fill="#fed994"/><path d="m251.402344 306.664062c.605468-3.214843-1.394532-6.378906-4.5625-7.207031-7.121094-1.855469-14.957032-.890625-21.683594 3.300781-.058594-7.925781-3.4375-15.0625-8.816406-20.082031-2.390625-2.234375-6.136719-2.234375-8.523438 0-5.382812 5.019531-8.761718 12.15625-8.816406 20.085938-6.730469-4.195313-14.566406-5.160157-21.6875-3.300781-3.167969.824218-5.164062 3.992187-4.558594 7.207031 1.375 7.292969 5.652344 14.019531 12.417969 18.304687 2.660156 1.6875 5.5 2.859375 8.402344 3.550782-2.6875 1.296874-5.210938 3.046874-7.453125 5.265624-5.691406 5.632813-8.4375 13.113282-8.222656 20.535157.09375 3.273437 2.726562 5.9375 6 6.066406 7.417968.296875 14.929687-2.363281 20.625-7.992187 3.914062-3.875 6.429687-8.625 7.550781-13.625 1.125 5 3.636719 9.75 7.554687 13.621093 5.695313 5.632813 13.207032 8.289063 20.625 7.996094 3.273438-.132813 5.90625-2.796875 6-6.070313.210938-7.417968-2.53125-14.902343-8.226562-20.535156-2.238282-2.214844-4.765625-3.964844-7.453125-5.261718 2.902343-.695313 5.746093-1.867188 8.40625-3.550782 6.765625-4.289062 11.042969-11.011718 12.421875-18.308594zm0 0" fill="#fed994"/><path d="m242.570312 443.433594c-13.644531-7.097656-30.050781-8.78125-45.707031-3.375 3.570313-16.171875.011719-32.277344-8.613281-45.015625-3.824219-5.648438-11.457031-7.398438-17.359375-3.964844-13.292969 7.730469-23.496094 20.691406-27.308594 36.804687-6.992187-6.941406-15.316406-11.738281-24.144531-14.382812-2.015625 19.710938-3.351562 41.117188-3.703125 64.148438-.101563 6.675781 5.257813 12.152343 11.933594 12.152343h91.816406c13.378906-6.097656 23.464844-16.824219 29.015625-29.5625 2.734375-6.273437.136719-13.644531-5.929688-16.804687zm0 0" fill="#fbd173"/></svg>