<svg height="512pt" viewBox="-16 0 512 512" width="512pt" xmlns="http://www.w3.org/2000/svg"><path d="m156.019531 360.460938-82.535156-66.875-24.863281 16.980468c-50.375 34.398438-64.136719 104.246094-29.300782 154.316406 21.335938 30.640626 55.527344 47.117188 90.3125 47.117188 21.34375 0 42.929688-6.207031 61.886719-19.15625l5.851563-4zm0 0" fill="#e36263"/><path d="m294.523438 0h-152.835938c-19.210938 0-34.789062 15.566406-34.789062 34.777344v28.269531l.007812-.003906 14.863281 24.132812-14.863281 30.21875-.007812-.011719v134.824219c0 11.609375-5.722657 22.472657-15.3125 29.015625l-18.101563 12.363282 103.886719 195.257812 90.660156-61.910156 58.707031-116.929688v-275.226562c0-19.210938-13.003906-34.777344-32.214843-34.777344zm0 0" fill="#dedcdd"/><path d="m308.855469 360.460938-82.53125-66.875-24.863281 16.980468c-50.375 34.398438-64.140626 104.246094-29.300782 154.316406 21.335938 30.640626 55.523438 47.117188 90.3125 47.117188 21.34375 0 42.929688-6.207031 61.886719-19.15625l5.851563-4zm0 0" fill="#fd747f"/><path d="m259.742188 63.042969h-152.835938v54.351562h152.835938l15.355468-28.578125zm0 0" fill="#75b8db"/><path d="m479.582031 117.394531-109.917969-27.175781-109.921874 27.175781-.003907 134.808594c0 11.609375-5.726562 22.476563-15.316406 29.019531l-18.097656 12.363282 103.886719 195.257812 90.65625-61.910156 58.707031-116.933594v-192.605469zm0 0" fill="#efedee"/><g fill="#545b67"><path d="m303.125 173.320312c-4.265625 0-7.726562-3.457031-7.726562-7.726562v-12.039062c0-4.269532 3.460937-7.726563 7.726562-7.726563s7.726562 3.457031 7.726562 7.726563v12.039062c0 4.269531-3.460937 7.726562-7.726562 7.726562zm0 0"/><path d="m436.199219 173.320312c-4.265625 0-7.726563-3.457031-7.726563-7.726562v-12.039062c0-4.269532 3.460938-7.726563 7.726563-7.726563 4.269531 0 7.726562 3.457031 7.726562 7.726563v12.039062c0 4.269531-3.457031 7.726562-7.726562 7.726562zm0 0"/><path d="m369.664062 179.75c-8.632812 0-16.738281-3.609375-22.242187-9.90625-2.808594-3.214844-2.480469-8.09375.734375-10.902344 3.210938-2.808594 8.09375-2.480468 10.902344.730469 2.566406 2.941406 6.433594 4.625 10.605468 4.625 4.167969 0 8.035157-1.683594 10.601563-4.625 2.808594-3.210937 7.691406-3.539063 10.902344-.730469 3.214843 2.808594 3.542969 7.6875.734375 10.902344-5.503906 6.292969-13.609375 9.90625-22.238282 9.90625zm0 0"/></g><path d="m479.574219 63.042969v-28.265625c0-19.210938-15.566407-34.777344-34.773438-34.777344h-150.277343c-19.207032 0-34.785157 15.566406-34.785157 34.777344l.003907 28.265625h.003906-.003906l109.921874 27.175781 109.917969-27.175781zm0 0" fill="#efedee"/><path d="m259.742188 63.042969h219.839843v54.351562h-219.839843zm0 0" fill="#96ccec"/><path d="m479.574219 310v18.800781c0 36.316407-17.929688 70.285157-47.921875 90.773438l-10.785156 7.359375c-13.515626-12.425782-21.984376-30.253906-21.984376-50.070313 0-37.582031 30.464844-68.046875 68.046876-68.046875 4.324218.003906 8.550781.398438 12.644531 1.183594zm0 0" fill="#fd747f"/></svg>