<svg height="512pt" viewBox="0 -71 512.00097 512" width="512pt" xmlns="http://www.w3.org/2000/svg"><path d="m108.5625 276.746094-102.21875-5.21875-5.183594 18.09375c-4.402344 15.363281 4.09375 31.464844 19.265625 36.492187l130.546875 43.269531c14.082032 4.667969 29.363282-2.339843 35.015625-16.042968l8.089844-19.589844zm0 0" fill="#fd747f"/><path d="m403.4375 276.746094 102.21875-5.21875 5.183594 18.09375c4.402344 15.363281-4.09375 31.464844-19.261719 36.492187l-130.550781 43.265625c-14.078125 4.671875-29.359375-2.339844-35.015625-16.039062l-8.085938-19.589844zm0 0" fill="#fd747f"/><path d="m30.335938 329.398438 16.273437-55.816407-40.203125-2.050781-5.246094 18.089844c-.824218 2.878906-1.1992185 5.785156-1.15624975 8.640625.17578175 12.542969 8.52343775 23.910156 20.41796875 27.851562zm0 0" fill="#e36263"/><path d="m450.96875 80.734375-194.96875-21.554687-194.96875 21.554687-54.6875 190.792969 187.734375 62.222656 28.054687-67.949219 33.867188-25.316406 33.867188 25.316406 28.058593 67.949219 187.730469-62.222656zm0 0" fill="#efedee"/><path d="m289.867188 265.800781s15.734374-35.914062 15.734374-92.53125c0-56.621093-15.734374-92.535156-15.734374-92.535156l-33.867188-21.554687-33.867188 21.554687v185.066406zm0 0" fill="#dedcdd"/><path d="m450.96875 80.734375h-389.9375l17.253906-57.089844c4.011719-13.996093 16.820313-23.644531 31.382813-23.644531h292.667969c14.5625 0 27.367187 9.648438 31.382812 23.644531zm0 0" fill="#fd747f"/><path d="m6.402344 271.546875 37.207031 12.332031 60.628906-207.921875-43.207031 4.777344zm0 0" fill="#dedcdd"/><path d="m150.875 0h-41.207031c-14.5625 0-27.371094 9.648438-31.382813 23.644531l-17.253906 57.089844h41.8125l16.648438-57.089844c4.011718-14 16.820312-23.644531 31.382812-23.644531zm0 0" fill="#e36263"/><g fill="#545b67"><path d="m180.507812 49.738281c-4.265624 0-7.726562-3.457031-7.726562-7.726562v-13.660157c0-4.269531 3.460938-7.726562 7.726562-7.726562 4.269532 0 7.726563 3.457031 7.726563 7.726562v13.660157c0 4.269531-3.457031 7.726562-7.726563 7.726562zm0 0"/><path d="m331.492188 49.738281c-4.269532 0-7.726563-3.457031-7.726563-7.726562v-13.660157c0-4.269531 3.457031-7.726562 7.726563-7.726562 4.269531 0 7.726562 3.457031 7.726562 7.726562v13.660157c0 4.269531-3.457031 7.726562-7.726562 7.726562zm0 0"/><path d="m256 57.03125c-9.488281 0-18.402344-3.964844-24.449219-10.882812-2.808593-3.214844-2.480469-8.09375.730469-10.902344 3.214844-2.808594 8.097656-2.480469 10.902344.730468 3.113281 3.5625 7.785156 5.601563 12.816406 5.601563s9.703125-2.039063 12.816406-5.601563c2.808594-3.210937 7.6875-3.539062 10.902344-.730468 3.210938 2.808594 3.539062 7.6875.730469 10.902344-6.046875 6.917968-14.957031 10.882812-24.449219 10.882812zm0 0"/></g></svg>