<svg height="512pt" viewBox="-93 0 512 512" width="512pt" xmlns="http://www.w3.org/2000/svg"><path d="m314.527344 464.964844-47.886719-28.628906-47.886719 28.628906c-6.554687 0-11.871094 5.316406-11.871094 11.871094v23.292968c0 6.554688 5.316407 11.871094 11.871094 11.871094h95.773438c6.558594 0 11.875-5.316406 11.875-11.871094v-23.292968c0-6.554688-5.316406-11.871094-11.875-11.871094zm0 0" fill="#c58d6f"/><path d="m11.871094 464.964844 47.886718-28.628906 47.886719 28.628906c6.558594 0 11.875 5.316406 11.875 11.871094v23.292968c0 6.554688-5.316406 11.871094-11.875 11.871094h-95.773437c-6.554688 0-11.871094-5.316406-11.871094-11.871094v-23.292968c0-6.554688 5.316406-11.871094 11.871094-11.871094zm0 0" fill="#c58d6f"/><path d="m314.527344 320.761719v144.203125h-95.777344l-35.507812-149.34375c-1.554688-6.554688-7.414063-11.1875-14.152344-11.1875h-11.78125c-6.738282 0-12.597656 4.632812-14.152344 11.1875l-35.507812 149.34375h-95.777344v-144.203125l24.355468-89.230469c17.492188-28.660156 38.015626-70.992188 38.015626-111.890625h177.914062c0 40.898437 20.519531 83.230469 38.015625 111.890625zm0 0" fill="#b1785d"/><path d="m143.382812 119.640625h-69.140624c0 11.507813-1.621094 23.128906-4.347657 34.527344 7.773438 6.453125 17.75 10.339843 28.617188 10.339843 24.742187 0 44.867187-20.128906 44.871093-44.867187zm0 0" fill="#925b47"/><path d="m183.019531 119.640625h69.136719c0 11.507813 1.625 23.128906 4.351562 34.527344-7.773437 6.453125-17.75 10.339843-28.621093 10.339843-24.738281 0-44.867188-20.128906-44.867188-44.867187zm0 0" fill="#925b47"/><path d="m109.796875 0h-22.570313c-7.167968 0-12.984374 5.8125-12.984374 12.984375v106.652344c0 13.402343 10.867187 24.265625 24.269531 24.265625 13.402343 0 24.269531-10.863282 24.269531-24.265625v-106.652344c0-7.171875-5.8125-12.984375-12.984375-12.984375zm0 0" fill="#c58d6f"/><path d="m216.601562 0h22.570313c7.171875 0 12.984375 5.8125 12.984375 12.984375v106.652344c0 13.402343-10.863281 24.265625-24.269531 24.265625-13.402344 0-24.265625-10.863282-24.265625-24.265625v-106.652344c0-7.171875 5.8125-12.984375 12.980468-12.984375zm0 0" fill="#c58d6f"/><path d="m107.644531 114.25c0 5.046875-4.089843 9.132812-9.132812 9.132812s-9.132813-4.085937-9.132813-9.132812c0-5.042969 4.089844-9.132812 9.132813-9.132812s9.132812 4.089843 9.132812 9.132812zm0 0" fill="#fed994"/><path d="m237.019531 114.25c0 5.046875-4.085937 9.132812-9.132812 9.132812-5.042969 0-9.128907-4.085937-9.128907-9.132812 0-5.042969 4.085938-9.132812 9.128907-9.132812 5.046875 0 9.132812 4.089843 9.132812 9.132812zm0 0" fill="#fed994"/><g fill="#c58d6f"><path d="m314.527344 291.828125v28.9375c-.507813.019531-1.023438.03125-1.53125.03125-26.257813 0-47.546875-21.289063-47.546875-47.546875 0-17.988281 9.988281-33.640625 24.722656-41.71875 3.84375 6.300781 7.546875 11.933594 10.847656 16.75 8.796875 12.820312 13.507813 27.992188 13.507813 43.546875zm0 0"/><path d="m60.953125 273.25c0 26.253906-21.289063 47.542969-47.546875 47.542969-.511719 0-1.023438-.007813-1.535156-.03125v-28.933594c0-15.554687 4.714844-30.726563 13.507812-43.550781 3.300782-4.816406 7.003906-10.449219 10.847656-16.746094 14.734376 8.078125 24.726563 23.730469 24.726563 41.71875zm0 0"/><path d="m211.847656 168.035156h-97.292968c-10.121094 0-18.328126 8.203125-18.328126 18.324219v42.21875c0 24.707031 20.027344 44.734375 44.734376 44.734375h44.480468c24.703125 0 44.730469-20.027344 44.730469-44.734375v-42.21875c0-10.121094-8.203125-18.324219-18.324219-18.324219zm0 0"/></g><path d="m122.808594 224.332031c-4.269532 0-7.726563-3.460937-7.726563-7.726562v-7.3125c0-4.265625 3.457031-7.726563 7.726563-7.726563 4.269531 0 7.726562 3.460938 7.726562 7.726563v7.3125c0 4.265625-3.457031 7.726562-7.726562 7.726562zm0 0" fill="#545b67"/><path d="m203.589844 224.332031c-4.265625 0-7.722656-3.460937-7.722656-7.726562v-7.3125c0-4.265625 3.457031-7.726563 7.722656-7.726563 4.269531 0 7.726562 3.460938 7.726562 7.726563v7.3125c0 4.265625-3.457031 7.726562-7.726562 7.726562zm0 0" fill="#545b67"/><path d="m163.199219 228.234375c-6.113281 0-11.867188-2.570313-15.785157-7.054687-2.808593-3.210938-2.480468-8.09375.730469-10.902344 3.210938-2.808594 8.09375-2.480469 10.902344.734375.984375 1.125 2.496094 1.769531 4.152344 1.769531s3.167969-.644531 4.152343-1.769531c2.808594-3.210938 7.691407-3.539063 10.902344-.730469 3.210938 2.804688 3.542969 7.6875.730469 10.902344-3.914063 4.480468-9.667969 7.050781-15.785156 7.050781zm0 0" fill="#545b67"/><path d="m11.871094 439.128906v25.835938h95.777344l6.144531-25.835938zm0 0" fill="#925b47"/><path d="m314.527344 439.128906v25.835938h-95.773438l-6.144531-25.835938zm0 0" fill="#925b47"/></svg>