<svg height="511pt" viewBox="0 -37 511.99972 511" width="511pt" xmlns="http://www.w3.org/2000/svg"><path d="m486.929688 302.984375c0 28.230469 42.652343 32.664063 16.691406 86.582031-29.957032 60.90625-141.785156 46.925782-141.785156 46.925782zm0 0" fill="#f27991"/><path d="m25.070312 302.984375c0 28.230469-42.652343 32.664063-16.691406 86.582031 29.953125 60.90625 141.785156 46.925782 141.785156 46.925782zm0 0" fill="#f27991"/><path d="m314.265625 423.832031c-26.316406 0-34.636719-12.964843-58.265625-12.964843s-31.953125 12.964843-58.265625 12.964843l39.578125-87.578125s11.03125-2.46875 18.6875-2.46875 18.6875 2.46875 18.6875 2.46875zm0 0" fill="#f27991"/><path d="m431.964844 10.65625c-1.410156-4.839844-5.753906-8.246094-10.785156-8.496094l-33.128907-1.644531c-8.257812-.410156-14.375 7.550781-11.867187 15.429687 21.746094 68.3125 22.746094 131.113282 19.445312 173.015626-3.902344 49.53125-14.5 81.664062-14.605468 81.980468l26.023437 8.761719 26 8.820313c.511719-1.503907 12.558594-37.507813 17.164063-93.246094 3.730468-45.050782 3.050781-111.539063-18.246094-184.621094zm0 0" fill="#fda2b0"/><path d="m80.035156 10.65625c1.410156-4.839844 5.753906-8.246094 10.785156-8.496094l33.125-1.644531c8.257813-.410156 14.378907 7.550781 11.871094 15.429687-21.746094 68.3125-22.746094 131.113282-19.445312 173.015626 3.902344 49.53125 14.496094 81.664062 14.605468 81.980468l-26.023437 8.761719-26 8.820313c-.511719-1.503907-12.558594-37.507813-17.167969-93.246094-3.726562-45.050782-3.046875-111.539063 18.25-184.621094zm0 0" fill="#fda2b0"/><path d="m447.355469 221.566406c-5.464844 40.539063-13.878907 65.703125-14.304688 66.957032l-26.003906-8.820313-26.019531-8.761719c.082031-.246094 6.363281-19.308594 11.035156-50.613281 7.636719-.976563 15.527344-1.507813 23.664062-1.507813 10.507813 0 21.105469.929688 31.628907 2.746094zm0 0" fill="#fd89a0"/><path d="m452.226562 254.097656c-81.609374-19.570312-143.449218 31.507813-166.941406 55.230469-7.078125 7.148437-10.914062 16.867187-10.597656 26.921875.992188 31.597656 11.820312 100.242188 87.148438 100.242188 98.132812 0 120.488281-83.652344 125.09375-133.507813 2.09375-22.621094-12.609376-43.589844-34.703126-48.886719zm0 0" fill="#fda2b0"/><path d="m64.644531 221.566406c5.464844 40.539063 13.878907 65.703125 14.304688 66.957032l26.003906-8.820313 26.019531-8.761719c-.082031-.246094-6.363281-19.308594-11.035156-50.613281-7.636719-.976563-15.527344-1.507813-23.664062-1.507813-10.507813 0-21.105469.929688-31.628907 2.746094zm0 0" fill="#fd89a0"/><path d="m59.773438 254.097656c81.609374-19.570312 143.449218 31.507813 166.941406 55.230469 7.078125 7.148437 10.914062 16.867187 10.597656 26.921875-.992188 31.597656-11.820312 100.242188-87.148438 100.242188-98.136718 0-120.488281-83.652344-125.09375-133.507813-2.09375-22.621094 12.609376-43.589844 34.703126-48.886719zm0 0" fill="#fda2b0"/><g fill="#545b67"><path d="m70.429688 353.863281c-4.265626 0-7.726563-3.460937-7.726563-7.726562v-10.558594c0-4.269531 3.460937-7.726563 7.726563-7.726563 4.265624 0 7.726562 3.457032 7.726562 7.726563v10.558594c0 4.265625-3.460938 7.726562-7.726562 7.726562zm0 0"/><path d="m187.136719 353.863281c-4.265625 0-7.726563-3.460937-7.726563-7.726562v-10.558594c0-4.269531 3.460938-7.726563 7.726563-7.726563 4.269531 0 7.726562 3.457032 7.726562 7.726563v10.558594c0 4.265625-3.457031 7.726562-7.726562 7.726562zm0 0"/><path d="m128.785156 359.5c-7.84375 0-15.214844-3.285156-20.21875-9.015625-2.808594-3.210937-2.484375-8.089844.730469-10.902344 3.210937-2.804687 8.09375-2.480469 10.902344.734375 2.070312 2.371094 5.203125 3.730469 8.585937 3.730469 3.382813 0 6.511719-1.359375 8.582032-3.730469 2.808593-3.210937 7.691406-3.539062 10.902343-.730468 3.214844 2.808593 3.542969 7.6875.734375 10.902343-5.007812 5.726563-12.378906 9.011719-20.21875 9.011719zm0 0"/><path d="m441.570312 353.863281c-4.269531 0-7.726562-3.460937-7.726562-7.726562v-10.558594c0-4.269531 3.457031-7.726563 7.726562-7.726563 4.265626 0 7.726563 3.457032 7.726563 7.726563v10.558594c0 4.265625-3.460937 7.726562-7.726563 7.726562zm0 0"/><path d="m324.863281 353.863281c-4.269531 0-7.726562-3.460937-7.726562-7.726562v-10.558594c0-4.269531 3.457031-7.726563 7.726562-7.726563 4.265625 0 7.726563 3.457032 7.726563 7.726563v10.558594c0 4.265625-3.460938 7.726562-7.726563 7.726562zm0 0"/><path d="m383.214844 359.5c-7.839844 0-15.210938-3.285156-20.21875-9.015625-2.808594-3.210937-2.480469-8.09375.734375-10.902344 3.210937-2.804687 8.09375-2.480469 10.902343.734375 2.070313 2.371094 5.199219 3.730469 8.582032 3.730469 3.382812 0 6.515625-1.359375 8.585937-3.730469 2.808594-3.214844 7.6875-3.539062 10.902344-.734375 3.210937 2.808594 3.542969 7.691407.730469 10.902344-5.003906 5.730469-12.375 9.015625-20.21875 9.015625zm0 0"/></g></svg>