<svg height="512pt" viewBox="0 -59 512.00076 512" width="512pt" xmlns="http://www.w3.org/2000/svg"><path d="m495.710938 157.980469c-4.015626-19.992188-20.003907-35.40625-40.144532-38.679688l-13.53125-2.195312-14.019531 45.496093 27.875 23.425782c21.070313 21.152344 48.070313 12.976562 48.070313 12.976562zm0 0" fill="#c58d6f"/><path d="m511.21875 235.121094-7.253906-36.117188-48.070313-12.980468-11.671875 50.871093 32.113282 50.867188 17.578124-11.441407c13.65625-8.886718 20.515626-25.210937 17.304688-41.199218zm0 0" fill="#b1785d"/><path d="m16.289062 157.980469c4.015626-19.992188 20.003907-35.40625 40.144532-38.679688l13.53125-2.195312 14.023437 45.496093-27.878906 23.425782c-21.070313 21.152344-48.070313 12.976562-48.070313 12.976562zm0 0" fill="#c58d6f"/><path d="m.78125 235.121094 7.257812-36.117188 48.070313-12.980468 11.667969 50.871093-32.113282 50.867188-17.578124-11.441407c-13.65625-8.886718-20.515626-25.210937-17.304688-41.199218zm0 0" fill="#b1785d"/><path d="m424.34375 25.933594c-3.03125-15.078125-16.289062-25.933594-31.671875-25.933594h-273.339844c-15.382812 0-28.644531 10.855469-31.675781 25.933594l-6.972656 37.855468 180.546875 29.972657 170.089843-29.972657zm0 0" fill="#b1785d"/><path d="m442.035156 117.105469 38.316406 190.648437-74.820312 42.546875-86.632812-4.078125-44.074219-137.085937-18.824219-19.167969-18.820312 19.167969-44.078126 137.085937-86.632812 4.078125-74.816406-42.546875 38.3125-190.648437 65.09375-53.320313h241.886718zm0 0" fill="#7eda9a"/><path d="m202.566406 316.789062c-.605468-.179687-1.210937-.355468-1.828125-.515624l-.238281-.058594-161.507812-38.480469c-.414063-.101563-.835938-.179687-1.253907-.269531l-6.085937 30.289062 74.816406 42.546875 86.632812-4.078125zm0 0" fill="#61c87c"/><path d="m193.101562 346.222656-161.449218-38.46875c-9.300782-2.371094-18.757813 3.277344-21.078125 12.589844l-3.257813 13.078125c-2.304687 9.242187 3.289063 18.609375 12.519532 20.960937l161.449218 38.464844c9.300782 2.371094 18.753906-3.273437 21.078125-12.589844l3.257813-13.074218c2.300781-9.242188-3.292969-18.609375-12.519532-20.960938zm0 0" fill="#b1785d"/><path d="m318.898438 346.222656 86.632812 4.078125 74.820312-42.546875-6.089843-30.289062c-.414063.089844-.835938.167968-1.25.269531l-161.273438 38.421875-.476562.117188c-.617188.160156-1.222657.335937-1.828125.515624zm0 0" fill="#61c87c"/><path d="m318.898438 346.222656 161.453124-38.46875c9.300782-2.371094 18.753907 3.277344 21.074219 12.589844l3.257813 13.078125c2.304687 9.242187-3.289063 18.609375-12.519532 20.960937l-161.449218 38.464844c-9.300782 2.371094-18.753906-3.273437-21.074219-12.589844l-3.261719-13.074218c-2.300781-9.242188 3.292969-18.609375 12.519532-20.960938zm0 0" fill="#b1785d"/><path d="m237.179688 63.785156v145.351563h37.644531s12.894531-11.851563 12.894531-72.675781c0-60.824219-12.894531-72.671876-12.894531-72.671876h-37.644531zm0 0" fill="#61c87c"/><path d="m256 19.867188c-6.640625 0-12.023438 5.386718-12.023438 12.027343s5.382813 12.023438 12.023438 12.023438 12.027344-5.382813 12.027344-12.023438-5.386719-12.027343-12.027344-12.027343zm0 0" fill="#c58d6f"/><path d="m442.035156 117.105469c-3.460937.691406-7.046875 1.054687-10.714844 1.054687-30.035156 0-54.375-24.34375-54.375-54.375h54.375zm0 0" fill="#61c87c"/><path d="m135.058594 63.785156c0 30.03125-24.34375 54.375-54.375 54.375-3.671875 0-7.257813-.363281-10.71875-1.054687l10.71875-53.320313zm0 0" fill="#61c87c"/><g fill="#fff"><path d="m350.636719 178.792969c-5.339844-.039063-10.414063-3.375-12.304688-8.640625-8.898437-24.808594-9.597656-46.152344-10.210937-64.980469-.644532-19.757813-1.199219-36.816406-10.582032-55.347656-3.261718-6.4375-.6875-14.304688 5.753907-17.566407 6.441406-3.261718 14.304687-.683593 17.566406 5.753907 12.003906 23.699219 12.710937 45.359375 13.390625 66.308593.578125 17.730469 1.175781 36.066407 8.6875 57.003907 2.957031 8.246093-3.5 17.53125-12.300781 17.46875zm0 0"/><path d="m161.367188 178.792969c5.335937-.039063 10.414062-3.375 12.300781-8.640625 8.898437-24.808594 9.597656-46.152344 10.210937-64.980469.644532-19.757813 1.199219-36.816406 10.585938-55.347656 3.261718-6.4375.683594-14.304688-5.757813-17.566407-6.4375-3.261718-14.304687-.683593-17.566406 5.753907-12.003906 23.699219-12.707031 45.359375-13.390625 66.308593-.578125 17.730469-1.175781 36.066407-8.6875 57.003907-2.957031 8.246093 3.5 17.53125 12.304688 17.46875zm0 0"/></g></svg>