<svg height="512pt" viewBox="0 -46 512 512" width="512pt" xmlns="http://www.w3.org/2000/svg"><path d="m121.144531 0c56.269531 0 101.886719 45.617188 101.886719 101.886719v217.160156c0 56.269531-45.617188 101.886719-101.886719 101.886719s-101.886719-45.617188-101.886719-101.886719v-217.160156c0-56.269531 45.617188-101.886719 101.886719-101.886719zm0 0" fill="#fed994"/><path d="m121.144531 102.066406 101.886719 44.117188v156.585937c-27.660156 0-50.164062-22.5-50.164062-50.160156v-49.699219c0-28.519531-23.203126-51.722656-51.722657-51.722656-28.523437 0-51.726562 23.203125-51.726562 51.722656v49.699219c0 27.660156-22.5 50.160156-50.160157 50.160156v-156.585937zm0 0" fill="#fbd173"/><path d="m101.886719 83.304688v-28.496094c0-10.636719 8.621093-19.257813 19.257812-19.257813s19.257813 8.621094 19.257813 19.257813v28.496094c57.679687 9.253906 101.886718 59.359374 101.886718 119.605468v49.699219c0 10.632813-8.621093 19.253906-19.257812 19.253906s-19.257812-8.621093-19.257812-19.253906v-49.699219c0-45.558594-37.066407-82.628906-82.628907-82.628906s-82.628906 37.070312-82.628906 82.628906v49.699219c0 10.632813-8.621094 19.253906-19.257813 19.253906-10.636718 0-19.257812-8.621093-19.257812-19.253906v-49.699219c0-60.246094 44.207031-110.355468 101.886719-119.605468zm0 0" fill="#61c87c"/><g fill="#545b67"><path d="m177.535156 329.609375c-4.265625 0-7.726562-3.460937-7.726562-7.726563v-10.207031c0-4.265625 3.460937-7.726562 7.726562-7.726562 4.269532 0 7.726563 3.460937 7.726563 7.726562v10.207031c0 4.265626-3.457031 7.726563-7.726563 7.726563zm0 0"/><path d="m64.753906 329.609375c-4.269531 0-7.726562-3.460937-7.726562-7.726563v-10.207031c0-4.265625 3.457031-7.726562 7.726562-7.726562 4.265625 0 7.722656 3.460937 7.722656 7.726562v10.207031c0 4.265626-3.457031 7.726563-7.722656 7.726563zm0 0"/><path d="m121.144531 335.058594c-7.652343 0-14.847656-3.207032-19.734375-8.800782-2.808594-3.210937-2.480468-8.09375.730469-10.902343 3.210937-2.808594 8.09375-2.480469 10.902344.730469 1.953125 2.234374 4.90625 3.519531 8.101562 3.519531 3.195313 0 6.148438-1.28125 8.101563-3.515625 2.804687-3.214844 7.6875-3.542969 10.902344-.734375 3.210937 2.808593 3.539062 7.691406.730468 10.902343-4.886718 5.59375-12.082031 8.800782-19.734375 8.800782zm0 0"/></g><path d="m390.855469 0c-56.269531 0-101.886719 45.617188-101.886719 101.886719v217.160156c0 56.269531 45.617188 101.886719 101.886719 101.886719s101.886719-45.617188 101.886719-101.886719v-217.160156c0-56.269531-45.617188-101.886719-101.886719-101.886719zm0 0" fill="#fed994"/><path d="m390.855469 102.066406-101.886719 44.117188v156.585937c27.660156 0 50.164062-22.5 50.164062-50.160156v-49.699219c0-28.519531 23.203126-51.722656 51.722657-51.722656 28.523437 0 51.726562 23.203125 51.726562 51.722656v49.699219c0 27.660156 22.5 50.160156 50.160157 50.160156v-156.585937zm0 0" fill="#fbd173"/><path d="m410.113281 83.304688v-28.496094c0-10.636719-8.621093-19.257813-19.257812-19.257813s-19.257813 8.621094-19.257813 19.257813v28.496094c-57.679687 9.253906-101.886718 59.359374-101.886718 119.605468v49.699219c0 10.632813 8.621093 19.253906 19.257812 19.253906s19.257812-8.621093 19.257812-19.253906v-49.699219c0-45.558594 37.066407-82.628906 82.628907-82.628906s82.628906 37.070312 82.628906 82.628906v49.699219c0 10.632813 8.621094 19.253906 19.257813 19.253906 10.636718 0 19.257812-8.621093 19.257812-19.253906v-49.699219c0-60.246094-44.207031-110.355468-101.886719-119.605468zm0 0" fill="#61c87c"/><path d="m334.464844 329.609375c-4.269532 0-7.726563-3.460937-7.726563-7.726563v-10.207031c0-4.265625 3.457031-7.726562 7.726563-7.726562 4.265625 0 7.726562 3.460937 7.726562 7.726562v10.207031c0 4.265626-3.460937 7.726563-7.726562 7.726563zm0 0" fill="#545b67"/><path d="m447.246094 329.609375c-4.265625 0-7.722656-3.460937-7.722656-7.726563v-10.207031c0-4.265625 3.457031-7.726562 7.722656-7.726562 4.269531 0 7.726562 3.460937 7.726562 7.726562v10.207031c0 4.265626-3.457031 7.726563-7.726562 7.726563zm0 0" fill="#545b67"/><path d="m390.855469 335.058594c-7.652344 0-14.847657-3.207032-19.734375-8.800782-2.808594-3.210937-2.480469-8.09375.730468-10.902343 3.210938-2.808594 8.09375-2.480469 10.902344.730469 1.953125 2.234374 4.90625 3.519531 8.101563 3.519531 3.195312 0 6.148437-1.28125 8.101562-3.515625 2.808594-3.214844 7.6875-3.542969 10.902344-.734375 3.210937 2.808593 3.539063 7.691406.730469 10.902343-4.886719 5.59375-12.078125 8.800782-19.734375 8.800782zm0 0" fill="#545b67"/></svg>