<svg height="512pt" viewBox="-59 0 512 512" width="512pt" xmlns="http://www.w3.org/2000/svg"><path d="m392.816406 420.238281c-41.71875-127.503906-109.316406-197.585937-109.316406-197.585937l-86.273438-19.910156-86.273437 19.910156s-67.597656 70.082031-109.3125 197.585937c-4.28125 13.085938.003906 27.457031 10.722656 36.097657 26.214844 21.121093 84.429688 55.664062 184.863281 55.664062 100.433594 0 158.652344-34.539062 184.863282-55.664062 10.722656-8.640626 15.007812-23.011719 10.726562-36.097657zm0 0" fill="#fda2b0"/><path d="m12.363281 456.332031c.789063.636719 1.609375 1.285157 2.453125 1.941407 43.25-122.460938 125.328125-235.621094 125.328125-235.621094l71.675781-16.542969-14.59375-3.367187-86.273437 19.90625s-67.597656 70.082031-109.3125 197.589843c-4.28125 13.085938 0 27.457031 10.722656 36.09375zm0 0" fill="#fd89a0"/><path d="m327.625 90.804688c-20.589844-29.335938-13.898438-62.480469-13.449219-79.457032.164063-6.214844-4.796875-11.347656-11.015625-11.347656h-26.886718c-6.089844 0-11.023438 4.933594-11.023438 11.019531v5.902344c0 37.570313-30.453125 68.023437-68.023438 68.023437-37.566406 0-68.023437-30.453124-68.023437-68.023437v-5.902344c0-6.085937-4.933594-11.019531-11.019531-11.019531h-26.886719c-6.21875 0-11.183594 5.132812-11.015625 11.347656.445312 16.976563 7.136719 50.121094-13.449219 79.457032-2.28125 3.25-3.085937 7.316406-2.203125 11.191406 3.734375 16.414062 16.078125 40.507812 46.324219 80.835937l86.277344 19.910157 86.273437-19.910157c30.246094-40.328125 42.589844-64.421875 46.324219-80.835937.878906-3.875.078125-7.941406-2.203125-11.191406zm0 0" fill="#efedee"/><path d="m140.144531 182.832031c-31.933593-42.578125-55.191406-89.136719-63.050781-112.597656-2.257812 6.894531-5.535156 13.832031-10.261719 20.570313-2.285156 3.25-3.085937 7.320312-2.203125 11.191406 3.730469 16.414062 16.078125 40.507812 46.324219 80.839844l86.273437 19.90625 15.996094-3.691407zm0 0" fill="#dedcdd"/><path d="m110.953125 182.832031h172.546875v39.820313h-172.546875zm0 0" fill="#fd747f"/><path d="m131.300781 139.574219c-4.269531 0-7.726562-3.457031-7.726562-7.726563v-11.449218c0-4.269532 3.457031-7.726563 7.726562-7.726563 4.265625 0 7.726563 3.457031 7.726563 7.726563v11.449218c0 4.269532-3.460938 7.726563-7.726563 7.726563zm0 0" fill="#545b67"/><path d="m257.84375 139.574219c-4.265625 0-7.726562-3.457031-7.726562-7.726563v-11.449218c0-4.269532 3.460937-7.726563 7.726562-7.726563 4.269531 0 7.726562 3.457031 7.726562 7.726563v11.449218c0 4.269532-3.457031 7.726563-7.726562 7.726563zm0 0" fill="#545b67"/><path d="m194.574219 145.6875c-8.316407 0-16.128907-3.480469-21.433594-9.550781-2.8125-3.210938-2.484375-8.09375.730469-10.902344 3.210937-2.808594 8.089844-2.480469 10.902344.730469 2.371093 2.714844 5.941406 4.269531 9.800781 4.269531 3.855469 0 7.425781-1.554687 9.796875-4.265625 2.8125-3.214844 7.691406-3.542969 10.902344-.734375 3.214843 2.808594 3.542968 7.6875.734374 10.902344-5.304687 6.070312-13.117187 9.550781-21.433593 9.550781zm0 0" fill="#545b67"/><g fill="#fd89a0"><path d="m83.417969 457.011719c-.152344 0-.304688-.003907-.460938-.011719-4.257812-.25-7.507812-3.90625-7.257812-8.167969 6.699219-113.871093 55.898437-179.367187 57.988281-182.097656 2.59375-3.386719 7.441406-4.035156 10.828125-1.441406s4.035156 7.4375 1.445313 10.824219c-.117188.160156-12.253907 16.238281-25.015626 45.574218-11.757812 27.03125-26.472656 71.1875-29.820312 128.046875-.242188 4.105469-3.644531 7.273438-7.707031 7.273438zm0 0"/><path d="m311.035156 457.011719c-4.058594 0-7.464844-3.167969-7.707031-7.273438-3.34375-56.859375-18.0625-101.015625-29.820313-128.046875-12.761718-29.335937-24.894531-45.414062-25.015624-45.574218-2.582032-3.390626-1.933594-8.238282 1.457031-10.824219 3.386719-2.589844 8.230469-1.945313 10.820312 1.441406 2.089844 2.730469 51.289063 68.226563 57.988281 182.097656.25 4.257813-3 7.914063-7.261718 8.164063-.15625.011718-.308594.015625-.460938.015625zm0 0"/><path d="m197.226562 476.921875c-4.265624 0-7.726562-3.460937-7.726562-7.726563v-197.765624c0-4.269532 3.460938-7.726563 7.726562-7.726563 4.269532 0 7.726563 3.457031 7.726563 7.726563v197.765624c0 4.265626-3.457031 7.726563-7.726563 7.726563zm0 0"/></g><path d="m110.953125 182.832031h29.191406v39.820313h-29.191406zm0 0" fill="#e36263"/></svg>