<svg height="512pt" viewBox="-14 0 512 512.00014" width="512pt" xmlns="http://www.w3.org/2000/svg"><path d="m125.292969 137.03125-43.261719 170.042969-35.914062 17.835937-26.792969-29.832031s9.367187-242.292969 82.035156-243.667969zm0 0" fill="#c58d6f"/><path d="m62.863281 80.683594c-.332031 6.796875.253907 13.671875 1.816407 20.46875 8.398437 36.476562 22.261718 72.421875 42.042968 108.871094l18.570313-72.992188-23.9375-85.617188c-15.554688.289063-28.207031 11.632813-38.492188 29.269532zm0 0" fill="#b1785d"/><path d="m358.753906 137.03125 43.257813 170.042969 35.914062 17.835937 26.792969-29.832031s-9.367188-242.292969-82.035156-243.667969zm0 0" fill="#dfae96"/><path d="m421.171875 80.683594c.332031 6.796875-.25 13.671875-1.816406 20.46875-8.398438 36.476562-22.257813 72.421875-42.039063 108.871094l-18.570312-72.992188 23.933594-85.617188c15.554687.289063 28.210937 11.632813 38.492187 29.269532zm0 0" fill="#c58d6f"/><path d="m250.398438 36.988281h-124.941407c-25.765625 6.550781-41.644531 32.476563-35.675781 58.386719 10.238281 44.476562 30.199219 92.03125 64.914062 144.316406l35.667969 23.328125 22.71875-23.328125 98.394531-125.636718zm0 0" fill="#c58d6f"/><path d="m358.589844 36.988281h-108.191406l-8.378907 31.546875v68.496094l-28.9375 37.445312v65.214844l28.941407 19.414063 87.328124-19.414063c34.71875-52.285156 54.667969-99.84375 64.914063-144.320312 5.972656-25.90625-9.910156-51.835938-35.675781-58.382813zm0 0" fill="#dfae96"/><path d="m180.027344.0390625h123.988281l-3.628906 68.4765625-58.363281 68.515625-58.367188-68.515625zm0 0" fill="#b1785d"/><path d="m356.808594 29.777344c-12.804688-32.132813-52.792969-29.7382815-52.792969-29.7382815l-61.992187 136.9921875s29.105468-35.171875 69.453124-22.980469c8.277344 2.503907 17.136719-1.347656 20.699219-9.222656l24.019531-53.074219c3.144532-6.945312 3.433594-14.894531.613282-21.976562zm0 0" fill="#fedaad"/><path d="m127.234375 29.777344c12.804687-32.132813 52.792969-29.7382815 52.792969-29.7382815l61.996094 136.9921875s-29.109376-35.171875-69.457032-22.980469c-8.277344 2.503907-17.136718-1.347656-20.699218-9.222656l-24.019532-53.074219c-3.144531-6.945312-3.433594-14.894531-.613281-21.976562zm0 0" fill="#fedaad"/><path d="m213.074219 263.480469-58.375 15.039062s-52.664063 57.492188-75.660157 189.484375c0 0 44.425782 36.207032 134.039063 42.925782l33.945313-116.585938zm0 0" fill="#c58d6f"/><path d="m405.011719 468.003906s-53.996094 43.996094-162.988281 43.996094c-10.117188 0-19.765626-.378906-28.949219-1.070312v-247.449219l28.949219-7.460938 87.324218 22.5s52.664063 57.496094 75.664063 189.484375zm0 0" fill="#dfae96"/><g fill="#b1785d"><path d="m285.519531 193.023438c0 8.558593-6.941406 15.5-15.5 15.5-8.558593 0-15.496093-6.941407-15.496093-15.5 0-8.558594 6.9375-15.496094 15.496093-15.496094 8.558594 0 15.5 6.9375 15.5 15.496094zm0 0"/><path d="m285.519531 332.714844c0 8.5625-6.941406 15.5-15.5 15.5-8.558593 0-15.496093-6.9375-15.496093-15.5 0-8.558594 6.9375-15.496094 15.496093-15.496094 8.558594 0 15.5 6.9375 15.5 15.496094zm0 0"/><path d="m285.519531 411.414062c0 8.558594-6.941406 15.496094-15.5 15.496094-8.558593 0-15.496093-6.9375-15.496093-15.496094 0-8.558593 6.9375-15.5 15.496093-15.5 8.558594 0 15.5 6.941407 15.5 15.5zm0 0"/></g><path d="m483.816406 328.042969-4.394531-22.988281c-1.304687-6.8125-7.886719-11.28125-14.703125-9.976563l-62.707031 11.996094c-6.8125 1.304687-11.28125 7.886719-9.976563 14.699219l4.398438 22.988281c1.300781 6.816406 7.882812 11.28125 14.699218 9.976562l62.707032-11.996093c6.816406-1.304688 11.28125-7.886719 9.976562-14.699219zm0 0" fill="#fedaad"/><path d="m.226562 328.042969 4.398438-22.988281c1.304688-6.8125 7.886719-11.28125 14.699219-9.976563l62.707031 11.996094c6.816406 1.304687 11.285156 7.886719 9.980469 14.699219l-4.398438 22.988281c-1.304687 6.816406-7.886719 11.28125-14.703125 9.976562l-62.707031-11.996093c-6.8125-1.304688-11.28125-7.886719-9.976563-14.699219zm0 0" fill="#fedaad"/><path d="m154.695312 239.691406h174.65625v38.828125h-174.65625zm0 0" fill="#b1785d"/></svg>