<svg height="512pt" viewBox="0 -2 512 512" width="512pt" xmlns="http://www.w3.org/2000/svg"><path d="m23.667969 367.6875c-4.269531 0-7.726563-3.460938-7.726563-7.726562v-72c0-4.269532 3.457032-7.726563 7.726563-7.726563 4.265625 0 7.726562 3.457031 7.726562 7.726563v72c0 4.265624-3.460937 7.726562-7.726562 7.726562zm0 0" fill="#fd747f"/><path d="m74.25 402.9375c-4.269531 0-7.726562-3.460938-7.726562-7.726562v-72c0-4.265626 3.457031-7.726563 7.726562-7.726563 4.265625 0 7.726562 3.460937 7.726562 7.726563v72c0 4.265624-3.460937 7.726562-7.726562 7.726562zm0 0" fill="#efedee"/><path d="m124.832031 438.1875c-4.265625 0-7.726562-3.460938-7.726562-7.726562v-72c0-4.265626 3.460937-7.726563 7.726562-7.726563 4.269531 0 7.726563 3.460937 7.726563 7.726563v72c0 4.265624-3.457032 7.726562-7.726563 7.726562zm0 0" fill="#fd747f"/><path d="m175.417969 473.4375c-4.269531 0-7.726563-3.460938-7.726563-7.726562v-72c0-4.265626 3.457032-7.726563 7.726563-7.726563 4.265625 0 7.722656 3.460937 7.722656 7.726563v72c0 4.265624-3.457031 7.726562-7.722656 7.726562zm0 0" fill="#efedee"/><path d="m226 508.6875c-4.269531 0-7.726562-3.460938-7.726562-7.726562v-72c0-4.269532 3.457031-7.726563 7.726562-7.726563s7.726562 3.457031 7.726562 7.726563v72c0 4.265624-3.457031 7.726562-7.726562 7.726562zm0 0" fill="#fd747f"/><path d="m488.332031 367.6875c-4.265625 0-7.726562-3.460938-7.726562-7.726562v-72c0-4.269532 3.460937-7.726563 7.726562-7.726563 4.269531 0 7.726563 3.457031 7.726563 7.726563v72c0 4.265624-3.457032 7.726562-7.726563 7.726562zm0 0" fill="#efedee"/><path d="m437.75 402.9375c-4.269531 0-7.726562-3.460938-7.726562-7.726562v-72c0-4.265626 3.457031-7.726563 7.726562-7.726563s7.726562 3.460937 7.726562 7.726563v72c0 4.265624-3.460937 7.726562-7.726562 7.726562zm0 0" fill="#fd747f"/><path d="m387.167969 438.1875c-4.269531 0-7.726563-3.460938-7.726563-7.726562v-72c0-4.265626 3.457032-7.726563 7.726563-7.726563 4.265625 0 7.726562 3.460937 7.726562 7.726563v72c0 4.265624-3.460937 7.726562-7.726562 7.726562zm0 0" fill="#efedee"/><path d="m336.582031 473.4375c-4.265625 0-7.722656-3.460938-7.722656-7.726562v-72c0-4.265626 3.457031-7.726563 7.722656-7.726563 4.269531 0 7.726563 3.460937 7.726563 7.726563v72c0 4.265624-3.457032 7.726562-7.726563 7.726562zm0 0" fill="#fd747f"/><path d="m286 508.6875c-4.269531 0-7.726562-3.460938-7.726562-7.726562v-72c0-4.269532 3.457031-7.726563 7.726562-7.726563s7.726562 3.457031 7.726562 7.726563v72c0 4.265624-3.457031 7.726562-7.726562 7.726562zm0 0" fill="#efedee"/><path d="m226 421.234375c-4.269531 0-7.726562 3.460937-7.726562 7.726563v41.441406c5.066406 2.128906 10.210937 4.210937 15.453124 6.242187v-47.683593c0-4.269532-3.457031-7.726563-7.726562-7.726563zm0 0" fill="#e36263"/><path d="m175.417969 385.984375c-4.269531 0-7.726563 3.460937-7.726563 7.726563v52.601562c5.035156 2.695312 10.183594 5.359375 15.449219 7.984375v-60.585937c0-4.265626-3.457031-7.726563-7.722656-7.726563zm0 0" fill="#dedcdd"/><path d="m124.832031 350.734375c-4.265625 0-7.726562 3.460937-7.726562 7.726563v57.550781c4.984375 3.324219 10.144531 6.652343 15.453125 9.964843v-67.515624c0-4.265626-3.457032-7.726563-7.726563-7.726563zm0 0" fill="#e36263"/><path d="m74.25 315.484375c-4.269531 0-7.726562 3.460937-7.726562 7.726563v55.046874c4.863281 4.050782 10.015624 8.203126 15.453124 12.429688v-67.476562c0-4.265626-3.460937-7.726563-7.726562-7.726563zm0 0" fill="#dedcdd"/><path d="m23.667969 280.234375c-4.269531 0-7.726563 3.457031-7.726563 7.726563v42.558593c4.648438 4.992188 9.796875 10.316407 15.453125 15.894531v-58.453124c0-4.269532-3.460937-7.726563-7.726562-7.726563zm0 0" fill="#e36263"/><path d="m286 421.234375c4.269531 0 7.726562 3.460937 7.726562 7.726563v41.441406c-5.066406 2.128906-10.210937 4.210937-15.453124 6.242187v-47.683593c0-4.269532 3.460937-7.726563 7.726562-7.726563zm0 0" fill="#dedcdd"/><path d="m336.582031 385.984375c4.269531 0 7.726563 3.460937 7.726563 7.726563v52.601562c-5.035156 2.695312-10.183594 5.359375-15.449219 7.984375v-60.585937c0-4.265626 3.457031-7.726563 7.722656-7.726563zm0 0" fill="#e36263"/><path d="m387.167969 350.734375c4.265625 0 7.726562 3.460937 7.726562 7.726563v57.550781c-4.984375 3.324219-10.144531 6.652343-15.453125 9.964843v-67.515624c0-4.265626 3.457032-7.726563 7.726563-7.726563zm0 0" fill="#dedcdd"/><path d="m437.75 315.484375c4.269531 0 7.726562 3.460937 7.726562 7.726563v55.046874c-4.863281 4.050782-10.015624 8.203126-15.453124 12.429688v-67.476562c0-4.265626 3.460937-7.726563 7.726562-7.726563zm0 0" fill="#e36263"/><path d="m488.332031 280.234375c4.269531 0 7.726563 3.457031 7.726563 7.726563v42.558593c-4.648438 4.992188-9.796875 10.316407-15.453125 15.894531v-58.453124c0-4.269532 3.460937-7.726563 7.726562-7.726563zm0 0" fill="#dedcdd"/><path d="m498.160156 238.371094 13.839844 40.589844s-82 122-256 184c-174-62-256-184-256-184l13.839844-40.589844 242.160156 112.292968zm0 0" fill="#606673"/><path d="m40.710938 250.832031-26.871094-12.460937-13.839844 40.589844s.0234375.03125.0625.09375c4.113281 6.03125 8.695312 11.742187 13.335938 17.371093 2.746093 3.332031 5.550781 6.621094 8.402343 9.867188zm0 0" fill="#545b67"/><path d="m476.230469 174.058594h-440.460938l-21.929687 64.3125c30 39.007812 109.230468 127.230468 242.160156 174.589844 132.929688-47.359376 212.160156-135.582032 242.160156-174.589844zm0 0" fill="#fd747f"/><path d="m13.839844 238.371094c5.621094 7.308594 12.972656 16.347656 22.078125 26.519531l30.972656-90.828125h-31.117187zm0 0" fill="#e36263"/><path d="m461.570312 131.070312 14.660157 42.992188c-13.402344 13.808594-29.332031 28.777344-47.890625 43.957031-50.011719 40.890625-105.730469 72.441407-165.632813 93.78125-2.167969.769531-4.4375 1.160157-6.707031 1.160157s-4.542969-.390626-6.710938-1.160157c-59.898437-21.339843-115.621093-52.886719-165.628906-93.78125-18.5625-15.179687-34.492187-30.148437-47.890625-43.957031l14.660157-42.992188zm0 0" fill="#efedee"/><path d="m50.433594 131.070312-14.660156 42.992188c7.074218 7.292969 14.867187 14.914062 23.371093 22.714844l22.40625-65.707032zm0 0" fill="#dedcdd"/><path d="m461.570312 131.070312c-36.46875 40.761719-104.582031 103-205.570312 140.601563-100.988281-37.601563-169.101562-99.839844-205.570312-140.601563l15.109374-44.300781c14.542969-42.648437 40.519532-74.449219 84.632813-83.640625l13.417969-2.789062c6.601562-1.378906 13.351562 1.511718 16.890625 7.25 9.980469 16.160156 33.988281 49.683594 75.519531 77.371094 41.53125-27.691407 65.542969-61.210938 75.523438-77.371094 3.539062-5.738282 10.289062-8.628906 16.886718-7.25l13.421875 2.789062c44.109375 9.191406 70.089844 40.992188 84.628907 83.640625zm0 0" fill="#606673"/><path d="m65.429688 87.089844-14.996094 43.984375c6.601562 7.378906 14.257812 15.46875 22.941406 23.980469l13.800781-40.46875c14.539063-42.652344 40.519531-74.453126 84.628907-83.640626l13.417968-2.789062c3.792969-.792969 7.632813-.171875 10.882813 1.585938-5.613281-7.085938-10.875-14.460938-15.625-22.152344-3.539063-5.738282-10.289063-8.628906-16.890625-7.25-4.472656.929687-8.945313 1.859375-13.417969 2.789062-33.082031 6.894532-55.96875 26.503906-71.476563 53.871094-.644531 1.140625-1.277343 2.296875-1.902343 3.460938-4.484375 8.433593-8.171875 17.273437-11.253907 26.308593zm0 0" fill="#545b67"/><g fill="#fff"><path d="m175.121094 166.921875c-4.269532 0-7.726563-3.460937-7.726563-7.726563v-14.636718c0-4.269532 3.457031-7.726563 7.726563-7.726563 4.265625 0 7.726562 3.457031 7.726562 7.726563v14.636718c0 4.265626-3.460937 7.726563-7.726562 7.726563zm0 0"/><path d="m336.878906 166.921875c-4.265625 0-7.726562-3.460937-7.726562-7.726563v-14.636718c0-4.269532 3.460937-7.726563 7.726562-7.726563 4.269532 0 7.726563 3.457031 7.726563 7.726563v14.636718c0 4.265626-3.457031 7.726563-7.726563 7.726563zm0 0"/><path d="m256 174.734375c-10.011719 0-19.40625-4.183594-25.777344-11.472656-2.808594-3.214844-2.480468-8.097657.730469-10.902344 3.214844-2.808594 8.09375-2.480469 10.902344.730469 3.4375 3.933594 8.59375 6.191406 14.144531 6.191406s10.707031-2.257812 14.144531-6.191406c2.808594-3.214844 7.691407-3.539063 10.902344-.730469s3.539063 7.6875.730469 10.902344c-6.371094 7.289062-15.765625 11.472656-25.777344 11.472656zm0 0"/></g></svg>