<svg height="512pt" viewBox="0 -81 512.00047 512" width="512pt" xmlns="http://www.w3.org/2000/svg"><path d="m219.003906 1.902344c-18.160156-5.769532-37.882812 1.929687-47.378906 18.449218-8.800781 15.316407-6.671875 34.566407 5.265625 47.585938l11.984375 13.070312v32.921876l132.640625 59.308593 94.191406-29.652343c-63.632812 0-128.160156-119.894532-196.703125-141.683594zm0 0" fill="#dedcdd"/><path d="m454.085938 228.011719h-404.695313l-20.234375 23.023437s-16.039062 35.976563-8.828125 71.714844c3.296875 16.335938 17.699219 28.066406 34.363281 28.0625 366.171875-.027344 457.308594-1.628906 457.308594-81.632812zm0 0" fill="#dedcdd"/><path d="m51.234375 322.75c-7.210937-35.738281 8.828125-71.710938 8.828125-71.710938l20.234375-23.027343h-30.90625l-20.234375 23.027343s-16.039062 35.972657-8.828125 71.710938c3.296875 16.335938 17.699219 28.066406 34.363281 28.066406 10.398438 0 20.5625-.003906 30.519532-.007812-16.5-.179688-30.707032-11.847656-33.976563-28.058594zm0 0" fill="#cccacb"/><path d="m149.867188 283.832031h-64.542969c-8.765625 0-15.875 7.105469-15.875 15.871094 0 8.769531 7.109375 15.875 15.875 15.875h64.542969c8.765624 0 15.875-7.105469 15.875-15.875 0-8.765625-7.109376-15.871094-15.875-15.871094zm0 0" fill="#fd747f"/><path d="m415.707031 143.585938c-72.917969 0-96.46875-15.875-122.363281-31.742188-25.914062-15.878906-54.171875-31.757812-136.5-31.757812-57.195312 0-38.324219-27.890626-115.589844-30.5-7.421875-.253907-14.265625 4.054687-17.207031 10.878906-12.261719 28.429687-40.28125 105.972656-11.460937 165.679687l.011718-.011719 143.546875 5.367188 191.882813 23.023438 106.058594-26.511719 43.078124-37.203125c-16.09375-28.488282-44.53125-47.222656-81.457031-47.222656zm0 0" fill="#fd747f"/><g fill="#545b67"><path d="m71.152344 151.449219c-4.265625 0-7.726563-3.460938-7.726563-7.726563v-12.039062c0-4.265625 3.460938-7.726563 7.726563-7.726563 4.269531 0 7.726562 3.460938 7.726562 7.726563v12.039062c0 4.265625-3.457031 7.726563-7.726562 7.726563zm0 0"/><path d="m204.203125 151.449219c-4.269531 0-7.726563-3.460938-7.726563-7.726563v-12.039062c0-4.265625 3.457032-7.726563 7.726563-7.726563s7.726563 3.460938 7.726563 7.726563v12.039062c0 4.265625-3.457032 7.726563-7.726563 7.726563zm0 0"/><path d="m137.679688 157.875c-8.628907 0-16.734376-3.609375-22.238282-9.90625-2.808594-3.210938-2.480468-8.09375.734375-10.902344 3.210938-2.804687 8.089844-2.480468 10.898438.734375 2.570312 2.9375 6.433593 4.621094 10.605469 4.621094 4.167968 0 8.03125-1.683594 10.601562-4.621094 2.808594-3.214843 7.6875-3.542969 10.902344-.734375 3.210937 2.808594 3.539062 7.691406.730468 10.902344-5.503906 6.296875-13.605468 9.90625-22.234374 9.90625zm0 0"/></g><path d="m12.597656 226.132812 31.480469 1.175782c-.195313-.386719-.398437-.773438-.585937-1.164063-28.820313-59.710937-.800782-137.25 11.460937-165.683593 1.769531-4.101563 4.957031-7.289063 8.832031-9.125-5.953125-.777344-11.941406-1.257813-17.9375-1.558594-4.328125-.210938-8.453125-.453125-12.523437 1.339844-4.121094 1.816406-7.492188 5.207031-9.277344 9.34375-14.417969 33.4375-24.261719 69.898437-24.04296875 106.523437.12109375 20.101563 3.57812475 40.5 12.59374975 59.148437zm0 0" fill="#e36263"/><path d="m511.996094 250.34375v18.839844s-16.042969 16.742187-170.945313 16.742187c-154.902343 0-57.21875-34.894531-311.894531-34.894531-6.898438-7.773438-12.339844-16.136719-16.570312-24.886719l.011718-.011719s42.023438-29.871093 104.996094-29.871093c62.976562 0 127.867188 42.210937 284.863281 42.210937 0 0 30.34375-54.855468 94.710938-47.664062 9.617187 17.007812 14.828125 37.492187 14.828125 59.535156zm0 0" fill="#606673"/><path d="m59.738281 251.21875h.242188c-6.898438-7.777344-12.261719-16.324219-16.488281-25.074219-2.128907-4.410156-3.941407-8.921875-5.476563-13.5-16.226563 6.957031-25.417969 13.488281-25.417969 13.488281l-.011718.011719c.265624.546875.550781 1.085938.824218 1.628907 3.558594 7.070312 7.914063 13.878906 13.226563 20.316406.816406.988281 1.65625 1.96875 2.519531 2.941406 10.820312 0 20.988281.066406 30.582031.1875zm0 0" fill="#545b67"/><path d="m311.644531 52.804688c1.824219.5625 3.742188.921874 5.460938 1.714843 11.269531 5.179688 14.269531 19.644531 5.894531 28.886719-9.363281 10.332031-17.414062 21.605469-24.613281 33.507812-7.976563 13.191407-14.640625 27.019532-19.980469 41.484376-2.941406 7.976562-10.59375 12.90625-18.789062 12.171874-8.515626-.765624-15.113282-6.929687-16.574219-15.472656-.03125-.195312-.144531-.375-.222657-.558594 0-1.507812 0-3.015624 0-4.523437.464844-1.585937.839844-3.210937 1.414063-4.757813 6.144531-16.621093 13.832031-32.503906 23.011719-47.65625 8.292968-13.6875 17.546875-26.679687 28.371094-38.507812 2.523437-2.753906 5.515624-4.707031 9.132812-5.675781.789062-.214844 1.582031-.410157 2.375-.613281zm0 0" fill="#606673"/><path d="m374.234375 115.289062c-.050781 4.746094-1.511719 8.929688-4.726563 12.304688-5.347656 5.617188-9.625 11.992188-13.578124 18.601562-8.226563 13.742188-14.65625 28.332032-20.179688 43.335938-4.96875 13.5-21.910156 16.9375-31.171875 6.222656-4.605469-5.328125-5.832031-11.570312-3.429687-18.183594 7.144531-19.6875 15.765624-38.6875 27.164062-56.328124 4.316406-6.683594 8.910156-13.183594 14.625-18.769532 5.425781-5.304687 11.941406-6.851562 19.074219-4.347656 7.101562 2.492188 11.050781 7.804688 12.125 15.238281.097656.660157.070312 1.335938.097656 1.925781zm0 0" fill="#606673"/><path d="m416.546875 125.507812c7.035156.328126 12.867187 3.722657 16.023437 10.742188 3.207032 7.128906 2.214844 14.019531-3.085937 19.839844-5.589844 6.140625-10.339844 12.855468-14.339844 20.070312-3.90625 7.050782-7.523437 14.265625-11.039062 21.523438-3.550781 7.328125-11.011719 11.757812-18.839844 10.808594-8.082031-.980469-14.34375-6.792969-15.941406-14.847657-.710938-3.585937-.375-7.113281 1.113281-10.445312 6.71875-15.042969 14.433594-29.53125 24.402344-42.707031 2.570312-3.394532 5.402344-6.613282 8.335937-9.699219 3.417969-3.59375 7.8125-5.179688 13.371094-5.285157zm0 0" fill="#606673"/></svg>