<svg height="512pt" viewBox="0 -119 512.00006 512" width="512pt" xmlns="http://www.w3.org/2000/svg"><path d="m207.136719 0c-59.207031 0-123.105469 26.125-145.953125 36.402344-6.113282 2.75-11.371094 7.078125-15.308594 12.5-44.734375 61.585937-47.039062 159.765625-45.578125 203.230468.410156 12.230469 10.425781 21.933594 22.660156 21.933594h92.824219l148.453125-267.347656c-18.5-4.007812-38.039063-6.71875-57.097656-6.71875zm0 0" fill="#75b8db"/><path d="m41.503906 252.132812c-1.460937-43.464843.847656-141.644531 45.578125-203.226562 3.941407-5.425781 9.195313-9.753906 15.308594-12.5 20.210937-9.09375 72.542969-30.582031 125.335937-35.421875-6.878906-.628906-13.765624-.98046875-20.589843-.98046875-59.207031 0-123.105469 26.12109375-145.953125 36.40234375-6.113282 2.746094-11.371094 7.074219-15.308594 12.5-44.734375 61.582031-47.039062 159.761719-45.578125 203.226562.410156 12.230469 10.425781 21.933594 22.660156 21.933594h41.207031c-12.234374 0-22.25-9.703125-22.660156-21.933594zm0 0" fill="#66a9cc"/><path d="m414.265625 231.847656c-.167969-37.671875-4.316406-94.191406-23.890625-142.535156-12.230469-30.203125-36.636719-53.800781-67.195312-65.117188-16.480469-6.105468-36.980469-12.710937-58.945313-17.476562-22.226563 4.820312-42.953125 11.527344-59.539063 17.695312-29.695312 11.039063-53.710937 33.804688-65.851562 63.066407-33.675781 81.171875-23.0625 186.585937-23.0625 186.585937h47.753906zm0 0" fill="#efedee"/><g fill="#545b67"><path d="m191.328125 152.667969c-4.269531 0-7.726563-3.457031-7.726563-7.722657v-15.074218c0-4.269532 3.457032-7.726563 7.726563-7.726563 4.265625 0 7.726563 3.457031 7.726563 7.726563v15.074218c0 4.265626-3.460938 7.722657-7.726563 7.722657zm0 0"/><path d="m357.902344 152.667969c-4.269532 0-7.726563-3.457031-7.726563-7.722657v-15.074218c0-4.269532 3.457031-7.726563 7.726563-7.726563 4.265625 0 7.722656 3.457031 7.722656 7.726563v15.074218c0 4.265626-3.457031 7.722657-7.722656 7.722657zm0 0"/><path d="m274.613281 160.714844c-10.238281 0-19.851562-4.277344-26.371093-11.734375-2.808594-3.214844-2.480469-8.09375.730468-10.902344 3.214844-2.808594 8.09375-2.480469 10.902344.734375 3.585938 4.097656 8.957031 6.453125 14.738281 6.453125s11.15625-2.355469 14.738281-6.453125c2.8125-3.214844 7.691407-3.542969 10.902344-.734375 3.214844 2.808594 3.542969 7.6875.734375 10.902344-6.519531 7.457031-16.132812 11.734375-26.375 11.734375zm0 0"/></g><path d="m512 274.066406s-6.226562-42.214844-38.757812-42.214844h-270.949219c-32.53125 0-38.757813 42.214844-38.757813 42.214844zm0 0" fill="#fd747f"/><path d="m243.5 231.847656h-41.207031c-32.53125 0-38.757813 42.21875-38.757813 42.21875h41.207032s6.230468-42.21875 38.757812-42.21875zm0 0" fill="#e36263"/></svg>