<svg height="511pt" viewBox="-23 0 511 511.99998" width="511pt" xmlns="http://www.w3.org/2000/svg"><path d="m42.300781 440.554688c-5.863281-4.875-6.667969-13.582032-1.792969-19.445313l74.644532-89.804687c4.875-5.867188 13.582031-6.667969 19.445312-1.792969 5.867188 4.875 6.667969 13.578125 1.792969 19.445312l-74.644531 89.804688c-4.871094 5.863281-13.578125 6.667969-19.445313 1.792969zm0 0" fill="#75b8db"/><path d="m124.421875 508.8125c-5.863281-4.875-6.664063-13.582031-1.792969-19.449219l74.644532-89.804687c4.875-5.863282 13.582031-6.667969 19.445312-1.792969 5.867188 4.875 6.667969 13.582031 1.792969 19.445313l-74.644531 89.808593c-4.875 5.863281-13.582032 6.664063-19.445313 1.792969zm0 0" fill="#75b8db"/><path d="m83.363281 474.683594c-5.867187-4.875-6.667969-13.582032-1.792969-19.445313l74.644532-89.808593c4.875-5.863282 13.578125-6.667969 19.445312-1.792969 5.863282 4.875 6.667969 13.582031 1.792969 19.449219l-74.644531 89.804687c-4.875 5.863281-13.582032 6.667969-19.445313 1.792969zm0 0" fill="#96ccec"/><path d="m96.523438 0h273.203124v118.023438h-273.203124zm0 0" fill="#f27991"/><path d="m423.949219 440.554688c5.867187-4.875 6.667969-13.582032 1.792969-19.445313l-74.644532-89.804687c-4.875-5.867188-13.578125-6.667969-19.445312-1.792969-5.863282 4.875-6.667969 13.578125-1.792969 19.445312l74.644531 89.804688c4.875 5.863281 13.582032 6.667969 19.445313 1.792969zm0 0" fill="#75b8db"/><path d="m341.828125 508.8125c5.863281-4.875 6.667969-13.582031 1.792969-19.449219l-74.644532-89.804687c-4.875-5.863282-13.582031-6.667969-19.445312-1.792969s-6.667969 13.582031-1.792969 19.445313l74.644531 89.808593c4.875 5.863281 13.582032 6.664063 19.445313 1.792969zm0 0" fill="#75b8db"/><path d="m382.890625 474.683594c5.863281-4.875 6.667969-13.582032 1.792969-19.445313l-74.644532-89.808593c-4.875-5.863282-13.582031-6.667969-19.445312-1.792969-5.867188 4.875-6.667969 13.582031-1.792969 19.449219l74.644531 89.804687c4.875 5.863281 13.578126 6.667969 19.445313 1.792969zm0 0" fill="#96ccec"/><path d="m351.097656 331.304688c-4.875-5.867188-13.578125-6.667969-19.445312-1.796876-5.863282 4.875-6.667969 13.582032-1.792969 19.449219l40.9375 49.25 21.238281-17.652343zm0 0" fill="#66a9cc"/><path d="m310.039062 365.429688c-4.875-5.863282-13.582031-6.667969-19.445312-1.792969s-6.667969 13.582031-1.792969 19.445312l40.9375 49.253907 21.238281-17.652344zm0 0" fill="#75b8db"/><path d="m309.914062 448.8125-40.9375-49.253906c-4.875-5.863282-13.578124-6.667969-19.445312-1.792969-5.863281 4.875-6.667969 13.582031-1.792969 19.445313l40.9375 49.253906zm0 0" fill="#66a9cc"/><path d="m115.152344 331.304688c4.875-5.867188 13.582031-6.667969 19.445312-1.796876 5.867188 4.875 6.667969 13.582032 1.792969 19.449219l-40.9375 49.25-21.238281-17.652343zm0 0" fill="#66a9cc"/><path d="m156.210938 365.429688c4.875-5.863282 13.582031-6.667969 19.449218-1.792969 5.863282 4.875 6.664063 13.582031 1.789063 19.445312l-40.9375 49.253907-21.238281-17.652344zm0 0" fill="#75b8db"/><path d="m156.335938 448.8125 40.9375-49.253906c4.875-5.863282 13.582031-6.667969 19.445312-1.792969 5.867188 4.875 6.667969 13.582031 1.792969 19.445313l-40.9375 49.253906zm0 0" fill="#66a9cc"/><path d="m28.722656 56.355469 67.800782-56.355469 288.054687 346.570312-127.953125 106.347657-238.058594-286.421875c-27.613281-33.21875-23.0625-82.53125 10.15625-110.140625zm0 0" fill="#fd89a0"/><path d="m437.53125 56.355469-67.804688-56.355469-288.054687 346.570312 127.953125 106.347657 238.0625-286.421875c27.609375-33.21875 23.0625-82.53125-10.15625-110.140625zm0 0" fill="#fda2b0"/><g fill="#545b67"><path d="m174.507812 50.699219c-4.265624 0-7.726562-3.460938-7.726562-7.726563v-10.609375c0-4.269531 3.460938-7.726562 7.726562-7.726562 4.265626 0 7.726563 3.457031 7.726563 7.726562v10.609375c0 4.265625-3.460937 7.726563-7.726563 7.726563zm0 0"/><path d="m291.746094 50.699219c-4.269532 0-7.726563-3.460938-7.726563-7.726563v-10.609375c0-4.269531 3.457031-7.726562 7.726563-7.726562 4.265625 0 7.726562 3.457031 7.726562 7.726562v10.609375c0 4.265625-3.460937 7.726563-7.726562 7.726563zm0 0"/><path d="m233.125 56.359375c-7.867188 0-15.261719-3.292969-20.285156-9.042969-2.808594-3.210937-2.480469-8.09375.734375-10.902344 3.210937-2.804687 8.09375-2.480468 10.902343.734376 2.085938 2.390624 5.242188 3.761718 8.648438 3.761718 3.410156 0 6.5625-1.371094 8.652344-3.761718 2.808594-3.210938 7.6875-3.539063 10.902344-.730469 3.210937 2.808593 3.539062 7.6875.730468 10.902343-5.023437 5.746094-12.414062 9.039063-20.285156 9.039063zm0 0"/></g></svg>