<svg height="511pt" viewBox="1 -12 511.99897 511" width="511pt" xmlns="http://www.w3.org/2000/svg"><path d="m428.21875 419.703125-32.066406 13.105469v41.257812c0 7.488282 6.074218 13.558594 13.5625 13.558594h37.007812c7.488282 0 13.5625-6.070312 13.5625-13.558594v-41.257812zm0 0" fill="#e36263"/><path d="m145.152344 413.5-128.167969 19.308594c-12.710937 30.261718-16.984375 54.816406-16.984375 54.816406h225.488281c26.972657 0 41.019531-17.882812 54.820313-54.816406zm0 0" fill="#e36263"/><path d="m446.378906 9.222656c-5.191406-7.839844-15.222656-10.820312-23.902344-7.1875-180.914062 75.765625-134.226562 319.0625-262.152343 319.0625-80.917969 0-122.972657 63.1875-143.339844 111.707032h263.324219c8.933594-23.945313 17.789062-55.90625 29.996094-96.191407 19.914062-65.730469 49.632812-86.074219 68.367187-92.214843 8.628906-2.828126 17.480469 3.726562 17.480469 12.808593v175.597657h64.128906v-63.09375c0-100.332032 51.71875-122.050782 51.71875-196.523438 0-58.460938-45.882812-134.125-65.621094-163.964844zm0 0" fill="#fd747f"/><g fill="#545b67"><path d="m110.804688 392.226562c-4.265626 0-7.726563-3.457031-7.726563-7.726562v-11.898438c0-4.265624 3.460937-7.726562 7.726563-7.726562 4.269531 0 7.726562 3.460938 7.726562 7.726562v11.898438c0 4.269531-3.457031 7.726562-7.726562 7.726562zm0 0"/><path d="m242.292969 392.226562c-4.265625 0-7.726563-3.457031-7.726563-7.726562v-11.898438c0-4.265624 3.460938-7.726562 7.726563-7.726562 4.269531 0 7.726562 3.460938 7.726562 7.726562v11.898438c0 4.269531-3.460937 7.726562-7.726562 7.726562zm0 0"/><path d="m176.550781 398.578125c-8.554687 0-16.589843-3.578125-22.046875-9.820313-2.808594-3.210937-2.476562-8.09375.734375-10.902343 3.210938-2.808594 8.09375-2.480469 10.902344.734375 2.519531 2.882812 6.316406 4.535156 10.410156 4.535156s7.886719-1.652344 10.410157-4.535156c2.808593-3.214844 7.6875-3.542969 10.902343-.734375 3.210938 2.808593 3.539063 7.691406.730469 10.902343-5.457031 6.242188-13.492188 9.820313-22.042969 9.820313zm0 0"/></g></svg>