<svg height="511pt" viewBox="-12 0 511 511.99982" width="511pt" xmlns="http://www.w3.org/2000/svg"><path d="m243.59375 347.21875 72.347656-108.605469 10.730469-181.644531h-166.160156l24.5625 187.441406zm0 0" fill="#fff"/><path d="m243.59375 347.21875-58.519531-102.808594v-65.425781l-150.980469-122.015625c-18.554688 0-33.59375 15.039062-33.59375 33.59375v387.839844c0 18.558594 15.039062 33.597656 33.59375 33.597656h179.382812l46.386719-89.660156zm0 0" fill="#75b8db"/><path d="m213.476562 512 46.386719-89.660156-16.269531-75.121094-17.109375-30.058594-6.761719 10.148438-14.328125 13.832031c-14.503906 14.003906-22.824219 33.597656-22.824219 53.761719v117.097656zm0 0" fill="#66a9cc"/><path d="m213.476562 244.410156-28.402343-65.425781-26.398438 8.164063-27.15625 29.21875c-6.941406 7.46875-6.554687 19.144531.871094 26.140624l111.203125 104.710938zm0 0" fill="#96ccec"/><path d="m213.476562 244.410156-179.382812-187.441406h126.417969zm0 0" fill="#b4dbf3"/><path d="m453.09375 56.96875-107.382812 49.664062-36.933594 80.515626 7.164062 51.464843-72.347656 108.605469-16.734375 16.15625c-8.550781 8.257812-13.382813 19.636719-13.382813 31.527344v117.097656h239.613282c18.554687 0 33.597656-15.042969 33.597656-33.59375v-387.84375c0-18.554688-15.039062-33.59375-33.59375-33.59375zm0 0" fill="#75b8db"/><path d="m355.664062 216.367188-27.15625-29.21875-10.800781-19.472657-43.996093 76.730469-30.117188 102.8125 111.199219-104.710938c7.425781-6.992187 7.816406-18.671874.871093-26.140624zm0 0" fill="#96ccec"/><path d="m273.710938 244.410156 179.382812-187.441406h-126.421875zm0 0" fill="#b4dbf3"/><path d="m266.734375 76.71875s78.285156 88.761719 78.285156-21.46875-78.285156-21.46875-78.285156-21.46875zm0 0" fill="#e36263"/><path d="m220.449219 76.71875s-78.285157 88.761719-78.285157-21.46875 78.285157-21.46875 78.285157-21.46875zm0 0" fill="#e36263"/><path d="m248.933594 27.363281h-10.683594c-15.402344 0-27.890625 12.484375-27.890625 27.886719 0 15.40625 12.488281 27.890625 27.890625 27.890625h10.683594c15.402344 0 27.890625-12.484375 27.890625-27.890625 0-15.402344-12.488281-27.886719-27.890625-27.886719zm0 0" fill="#fd747f"/><g fill="#606673"><path d="m256.382812 202.09375c0 7.066406-5.726562 12.792969-12.789062 12.792969-7.066406 0-12.792969-5.726563-12.792969-12.792969 0-7.0625 5.726563-12.789062 12.792969-12.789062 7.0625 0 12.789062 5.726562 12.789062 12.789062zm0 0"/><path d="m256.382812 137.898438c0 7.0625-5.726562 12.789062-12.789062 12.789062-7.066406 0-12.792969-5.726562-12.792969-12.789062 0-7.066407 5.726563-12.792969 12.792969-12.792969 7.0625 0 12.789062 5.726562 12.789062 12.792969zm0 0"/></g></svg>