<svg height="512pt" viewBox="-29 0 512 512" width="512pt" xmlns="http://www.w3.org/2000/svg"><path d="m53.675781 200.917969-17.125 16.148437v233.128906h34.253907v-233.128906zm0 0" fill="#fbd173"/><path d="m400.671875 200.917969 17.125 16.148437v233.128906h-34.253906v-233.128906zm0 0" fill="#fbd173"/><path d="m154.640625 77.320312c0 42.703126-34.617187 77.320313-77.320313 77.320313-42.703124 0-77.320312-34.617187-77.320312-77.320313 0-42.703124 34.617188-77.320312 77.320312-77.320312 42.703126 0 77.320313 34.617188 77.320313 77.320312zm0 0" fill="#c58d6f"/><path d="m117.085938 77.320312c0 21.960938-17.804688 39.765626-39.765626 39.765626-21.960937 0-39.765624-17.804688-39.765624-39.765626 0-21.960937 17.804687-39.765624 39.765624-39.765624 21.960938 0 39.765626 17.804687 39.765626 39.765624zm0 0" fill="#fedaad"/><path d="m454.347656 77.320312c0 42.703126-34.617187 77.320313-77.320312 77.320313s-77.320313-34.617187-77.320313-77.320313c0-42.703124 34.617188-77.320312 77.320313-77.320312s77.320312 34.617188 77.320312 77.320312zm0 0" fill="#c58d6f"/><path d="m416.792969 77.320312c0 21.960938-17.804688 39.765626-39.765625 39.765626-21.960938 0-39.765625-17.804688-39.765625-39.765626 0-21.960937 17.804687-39.765624 39.765625-39.765624 21.960937 0 39.765625 17.804687 39.765625 39.765624zm0 0" fill="#fedaad"/><path d="m227.171875 4.53125c-97.257813 0-177.503906 72.832031-189.164063 166.941406l189.164063 22.796875 189.167969-22.796875c-11.660156-94.109375-91.90625-166.941406-189.167969-166.941406zm0 0" fill="#dfae96"/><g fill="#545b67"><path d="m137.242188 134.546875c-4.265626 0-7.726563-3.460937-7.726563-7.726563v-16.277343c0-4.265625 3.460937-7.726563 7.726563-7.726563 4.265624 0 7.726562 3.460938 7.726562 7.726563v16.277343c0 4.265626-3.457031 7.726563-7.726562 7.726563zm0 0"/><path d="m317.105469 134.546875c-4.265625 0-7.726563-3.460937-7.726563-7.726563v-16.277343c0-4.265625 3.460938-7.726563 7.726563-7.726563s7.726562 3.460938 7.726562 7.726563v16.277343c0 4.265626-3.460937 7.726563-7.726562 7.726563zm0 0"/><path d="m227.171875 143.234375c-10.878906 0-21.089844-4.542969-28.011719-12.460937-2.808594-3.214844-2.480468-8.09375.730469-10.902344 3.214844-2.8125 8.097656-2.480469 10.902344.730468 3.988281 4.5625 9.960937 7.179688 16.378906 7.179688 6.421875 0 12.394531-2.617188 16.378906-7.179688 2.8125-3.210937 7.691407-3.539062 10.902344-.730468 3.214844 2.808594 3.542969 7.6875.734375 10.902344-6.921875 7.917968-17.132812 12.460937-28.015625 12.460937zm0 0"/></g><path d="m417.796875 247.972656v-30.90625l-17.125-16.148437-17.128906 16.148437v30.90625zm0 0" fill="#edc15f"/><path d="m70.804688 247.972656v-30.90625l-17.128907-16.148437-17.125 16.148437v30.90625zm0 0" fill="#edc15f"/><path d="m417.796875 195.152344v21.914062h-381.246094v-21.914062c0-8.019532.5-15.925782 1.457031-23.679688h378.332032c.957031 7.757813 1.457031 15.660156 1.457031 23.679688zm0 0" fill="#fbd173"/><path d="m99.523438 466.152344c0 25.320312-20.527344 45.847656-45.847657 45.847656-25.320312 0-45.847656-20.527344-45.847656-45.847656 0-25.320313 20.527344-45.847656 45.847656-45.847656 25.320313 0 45.847657 20.527343 45.847657 45.847656zm0 0" fill="#c58d6f"/><path d="m74.28125 491.394531c-25.320312 0-45.847656-20.523437-45.847656-45.84375 0-7.347656 1.734375-14.28125 4.808594-20.4375-15.0625 7.515625-25.414063 23.066407-25.414063 41.039063 0 25.320312 20.527344 45.847656 45.847656 45.847656 17.976563 0 33.527344-10.351562 41.042969-25.410156-6.15625 3.070312-13.09375 4.804687-20.4375 4.804687zm0 0" fill="#b1785d"/><path d="m446.515625 466.152344c0 25.320312-20.523437 45.847656-45.84375 45.847656s-45.847656-20.527344-45.847656-45.847656c0-25.320313 20.527343-45.847656 45.847656-45.847656s45.84375 20.527343 45.84375 45.847656zm0 0" fill="#c58d6f"/><path d="m421.273438 491.394531c-25.320313 0-45.847657-20.523437-45.847657-45.84375 0-7.347656 1.738281-14.28125 4.808594-20.4375-15.0625 7.515625-25.410156 23.066407-25.410156 41.039063 0 25.320312 20.523437 45.847656 45.847656 45.847656 17.972656 0 33.523437-10.351562 41.039063-25.410156-6.15625 3.070312-13.089844 4.804687-20.4375 4.804687zm0 0" fill="#b1785d"/></svg>