<svg height="512pt" viewBox="0 -77 512.00077 512" width="512pt" xmlns="http://www.w3.org/2000/svg"><path d="m71.65625 42.308594-21.15625 20.148437c-30.59375 74.523438-45.300781 191.195313-50.316406 239.1875-1.460938 13.941407 5.980468 27.347657 18.644531 33.351563 4.453125 2.117187 9.601563 4.363281 15.390625 6.589844l52.402344-279.128907zm0 0" fill="#fbd173"/><path d="m511.820312 301.644531c-5.019531-47.992187-19.726562-164.664062-50.316406-239.1875l-19.140625-20.148437-16.984375 20.148437 52.402344 279.128907c5.792969-2.226563 10.9375-4.472657 15.390625-6.589844 12.664063-6.003906 20.105469-19.410156 18.648437-33.351563zm0 0" fill="#fbd173"/><path d="m425.378906 62.457031-169.378906-20.148437-169.375 20.148437c-27.996094 96.210938-44.304688 209.953125-52.402344 279.128907 32.222656 12.378906 84.667969 24.265624 151.777344 10.6875 12.078125-2.4375 21.566406-11.785157 24.066406-23.855469l22.957032-110.886719c1.039062-8.0625 7.90625-14.085938 16.027343-14.085938h13.898438c8.121093 0 14.992187 6.027344 16.027343 14.085938l22.957032 110.886719c2.5 12.070312 11.988281 21.417969 24.066406 23.855469 67.113281 13.578124 119.554688 1.691406 151.78125-10.6875-8.101562-69.175782-24.410156-182.917969-52.402344-279.128907zm0 0" fill="#75b8db"/><path d="m434.320312 0h-356.636718c-15.015625 0-27.183594 12.171875-27.183594 27.183594v35.273437h411v-35.273437c0-15.011719-12.167969-27.183594-27.179688-27.183594zm0 0" fill="#96ccec"/><g fill="#efedee"><path d="m354.734375 186.078125c-7.027344.710937-13.8125-3.605469-15.957031-10.617187-9.285156-30.328126-8.882813-51.035157-8.5625-67.671876.40625-21.101562.632812-32.722656-19.121094-55.3125-5.492188-6.28125-4.851562-15.828124 1.429688-21.320312s15.828124-4.851562 21.320312 1.425781c27.441406 31.386719 27.027344 52.957031 26.585938 75.789063-.296876 15.246094-.628907 32.523437 7.246093 58.242187 2.726563 8.910157-3.691406 18.527344-12.941406 19.464844zm0 0"/><path d="m157.265625 186.078125c7.027344.710937 13.8125-3.605469 15.957031-10.617187 9.285156-30.328126 8.886719-51.035157 8.5625-67.671876-.40625-21.101562-.632812-32.722656 19.121094-55.3125 5.492188-6.28125 4.851562-15.828124-1.429688-21.320312s-15.828124-4.851562-21.320312 1.425781c-27.441406 31.386719-27.027344 52.957031-26.585938 75.789063.296876 15.246094.628907 32.523437-7.242187 58.242187-2.726563 8.910157 3.691406 18.527344 12.9375 19.464844zm0 0"/></g></svg>