<svg height="512pt" viewBox="-7 0 512 512.00054" width="512pt" xmlns="http://www.w3.org/2000/svg"><path d="m497.714844 207.875-45.308594-108.007812c-5.1875-16.03125-17.144531-28.980469-32.710938-35.4375l-60.058593-24.902344h-40.234375l-70.148438 208.382812 70.148438 259.046875c26.703125-4.492187 47.65625-11.027343 60.191406-15.558593 7.789062-2.816407 12.867188-10.324219 12.570312-18.597657l-9.832031-274.40625 31.359375 50.742188c4.4375 7.179687 13.628906 9.769531 21.15625 5.953125l54.75-27.71875c7.136719-3.621094 10.582032-11.894532 8.117188-19.496094zm0 0" fill="#606673"/><path d="m179.105469 39.527344h-40.234375l-60.058594 24.902344c-15.566406 6.457031-27.523438 19.402343-32.710938 35.4375l-45.308593 108.007812c-2.464844 7.601562.980469 15.875 8.117187 19.496094l54.75 27.71875c7.527344 3.816406 16.71875 1.226562 21.15625-5.953125l31.359375-50.742188-9.832031 274.40625c-.296875 8.273438 4.78125 15.78125 12.570312 18.597657 12.535157 4.527343 33.488282 11.066406 60.191407 15.558593l70.148437-259.046875zm0 0" fill="#606673"/><path d="m385.082031 50.078125-25.445312-10.550781h-40.234375l-31.585938 93.835937c1.628906.207031 3.28125.320313 4.953125.320313 7.191407 0 14.242188-1.992188 20.382813-5.761719 44.394531-27.230469 68.101562-52.839844 71.929687-77.84375zm0 0" fill="#545b67"/><path d="m179.105469 39.527344h-40.234375l-25.445313 10.550781c3.832031 25 27.535157 50.609375 71.925781 77.84375 6.144532 3.769531 13.191407 5.761719 20.382813 5.761719h.003906c1.671875 0 3.328125-.113282 4.953125-.320313zm0 0" fill="#545b67"/><path d="m319.402344 39.527344v467.429687c-17.679688 2.96875-37.890625 5.042969-59.832032 5.042969h-20.632812c-21.941406 0-42.152344-2.074219-59.832031-5.042969v-467.429687zm0 0" fill="#fbd173"/><path d="m189.214844 8.417969h120.082031l-4.734375 49-55.308594-2.417969-55.308594 2.417969zm0 0" fill="#545b67"/><g fill="#606673"><path d="m264.382812 158.160156c0 8.355469-6.773437 15.132813-15.128906 15.132813-8.355468 0-15.128906-6.777344-15.128906-15.132813 0-8.355468 6.773438-15.128906 15.128906-15.128906 8.355469 0 15.128906 6.773438 15.128906 15.128906zm0 0"/><path d="m264.382812 247.910156c0 8.355469-6.773437 15.128906-15.128906 15.128906-8.355468 0-15.128906-6.773437-15.128906-15.128906 0-8.355468 6.773438-15.128906 15.128906-15.128906 8.355469 0 15.128906 6.773438 15.128906 15.128906zm0 0"/><path d="m264.382812 337.660156c0 8.355469-6.773437 15.128906-15.128906 15.128906-8.355468 0-15.128906-6.773437-15.128906-15.128906 0-8.355468 6.773438-15.128906 15.128906-15.128906 8.355469 0 15.128906 6.773438 15.128906 15.128906zm0 0"/><path d="m264.382812 427.410156c0 8.355469-6.773437 15.128906-15.128906 15.128906-8.355468 0-15.128906-6.773437-15.128906-15.128906 0-8.355468 6.773438-15.132812 15.128906-15.132812 8.355469 0 15.128906 6.777344 15.128906 15.132812zm0 0"/></g><path d="m319.402344 60.128906-70.148438-5.128906-70.148437 5.128906v63.875c2.039062 1.300782 4.109375 2.605469 6.246093 3.917969 6.144532 3.769531 13.191407 5.761719 20.382813 5.761719h.003906c16.503907 0 31.265625-10.417969 36.726563-25.921875 1.855468-5.257813 4.253906-9.953125 6.789062-14.035157 2.535156 4.082032 4.933594 8.777344 6.785156 14.035157 5.460938 15.503906 20.222657 25.921875 36.730469 25.921875 7.191407 0 14.238281-1.992188 20.382813-5.761719 2.136718-1.308594 4.207031-2.617187 6.25-3.917969zm0 0" fill="#edc15f"/><path d="m359.636719 39.527344c-2.355469-15.066406-10.726563-26.265625-19.128907-33.988282-9.1875-8.441406-23.644531-7.042968-31.210937 2.875-12.140625 15.910157-33.4375 38.800782-60.042969 46.585938 0 0 21.074219 15.804688 31.078125 44.203125 2.78125 7.890625 12.222657 11.140625 19.355469 6.765625 23.082031-14.160156 63.65625-42.703125 59.949219-66.441406zm0 0" fill="#fed994"/><path d="m189.210938 8.414062c-7.566407-9.914062-22.023438-11.3125-31.210938-2.875-8.402344 7.722657-16.773438 18.921876-19.128906 33.988282-3.707032 23.742187 36.867187 52.285156 59.949218 66.441406 7.128907 4.375 16.574219 1.125 19.355469-6.765625 10.003907-28.394531 31.078125-44.203125 31.078125-44.203125-26.605468-7.785156-47.902344-30.671875-60.042968-46.585938zm0 0" fill="#fed994"/></svg>