<svg height="511pt" viewBox="0 -121 511.99985 511" width="511pt" xmlns="http://www.w3.org/2000/svg"><path d="m.0546875 153.878906s117.4375005 79.441406 211.3867185 109.839844l25.214844-25.214844-106.039062-116.398437h-78.753907zm0 0" fill="#cccacb"/><path d="m511.945312 153.878906s-117.4375 79.441406-211.386718 109.839844l-25.214844-25.214844 106.039062-116.398437h78.753907zm0 0" fill="#cccacb"/><path d="m484.671875 39.6875c14.257813 27.128906 28.308594 66.296875 27.273437 114.191406 0 0-138.851562-31.085937-211.386718 109.839844 0 0-14.507813 6.910156-44.558594 6.910156s-44.558594-6.910156-44.558594-6.910156c-72.535156-140.925781-211.3867185-109.839844-211.3867185-109.839844-1.0351565-47.894531 13.0156245-87.0625 27.2734375-114.191406zm0 0" fill="#efedee"/><g fill="#545b67"><path d="m174.078125 132.011719c-4.269531 0-7.726563-3.460938-7.726563-7.726563v-14.828125c0-4.265625 3.457032-7.726562 7.726563-7.726562 4.265625 0 7.722656 3.460937 7.722656 7.726562v14.828125c0 4.265625-3.457031 7.726563-7.722656 7.726563zm0 0"/><path d="m337.925781 132.011719c-4.269531 0-7.726562-3.460938-7.726562-7.726563v-14.828125c0-4.265625 3.457031-7.726562 7.726562-7.726562 4.265625 0 7.726563 3.460937 7.726563 7.726562v14.828125c0 4.265625-3.460938 7.726563-7.726563 7.726563zm0 0"/><path d="m256 139.925781c-10.109375 0-19.601562-4.222656-26.035156-11.585937-2.808594-3.214844-2.480469-8.097656.730468-10.902344 3.210938-2.808594 8.09375-2.484375 10.902344.730469 3.503906 4.007812 8.753906 6.304687 14.402344 6.304687 5.652344 0 10.902344-2.296875 14.402344-6.304687 2.808594-3.214844 7.691406-3.539063 10.902344-.730469 3.214843 2.804688 3.542968 7.6875.734374 10.902344-6.4375 7.363281-15.929687 11.585937-26.039062 11.585937zm0 0"/></g><path d="m.105469 153.867188c5.671875-1.238282 11.492187-1.832032 17.273437-2.289063 7.929688-.636719 15.90625-.761719 23.847656-.457031-.449218-46.640625 13.324219-84.828125 27.308594-111.433594h-41.207031c-1.785156 3.390625-3.5625 6.96875-5.308594 10.730469-2.183593 4.699219-4.316406 9.6875-6.34375 14.941406-9.796875 25.425781-15.1875 52.496094-15.644531 79.75-.046875 2.921875-.0429688 5.847656.0234375 8.769531 0 0 .015625-.003906.0507815-.011718zm0 0" fill="#dedcdd"/><path d="m463.402344 6.320312c-3.945313-5.097656-10.730469-7.117187-16.8125-4.972656-48.886719 17.207032-116.238282 27.84375-190.589844 27.84375-74.347656 0-141.699219-10.636718-190.585938-27.84375-6.082031-2.144531-12.867187-.125-16.8125 4.972656-5.476562 7.074219-13.402343 18.382813-21.273437 33.367188 63.242187 20.578125 143.308594 31.789062 228.671875 31.789062s165.433594-11.210937 228.675781-31.789062c-7.871093-14.984375-15.800781-26.292969-21.273437-33.367188zm0 0" fill="#fd747f"/><path d="m63.4375 49.96875c1.679688-3.59375 3.386719-7.027344 5.097656-10.28125 7.113282-13.539062 14.265625-24.066406 19.617188-31.195312-1.890625-.527344-3.757813-1.070313-5.605469-1.617188-6.136719-1.820312-12.085937-4.246094-18.28125-5.882812-5.734375-1.511719-12.042969.648437-15.667969 5.328124-3.953125 5.109376-7.644531 10.414063-11.121094 15.859376-3.253906 5.101562-6.707031 10.953124-10.148437 17.507812 11.5 3.742188 23.5625 7.171875 36.109375 10.28125zm0 0" fill="#e36263"/></svg>