<svg height="511pt" viewBox="-76 1 511 511.99948" width="511pt" xmlns="http://www.w3.org/2000/svg"><path d="m118.929688 0h-11.183594c-7.886719 0-15.089844 4.453125-18.644532 11.492188-19.625 38.871093-20.09375 85.238281-20.09375 85.238281l44.027344-18.191407s1.007813-39.101562 13.0625-67.679687c2.175782-5.15625-1.574218-10.859375-7.167968-10.859375zm0 0" fill="#fd89a0"/><path d="m241.535156 0h11.183594c7.882812 0 15.085938 4.453125 18.640625 11.492188 19.628906 38.871093 20.09375 85.238281 20.09375 85.238281l-44.023437-18.191407s-1.007813-39.101562-13.066407-67.679687c-2.171875-5.15625 1.574219-10.859375 7.171875-10.859375zm0 0" fill="#fd89a0"/><path d="m296.878906 235.761719c80.351563-126.867188-58.5-203.691407-116.648437-126.867188-58.148438-76.824219-196.996094 0-116.648438 126.867188zm0 0" fill="#fec6d0"/><path d="m135.390625 79.800781c-62.199219-13.03125-135.179687 55.902344-71.808594 155.960938h30.90625c-52.949219-83.605469-10.707031-145.472657 40.902344-155.960938zm0 0" fill="#fda2b0"/><path d="m296.878906 275.269531s63.082032 99.695313 63.082032 230.261719c-16.03125 8.625-35.320313 8.625-51.351563 0-16.03125-8.621094-35.320313-8.621094-51.351563 0-16.03125 8.625-35.320312 8.625-51.351562 0-16.03125-8.621094-35.320312-8.621094-51.351562 0-16.03125 8.625-35.320313 8.625-51.351563 0-16.03125-8.621094-35.320313-8.621094-51.351563 0-16.03125 8.625-35.320312 8.625-51.351562 0 0-130.566406 63.082031-230.261719 63.082031-230.261719l33.125-39.507812h157.527344zm0 0" fill="#fec6d0"/><path d="m.5 505.53125c9.613281 5.171875 20.390625 7.214844 30.9375 6.1875 1.300781-128.753906 63.050781-236.449219 63.050781-236.449219l33.125-39.507812h-30.902343l-33.128907 39.507812s-63.082031 99.695313-63.082031 230.261719zm0 0" fill="#fda2b0"/><g fill="#fd89a0"><path d="m180.230469 342.867188c-4.265625 0-7.726563-3.457032-7.726563-7.722657v-99.382812c0-4.265625 3.460938-7.726563 7.726563-7.726563 4.269531 0 7.726562 3.460938 7.726562 7.726563v99.382812c0 4.265625-3.457031 7.722657-7.726562 7.722657zm0 0"/><path d="m82.964844 358.726562c-4.265625 0-7.726563-3.457031-7.726563-7.726562 0-52.054688 28.046875-105.988281 29.242188-108.257812 1.988281-3.777344 6.660156-5.226563 10.433593-3.242188 3.777344 1.988281 5.230469 6.65625 3.246094 10.433594-.277344.523437-27.46875 52.886718-27.46875 101.066406 0 4.269531-3.457031 7.726562-7.726562 7.726562zm0 0"/><path d="m277.496094 358.726562c-4.265625 0-7.726563-3.457031-7.726563-7.726562 0-48.28125-27.191406-100.542969-27.464843-101.066406-1.988282-3.777344-.535157-8.449219 3.242187-10.433594 3.773437-1.988281 8.449219-.535156 10.433594 3.242188 1.195312 2.269531 29.242187 56.203124 29.242187 108.257812 0 4.269531-3.457031 7.726562-7.726562 7.726562zm0 0"/></g><path d="m180.230469 213.914062c56.035156 0 116.648437 21.847657 116.648437 21.847657 7.046875 21.144531 0 39.507812 0 39.507812s-60.613281-18.679687-116.648437-18.679687c-56.03125 0-116.648438 18.679687-116.648438 18.679687s-7.046875-18.363281 0-39.507812c0 0 60.617188-21.847657 116.648438-21.847657zm0 0" fill="#81e2e1"/><path d="m93.382812 267.570312s-10.75-18.683593-3.71875-39.816406c-15.886718 4.335938-26.082031 8.007813-26.082031 8.007813-7.046875 21.144531 0 39.507812 0 39.507812zm0 0" fill="#70d4d3"/><path d="m113.03125 170.664062c-4.265625 0-7.726562-3.460937-7.726562-7.726562v-12.164062c0-4.265626 3.460937-7.722657 7.726562-7.722657 4.269531 0 7.726562 3.457031 7.726562 7.722657v12.164062c0 4.265625-3.457031 7.726562-7.726562 7.726562zm0 0" fill="#545b67"/><path d="m247.429688 170.664062c-4.265626 0-7.726563-3.460937-7.726563-7.726562v-12.164062c0-4.265626 3.460937-7.722657 7.726563-7.722657 4.265624 0 7.726562 3.457031 7.726562 7.722657v12.164062c0 4.265625-3.460938 7.726562-7.726562 7.726562zm0 0" fill="#545b67"/><path d="m180.230469 177.15625c-8.691407 0-16.859375-3.640625-22.402344-9.980469-2.808594-3.214843-2.480469-8.09375.730469-10.902343 3.214844-2.808594 8.09375-2.480469 10.902344.730468 2.609374 2.984375 6.535156 4.699219 10.769531 4.699219s8.160156-1.714844 10.769531-4.699219c2.808594-3.214844 7.6875-3.539062 10.902344-.730468 3.214844 2.808593 3.539062 7.6875.730468 10.902343-5.542968 6.339844-13.707031 9.980469-22.402343 9.980469zm0 0" fill="#545b67"/></svg>