<svg height="512pt" viewBox="-155 0 512 512" width="512pt" xmlns="http://www.w3.org/2000/svg"><path d="m164.160156 148.398438-63.328125 6.46875-74.03125 62.847656-8.535156 55.285156 82.566406-11.320312 70.539063-66.574219zm0 0" fill="#fd747f"/><path d="m178.5625 241.660156-77.730469 20.019532-91.089843 66.570312v.011719l-8.535157 55.230469 99.625-18.820313 84.890625-76.621094zm0 0" fill="#fd747f"/><path d="m192.859375 334.289062-92.027344 30.382813-89.15625 65.882813c2.027344 2.648437 4.308594 5.113281 6.8125 7.355468l27.550781 28.433594 77.8125-20.160156 76.117188-65.816406zm0 0" fill="#fd747f"/><g fill="#fbd173"><path d="m183.1875 437.910156-65.40625 67.511719c-9.820312 8.769531-24.078125 8.769531-33.898438 0l-37.84375-39.078125c46.351563-22.019531 99.882813-50.566406 153.929688-85.976562l.664062 4.253906c3.765626 19.851562-2.933593 40.324218-17.445312 53.289062zm0 0"/><path d="m192.859375 334.289062c-65.914063 42.105469-130.363281 73.980469-181.183594 96.265626-9.714843-12.671876-13.757812-29.515626-10.640625-45.933594l.171875-1.128906c49.996094-21.234376 116.074219-52.808594 184.515625-95.441407zm0 0"/><path d="m178.5625 241.660156c-62.402344 37.917969-122.207031 66.605469-168.820312 86.589844l8.523437-55.253906c43.070313-18.636719 96.742187-44.464844 153.105469-77.890625zm0 0"/><path d="m164.160156 148.398438c-50.300781 29.117187-98.015625 52.125-137.359375 69.316406l18.695313-121.074219h110.667968zm0 0"/></g><path d="m156.164062 96.640625h-110.664062l-7.476562 48.40625 34.726562 16.976563c8.695312 4.246093 18.40625 6.492187 28.082031 6.492187s19.386719-2.246094 28.082031-6.492187l34.726563-16.976563zm0 0" fill="#edc15f"/><path d="m190.042969 67.449219-12.894531-45.277344c-3.738282-13.121094-15.726563-22.171875-29.371094-22.171875h-93.890625c-13.644531 0-25.632813 9.050781-29.371094 22.171875l-12.894531 45.277344c-4.382813 15.390625 2.890625 31.707031 17.265625 38.734375l57.433593 28.074218c9.15625 4.472657 19.863282 4.472657 29.019532 0l57.433594-28.074218c14.375-7.027344 21.652343-23.34375 17.269531-38.734375zm0 0" fill="#fd747f"/><path d="m51.265625 59.273438c-4.269531 0-7.726563-3.460938-7.726563-7.726563v-8.972656c0-4.265625 3.457032-7.726563 7.726563-7.726563 4.265625 0 7.726563 3.460938 7.726563 7.726563v8.972656c0 4.265625-3.460938 7.726563-7.726563 7.726563zm0 0" fill="#545b67"/><path d="m150.398438 59.273438c-4.265626 0-7.726563-3.460938-7.726563-7.726563v-8.972656c0-4.265625 3.460937-7.726563 7.726563-7.726563 4.269531 0 7.726562 3.460938 7.726562 7.726563v8.972656c0 4.265625-3.457031 7.726563-7.726562 7.726563zm0 0" fill="#545b67"/><path d="m100.832031 64.0625c-6.996093 0-13.578125-2.9375-18.050781-8.054688-2.808594-3.210937-2.480469-8.09375.730469-10.902343 3.210937-2.808594 8.09375-2.480469 10.902343.730469 1.542969 1.761718 3.878907 2.769531 6.417969 2.769531 2.539063 0 4.875-1.007813 6.414063-2.769531 2.8125-3.214844 7.691406-3.539063 10.90625-.730469 3.210937 2.808593 3.539062 7.6875.730468 10.902343-4.472656 5.117188-11.050781 8.054688-18.050781 8.054688zm0 0" fill="#545b67"/></svg>