<svg height="511pt" viewBox="0 -8 511.999 511" width="511pt" xmlns="http://www.w3.org/2000/svg"><path d="m289.402344 62.78125c-10.269532 3.394531-21.554688 5.261719-33.402344 5.261719s-23.132812-1.867188-33.402344-5.261719l-37.230468 216.617188 37.230468 216.144531c10.59375.300781 21.734375.46875 33.402344.46875s22.808594-.167969 33.402344-.46875l48.363281-216.382813zm0 0" fill="#fda2b0"/><path d="m414.734375 483.789062c-24.707031 4.417969-66.804687 10.117188-125.332031 11.753907v-432.761719c26.074218-8.609375 45.679687-26.980469 51.472656-49.332031 2.105469-8.128907 9.632812-13.640625 17.992188-12.878907 16.796874 1.535157 45.148437 5.699219 78.183593 16.949219l-5.21875 201.804688c-15.425781 71.355469 4.082031 154.445312 8.195313 232.679687.8125 15.441406-10.0625 29.074219-25.292969 31.785156zm0 0" fill="#fbd173"/><path d="m222.597656 62.78125v432.761719c-58.527344-1.636719-100.625-7.335938-125.332031-11.753907-15.230469-2.710937-26.105469-16.34375-25.292969-31.78125 4.113282-78.238281 23.621094-161.324218 8.195313-232.679687l-5.21875-201.804687c33.035156-11.253907 61.386719-15.417969 78.179687-16.953126 8.363282-.761718 15.890625 4.75 17.996094 12.882813 5.792969 22.347656 25.398438 40.71875 51.472656 49.328125zm0 0" fill="#fbd173"/><g fill="#fda2b0"><path d="m80.167969 219.332031c-50.800781-8.351562-34.097657-27.488281-34.097657-46.277343 0-18.789063-30.96875-21.921876-30.96875-43.492188 0-21.574219 4.871094-21.921875 4.871094-35.492188 0-13.570312-21.917968-17.746093-19.832031-45.578124 2.085937-27.835938 74.808594-30.96875 74.808594-30.96875s37.351562 126.71875 5.21875 201.808593zm0 0"/><path d="m431.832031 219.332031c50.800781-8.351562 34.097657-27.488281 34.097657-46.277343 0-18.789063 30.96875-21.921876 30.96875-43.492188 0-21.574219-4.871094-21.921875-4.871094-35.492188 0-13.570312 21.917968-17.746093 19.832031-45.578124-2.085937-27.835938-74.808594-30.96875-74.808594-30.96875s-37.351562 126.71875-5.21875 201.808593zm0 0"/></g></svg>