<svg height="512pt" viewBox="-68 0 512 512.00021" width="512pt" xmlns="http://www.w3.org/2000/svg"><path d="m295.191406 4.5c14.167969 2.691406 30.289063 6.71875 43.910156 12.632812 20.4375 8.867188 30.542969 32.039063 23.3125 53.109376-11.546874 33.636718-35.675781 94.835937-63.570312 112.632812l-110.949219 17.039062-110.945312-17.039062c-27.894531-17.796875-52.023438-78.996094-63.570313-112.632812-7.230468-21.070313 2.875-44.242188 23.3125-53.109376 13.621094-5.914062 29.742188-9.941406 43.910156-12.632812l26.699219 15.160156 21.582031 32.710938 59.011719 19.894531 54.292969-16.859375 26.640625-33.722656zm0 0" fill="#fec6d0"/><path d="m107.851562 182.875c-27.894531-17.796875-52.019531-79-63.566406-112.632812-6.648437-19.378907 1.375-50.105469 18.601563-61.816407-8.992188 2.304688-18.042969 5.164063-26.195313 8.707031-20.4375 8.867188-30.542968 32.039063-23.3125 53.109376 11.546875 33.636718 35.675782 94.835937 63.570313 112.632812l110.945312 17.039062 15.453125-2.375zm0 0" fill="#fda2b0"/><path d="m76.949219 216.957031s-66.046875 84.25-76.769531 213.285157c-1.863282 22.421874 10.96875 43.480468 31.683593 52.25 31.382813 13.289062 84.363281 29.507812 156.03125 29.507812 71.671875 0 124.652344-16.21875 156.035157-29.507812 20.714843-8.769532 33.546874-29.832032 31.683593-52.25-10.722656-129.035157-76.769531-213.285157-76.769531-213.285157l-110.949219-17.042969zm0 0" fill="#fec6d0"/><path d="m107.855469 216.957031 95.492187-14.671875-15.453125-2.371094-110.945312 17.042969s-66.046875 84.25-76.769531 213.285157c-1.492188 17.9375 6.433593 34.996093 20.265624 45.597656 12.464844-162.730469 87.410157-258.882813 87.410157-258.882813zm0 0" fill="#fda2b0"/><path d="m76.949219 182.871094h221.894531v34.085937h-221.894531zm0 0" fill="#fd89a0"/><path d="m264.28125.03125c-2.808594-.28125-5.398438 1.421875-6.367188 4.074219-10.441406 28.554687-37.847656 48.933593-70.019531 48.933593-32.167969 0-59.574219-20.378906-70.015625-48.933593-.96875-2.652344-3.558594-4.355469-6.367187-4.074219-6.207031.617188-17.707031 1.960938-30.910157 4.46875l1.828126 5.089844c6.566406 22.316406 20.425781 42.386718 39.019531 56.511718 19.253906 14.617188 42.230469 22.347657 66.445312 22.347657 24.21875 0 47.195313-7.730469 66.449219-22.347657 18.59375-14.125 32.453125-34.195312 39.019531-56.511718l1.828125-5.089844c-13.203125-2.507812-24.703125-3.851562-30.910156-4.46875zm0 0" fill="#fda2b0"/><path d="m134.253906 76.308594v44.359375s-28.917968 49.015625-35.554687 105.183593c-1.5 12.6875 5.914062 24.746094 17.917969 29.109376l24.273437 8.828124c5.871094 2.132813 12.109375-2.101562 12.289063-8.34375 2.738281-94.628906 34.714843-179.136718 34.714843-179.136718zm0 0" fill="#75b8db"/><path d="m241.539062 76.308594v44.359375s28.917969 49.015625 35.554688 105.183593c1.5 12.6875-5.914062 24.746094-17.917969 29.109376l-24.273437 8.828124c-5.871094 2.132813-12.109375-2.101562-12.289063-8.34375-2.738281-94.628906-34.71875-179.136718-34.71875-179.136718zm0 0" fill="#75b8db"/><path d="m167.996094 88.449219c-21.953125 28.585937-44.542969 42.285156-58.707032 48.601562-8.617187 3.839844-18.726562-.507812-21.773437-9.4375-2.285156-6.699219-3.835937-18.632812-2.214844-30.835937 2.050781-15.457032 13.882813-27.8125 29.246094-30.476563 10.355469-1.792969 25.242187-3.351562 45.71875-3.351562zm0 0" fill="#96ccec"/><path d="m207.796875 88.449219c21.953125 28.585937 44.542969 42.285156 58.707031 48.601562 8.617188 3.839844 18.726563-.507812 21.773438-9.4375 2.285156-6.699219 3.835937-18.632812 2.214844-30.835937-2.050782-15.457032-13.882813-27.8125-29.246094-30.476563-10.355469-1.792969-25.242188-3.351562-45.71875-3.351562zm0 0" fill="#96ccec"/><path d="m193.640625 47.167969h-11.488281c-12.742188 0-23.070313 10.328125-23.070313 23.070312 0 12.742188 10.328125 23.070313 23.070313 23.070313h11.488281c12.742187 0 23.070313-10.328125 23.070313-23.070313 0-12.742187-10.328126-23.070312-23.070313-23.070312zm0 0" fill="#fd89a0"/><g fill="#545b67"><path d="m111.453125 346.351562c-4.265625 0-7.722656-3.460937-7.722656-7.726562v-13.835938c0-4.265624 3.457031-7.726562 7.722656-7.726562 4.269531 0 7.726563 3.460938 7.726563 7.726562v13.835938c0 4.265625-3.457032 7.726562-7.726563 7.726562zm0 0"/><path d="m264.339844 346.351562c-4.269532 0-7.726563-3.460937-7.726563-7.726562v-13.835938c0-4.265624 3.457031-7.726562 7.726563-7.726562 4.265625 0 7.722656 3.460938 7.722656 7.726562v13.835938c0 4.265625-3.457031 7.726562-7.722656 7.726562zm0 0"/><path d="m187.894531 353.734375c-9.582031 0-18.578125-4.003906-24.683593-10.988281-2.808594-3.210938-2.480469-8.09375.734374-10.902344 3.210938-2.808594 8.09375-2.480469 10.902344.734375 3.167969 3.625 7.925782 5.703125 13.046875 5.703125 5.125 0 9.882813-2.078125 13.050781-5.703125 2.808594-3.214844 7.691407-3.542969 10.902344-.734375 3.210938 2.8125 3.539063 7.691406.730469 10.902344-6.101563 6.984375-15.097656 10.988281-24.683594 10.988281zm0 0"/></g></svg>