<svg height="512pt" viewBox="0 -89 512 511" width="512pt" xmlns="http://www.w3.org/2000/svg"><path d="m400.410156 144.910156c0-79.757812-64.65625-144.410156-144.410156-144.410156s-144.410156 64.652344-144.410156 144.410156v52.511719l144.410156 33.324219 144.410156-33.324219-16.941406-26.257813zm0 0" fill="#fbd173"/><path d="m142.496094 197.421875v-52.511719c0-74.535156 56.46875-135.875 128.957031-143.585937-5.078125-.539063-10.230469-.824219-15.453125-.824219-79.753906 0-144.410156 64.652344-144.410156 144.410156v52.511719l144.410156 33.324219 15.453125-3.566406zm0 0" fill="#edc15f"/><path d="m73 212.792969c-12.144531-7.9375-20.488281-19.441407-20.488281-36.074219 0-61.097656 33.324219-72.203125 73.453125-28.769531l12.386718 23.214843-26.761718 26.257813-16.15625 21.207031zm0 0" fill="#e36263"/><path d="m186.710938 144.910156v52.511719l106.847656 18.179687 106.851562-18.179687v-52.511719zm0 0" fill="#fd747f"/><path d="m203.699219 212.792969c12.144531-7.9375 20.492187-19.441407 20.492187-36.074219 0-61.097656-33.328125-72.203125-73.457031-28.769531l-12.382813 23.214843 26.761719 26.257813 16.15625 21.207031zm0 0" fill="#e36263"/><path d="m138.351562 144.910156c-14.78125 0-26.761718 11.980469-26.761718 26.761719v25.75h53.523437v-25.75c0-14.78125-11.980469-26.761719-26.761719-26.761719zm0 0" fill="#fd747f"/><g fill="#545b67"><path d="m185.371094 90.714844c-4.269532 0-7.726563-3.460938-7.726563-7.726563v-12.78125c0-4.269531 3.457031-7.726562 7.726563-7.726562 4.265625 0 7.726562 3.457031 7.726562 7.726562v12.78125c0 4.269531-3.460937 7.726563-7.726562 7.726563zm0 0"/><path d="m326.628906 90.714844c-4.265625 0-7.726562-3.460938-7.726562-7.726563v-12.78125c0-4.269531 3.460937-7.726562 7.726562-7.726562 4.269532 0 7.726563 3.457031 7.726563 7.726562v12.78125c0 4.269531-3.457031 7.726563-7.726563 7.726563zm0 0"/><path d="m256 97.539062c-9.023438 0-17.496094-3.773437-23.25-10.355468-2.808594-3.210938-2.480469-8.09375.734375-10.902344 3.210937-2.808594 8.09375-2.480469 10.898437.734375 2.820313 3.222656 7.054688 5.070313 11.617188 5.070313s8.796875-1.847657 11.613281-5.070313c2.808594-3.214844 7.691407-3.542969 10.902344-.734375 3.214844 2.808594 3.542969 7.691406.734375 10.902344-5.753906 6.582031-14.226562 10.355468-23.25 10.355468zm0 0"/></g><path d="m400.410156 197.421875 111.589844 44.433594s-78.265625 91.898437-256 91.898437-256-91.898437-256-91.898437l111.589844-44.433594zm0 0" fill="#fbd173"/><path d="m111.589844 197.421875-111.589844 44.433594s10.257812 12.039062 31.769531 27.402343l125.777344-71.835937zm0 0" fill="#edc15f"/></svg>