<svg height="512pt" viewBox="0 -11 512 512" width="512pt" xmlns="http://www.w3.org/2000/svg"><path d="m57.230469 179.445312h-45.121094l-12.109375 28.472657 70.097656 36.574219 19.839844-26.65625zm0 0" fill="#96ccec"/><path d="m454.769531 179.445312h45.121094l12.109375 28.472657-70.097656 36.574219-19.839844-26.65625zm0 0" fill="#96ccec"/><path d="m184.890625 0h142.21875l-12.523437 36.910156-58.585938-3.238281-59.257812 3.238281zm0 0" fill="#66a9cc"/><path d="m463.003906 106.441406c-7.039062-16.558594-20.003906-29.898437-36.347656-37.425781l-62.234375-28.65625-108.421875-6.6875-108.421875 6.6875-62.234375 28.65625c-16.34375 7.527344-29.308594 20.867187-36.347656 37.425781l-36.886719 73.003906 77.828125 38.390626 22.824219-27.1875.449219 299.6875h47.175781l18.785156-8.464844 18.789063 8.464844h116.078124l18.789063-8.464844 18.785156 8.464844h47.175781l.449219-299.6875 22.824219 27.1875 77.828125-38.390626zm0 0" fill="#efedee"/><path d="m314.039062 40.359375h37.574219v449.976563h-37.574219zm0 0" fill="#606673"/><path d="m160.386719 40.359375h37.574219v449.976563h-37.574219zm0 0" fill="#606673"/><path d="m221.296875 69.707031c7.808594-30.304687 34.703125-36.035156 34.703125-36.035156l-71.109375-33.671875s-26.863281 1.078125-36.320313 33.203125c-3.472656 11.785156 2.359376 24.320313 13.617188 29.242187l38.933594 17.019532c8.296875 3.628906 17.917968-.992188 20.175781-9.757813zm0 0" fill="#96ccec"/><path d="m290.703125 69.707031c-7.808594-30.304687-34.703125-36.035156-34.703125-36.035156l71.109375-33.671875s26.863281 1.078125 36.320313 33.203125c3.472656 11.785156-2.359376 24.320313-13.617188 29.242187l-38.933594 17.019532c-8.296875 3.628906-17.917968-.992188-20.175781-9.757813zm0 0" fill="#96ccec"/><path d="m351.613281 147.980469h-37.574219c-8.6875 0-15.730468 7.042969-15.730468 15.730469s7.042968 15.730468 15.730468 15.730468h37.574219c8.6875 0 15.730469-7.042968 15.730469-15.730468s-7.039062-15.730469-15.730469-15.730469zm0 0" fill="#cccacb"/><path d="m314.039062 429.929688c1.921876-.285157 3.886719-.433594 5.886719-.433594h25.800781c2 0 3.964844.148437 5.886719.433594v53.25c-5.84375 2.222656-12.171875 3.449218-18.785156 3.449218-.488281 0-.984375-.003906-1.472656-.019531-6.011719-.164063-11.84375-1.34375-17.316407-3.441406zm0 0" fill="#545b67"/><path d="m345.726562 393.4375h-25.800781c-7.921875 0-14.347656 6.425781-14.347656 14.347656v25.273438c0 14.851562 11.640625 27.402344 26.484375 27.808594 15.398438.421874 28.011719-11.9375 28.011719-27.238282v-25.839844c0-7.925781-6.421875-14.351562-14.347657-14.351562zm0 0" fill="#cccacb"/><path d="m160.386719 147.980469h37.574219c8.6875 0 15.730468 7.042969 15.730468 15.730469s-7.042968 15.730468-15.730468 15.730468h-37.574219c-8.6875 0-15.730469-7.042968-15.730469-15.730468s7.039062-15.730469 15.730469-15.730469zm0 0" fill="#cccacb"/><path d="m197.960938 429.929688c-1.921876-.285157-3.886719-.433594-5.886719-.433594h-25.800781c-2 0-3.964844.148437-5.886719.433594v53.25c5.84375 2.222656 12.171875 3.449218 18.785156 3.449218.488281 0 .984375-.003906 1.472656-.019531 6.011719-.164063 11.84375-1.34375 17.316407-3.441406zm0 0" fill="#545b67"/><path d="m166.273438 393.4375h25.800781c7.921875 0 14.347656 6.425781 14.347656 14.347656v25.273438c0 14.851562-11.640625 27.402344-26.484375 27.808594-15.398438.421874-28.011719-11.9375-28.011719-27.238282v-25.839844c0-7.925781 6.421875-14.351562 14.347657-14.351562zm0 0" fill="#cccacb"/><g fill="#606673"><path d="m267.515625 163.703125c0 6.363281-5.15625 11.519531-11.515625 11.519531s-11.515625-5.15625-11.515625-11.519531c0-6.359375 5.15625-11.515625 11.515625-11.515625s11.515625 5.15625 11.515625 11.515625zm0 0"/><path d="m267.515625 234.332031c0 6.359375-5.15625 11.519531-11.515625 11.519531s-11.515625-5.160156-11.515625-11.519531 5.15625-11.515625 11.515625-11.515625 11.515625 5.15625 11.515625 11.515625zm0 0"/><path d="m267.515625 93.074219c0 6.363281-5.15625 11.519531-11.515625 11.519531s-11.515625-5.15625-11.515625-11.519531c0-6.359375 5.15625-11.515625 11.515625-11.515625s11.515625 5.15625 11.515625 11.515625zm0 0"/><path d="m267.515625 304.960938c0 6.359374-5.15625 11.515624-11.515625 11.515624s-11.515625-5.15625-11.515625-11.515624c0-6.363282 5.15625-11.519532 11.515625-11.519532s11.515625 5.15625 11.515625 11.519532zm0 0"/><path d="m267.515625 375.589844c0 6.359375-5.15625 11.515625-11.515625 11.515625s-11.515625-5.15625-11.515625-11.515625c0-6.363282 5.15625-11.519532 11.515625-11.519532s11.515625 5.15625 11.515625 11.519532zm0 0"/></g><path d="m160.386719 179.445312h37.574219v30.0625h-37.574219zm0 0" fill="#545b67"/><path d="m314.039062 179.445312h37.574219v30.0625h-37.574219zm0 0" fill="#545b67"/></svg>