<svg height="511pt" viewBox="0 -40 511.99977 511" width="511pt" xmlns="http://www.w3.org/2000/svg"><path d="m378.671875 92.101562c-.089844-81.8125 55.847656-69.851562 87.40625-90.660156 3.425781-2.257812 8.046875-.238281 8.832031 3.789063 5.132813 26.210937 12.15625 99.820312-69.773437 103.03125zm0 0" fill="#e36263"/><path d="m395.792969 105.25c-.933594 0-1.882813-.171875-2.804688-.53125-3.96875-1.550781-5.933593-6.011719-4.394531-9.980469.539062-1.386719 13.570312-34.179687 48.550781-53.210937 3.75-2.039063 8.441407-.65625 10.480469 3.09375 2.039062 3.746094.652344 8.4375-3.09375 10.476562-29.847656 16.242188-41.425781 44.957032-41.539062 45.242188-1.195313 3.042968-4.113282 4.910156-7.199219 4.910156zm0 0" fill="#fd747f"/><path d="m407.738281 115.503906c80.921875-12.035156 77.621094 47.054688 102.816407 75.238282 2.734374 3.058593 1.410156 7.921874-2.457032 9.289062-25.183594 8.902344-96.980468 26.597656-112.117187-53.980469zm0 0" fill="#e36263"/><path d="m460.507812 180.34375c-2.347656 0-4.664062-1.066406-6.183593-3.085938-20.421875-27.15625-50.519531-34.414062-50.820313-34.484374-4.148437-.964844-6.742187-5.109376-5.789062-9.257813.953125-4.152344 5.082031-6.75 9.230468-5.808594 1.449219.328125 35.792969 8.433594 59.730469 40.261719 2.566407 3.410156 1.878907 8.253906-1.53125 10.820312-1.390625 1.046876-3.019531 1.554688-4.636719 1.554688zm0 0" fill="#fd747f"/><path d="m359.320312 111.207031c-33.558593 10.058594-90.320312 22.734375-163.277343 22.734375-72.960938 0-129.722657-12.675781-163.28125-22.734375-17.296875-5.183593-34.355469 8.78125-32.644531 26.757813 6.304687 66.242187 36.277343 202.101562 172.527343 287.230468 14.308594 8.9375 32.488281 8.9375 46.796875 0 136.25-85.128906 166.21875-220.988281 172.523438-287.230468 1.710937-17.976563-15.34375-31.941406-32.644532-26.757813zm0 0" fill="#fd747f"/><path d="m208.699219 425.195312c-136.25-85.128906-166.21875-220.988281-172.523438-287.230468-.902343-9.492188 3.425781-17.859375 10.261719-22.886719-4.914062-1.3125-9.476562-2.613281-13.675781-3.871094-17.296875-5.183593-34.355469 8.78125-32.644531 26.757813 6.304687 66.242187 36.277343 202.101562 172.527343 287.230468 12.570313 7.855469 28.128907 8.800782 41.425781 2.855469-1.835937-.824219-3.632812-1.769531-5.371093-2.855469zm0 0" fill="#e36263"/><g fill="#545b67"><path d="m118.441406 252.980469c-4.265625 0-7.726562-3.460938-7.726562-7.726563v-14.042968c0-4.265626 3.460937-7.726563 7.726562-7.726563 4.269532 0 7.726563 3.460937 7.726563 7.726563v14.042968c0 4.265625-3.457031 7.726563-7.726563 7.726563zm0 0"/><path d="m273.640625 252.980469c-4.265625 0-7.726563-3.460938-7.726563-7.726563v-14.042968c0-4.265626 3.460938-7.726563 7.726563-7.726563s7.726563 3.460937 7.726563 7.726563v14.042968c0 4.265625-3.460938 7.726563-7.726563 7.726563zm0 0"/><path d="m196.042969 260.476562c-9.695313 0-18.796875-4.050781-24.972657-11.117187-2.804687-3.210937-2.476562-8.09375.734376-10.902344 3.210937-2.804687 8.09375-2.480469 10.902343.734375 3.238281 3.707032 8.101563 5.832032 13.335938 5.832032s10.09375-2.125 13.335937-5.832032c2.808594-3.214844 7.6875-3.539062 10.902344-.730468 3.210938 2.808593 3.539062 7.6875.730469 10.902343-6.175781 7.0625-15.277344 11.113281-24.96875 11.113281zm0 0"/></g><path d="m359.320312 111.207031c-11.246093 3.371094-25.109374 7.035157-41.300781 10.417969 0 .074219-.007812.152344-.007812.226562 0 33.449219 27.210937 60.660157 60.660156 60.660157 2.238281 0 4.449219-.132813 6.628906-.371094 3.433594-16.664063 5.472657-31.664063 6.664063-44.171875 1.710937-17.980469-15.34375-31.945312-32.644532-26.761719zm0 0" fill="#e36263"/><path d="m408.425781 121.851562c0 16.433594-13.320312 29.753907-29.753906 29.753907-16.429687 0-29.753906-13.320313-29.753906-29.753907 0-16.429687 13.324219-29.75 29.753906-29.75 16.433594 0 29.753906 13.320313 29.753906 29.75zm0 0" fill="#fd89a0"/></svg>