<svg height="512pt" viewBox="0 -113 512.00166 512" width="512pt" xmlns="http://www.w3.org/2000/svg"><path d="m278.832031.789062c-3.355469-1.273437-7.125-1.003906-10.222656.808594-19.191406 11.234375-27.296875 41.652344-27.296875 41.652344 0 34.28125 34.195312 26.726562 34.476562 4.195312.144532-11.414062 4.664063-21.820312 9.09375-29.308593 3.792969-6.421875.925782-14.703125-6.050781-17.347657zm0 0" fill="#fd747f"/><path d="m447.984375 213.761719v62.425781s-64.390625 6.640625-198.667969 6.640625c-80.066406 0-135.285156-2.121094-166.820312-3.835937-17.859375-.96875-31.84375-15.71875-31.84375-33.605469v-31.628907l23.394531-23.394531h346.347656zm0 0" fill="#fd747f"/><path d="m82.496094 278.992188c10.164062.554687 22.804687 1.148437 37.925781 1.699218-16.261719-2.703125-28.5625-18.53125-28.5625-35.304687v-31.628907l23.394531-23.394531h-41.207031l-23.394531 23.394531v31.628907c0 17.886719 13.984375 32.636719 31.84375 33.605469zm0 0" fill="#e36263"/><path d="m241.3125 43.25c11.367188 2.289062 22.894531 3.703125 34.476562 4.195312 182.863282 7.753907 225.855469 143.953126 235.46875 193.597657 3.292969 17.007812-4.554687 34.507812-19.804687 42.71875-15.355469 8.269531-33.046875 1.007812-72.050781-24.800781-55.734375-36.882813-122.371094-39.980469-186.996094-35.007813-61.148438 4.703125-133.023438 23.714844-188.296875-14.382813-48.863281-33.683593-63.609375-108.285156-10.730469-145.539062 57.679688-40.640625 140.582032-34.339844 207.933594-20.78125zm0 0" fill="#fd89a0"/><g fill="#545b67"><path d="m155.820312 149.714844c-4.265624 0-7.726562-3.457032-7.726562-7.726563v-16.921875c0-4.265625 3.460938-7.726562 7.726562-7.726562 4.265626 0 7.726563 3.460937 7.726563 7.726562v16.921875c0 4.269531-3.460937 7.726563-7.726563 7.726563zm0 0"/><path d="m342.8125 149.714844c-4.265625 0-7.726562-3.457032-7.726562-7.726563v-16.921875c0-4.265625 3.460937-7.726562 7.726562-7.726562s7.726562 3.460937 7.726562 7.726562v16.921875c0 4.269531-3.460937 7.726563-7.726562 7.726563zm0 0"/><path d="m249.316406 158.75c-11.222656 0-21.753906-4.6875-28.894531-12.851562-2.808594-3.214844-2.480469-8.097657.734375-10.902344 3.210938-2.808594 8.09375-2.484375 10.902344.730468 4.203125 4.808594 10.492187 7.570313 17.257812 7.570313s13.054688-2.761719 17.257813-7.570313c2.8125-3.214843 7.691406-3.539062 10.902343-.730468 3.214844 2.804687 3.542969 7.6875.734376 10.902344-7.140626 8.164062-17.671876 12.851562-28.894532 12.851562zm0 0"/></g><path d="m108.722656 35.730469c-27.296875 4.003906-53.183594 12.683593-75.347656 28.300781-52.875 37.253906-38.128906 111.855469 10.730469 145.535156 14.890625 10.265625 30.984375 16.378906 47.75 19.75-.277344-.246094-108.484375-96.285156 16.867187-193.585937zm0 0" fill="#fd747f"/></svg>