<svg height="512pt" viewBox="0 -22 512 512" width="512pt" xmlns="http://www.w3.org/2000/svg"><path d="m424.609375 215.398438h-46.074219v-46.789063c0-67.566406-54.96875-122.535156-122.535156-122.535156s-122.535156 54.96875-122.535156 122.535156v46.789063h-46.074219v-46.789063c0-92.972656 75.636719-168.609375 168.609375-168.609375s168.609375 75.636719 168.609375 168.609375zm0 0" fill="#fda2b0"/><path d="m424.609375 193.285156s87.390625 79.164063 87.390625 195.339844c0 57.574219-37.011719 79.164062-87.390625 79.164062h-337.21875c-50.378906 0-87.390625-21.589843-87.390625-79.164062 0-116.175781 87.390625-195.339844 87.390625-195.339844l168.609375 85.332032zm0 0" fill="#fda2b0"/><g fill="#fd89a0"><path d="m424.609375 193.285156-168.609375 85.332032-168.609375-85.332032s-17.078125 15.476563-36.132813 42.769532l-8.601562 73.386718c-2.710938 21.574219 3.964844 43.304688 18.335938 59.636719 14.417968 16.382813 35.195312 25.777344 57.015624 25.777344h275.984376c21.820312 0 42.601562-9.394531 57.015624-25.777344 14.371094-16.332031 21.050782-38.058594 18.335938-59.636719l-8.601562-73.386718c-19.054688-27.292969-36.132813-42.769532-36.132813-42.769532zm0 0"/><path d="m133.464844 168.609375c0-2.089844.054687-4.164063.15625-6.230469h-46.105469c-.074219 2.070313-.125 4.144532-.125 6.230469v46.789063h46.074219zm0 0"/><path d="m378.535156 168.609375v46.789063h46.074219v-46.789063c0-2.085937-.050781-4.160156-.125-6.230469h-46.105469c.101563 2.066406.15625 4.140625.15625 6.230469zm0 0"/></g><path d="m393.992188 363.953125h-275.984376c-27.144531 0-48.125-23.84375-44.671874-50.769531l14.054687-119.898438h337.21875l14.054687 119.898438c3.457032 26.925781-17.527343 50.769531-44.671874 50.769531zm0 0" fill="#fec6d0"/><path d="m160.324219 272.320312c-4.269531 0-7.726563-3.457031-7.726563-7.722656v-17.316406c0-4.269531 3.457032-7.726562 7.726563-7.726562 4.265625 0 7.726562 3.457031 7.726562 7.726562v17.316406c0 4.265625-3.460937 7.722656-7.726562 7.722656zm0 0" fill="#545b67"/><path d="m351.675781 272.320312c-4.265625 0-7.726562-3.457031-7.726562-7.722656v-17.316406c0-4.269531 3.460937-7.726562 7.726562-7.726562 4.269531 0 7.726563 3.457031 7.726563 7.726562v17.316406c0 4.265625-3.457032 7.722656-7.726563 7.722656zm0 0" fill="#545b67"/><path d="m256 281.566406c-11.433594 0-22.160156-4.773437-29.429688-13.09375-2.808593-3.210937-2.480468-8.089844.730469-10.902344 3.214844-2.804687 8.09375-2.476562 10.902344.734376 4.335937 4.960937 10.824219 7.804687 17.796875 7.804687s13.460938-2.84375 17.796875-7.804687c2.808594-3.214844 7.691406-3.539063 10.902344-.734376 3.210937 2.808594 3.542969 7.691407.730469 10.902344-7.269532 8.324219-17.996094 13.09375-29.429688 13.09375zm0 0" fill="#545b67"/><path d="m274.90625 315.972656h-37.8125c-7.539062 0-13.652344 6.113282-13.652344 13.652344v68.65625c0 7.535156 6.113282 13.648438 13.652344 13.648438h37.8125c7.539062 0 13.652344-6.113282 13.652344-13.648438v-68.65625c0-7.539062-6.113282-13.652344-13.652344-13.652344zm0 0" fill="#fd747f"/><path d="m267.125 363.953125c0-10.882813-4.980469-19.707031-11.125-19.707031s-11.125 8.824218-11.125 19.707031 4.980469 19.703125 11.125 19.703125 11.125-8.820312 11.125-19.703125zm0 0" fill="#fbd173"/></svg>