<svg height="511pt" viewBox="0 -115 511.99995 511" width="511pt" xmlns="http://www.w3.org/2000/svg"><path d="m208.566406 8c-57.472656 0-119.496094 25.359375-141.675781 35.335938-5.9375 2.671874-11.039063 6.871093-14.863281 12.136718-43.417969 59.777344-45.65625 155.082032-44.242188 197.273438.398438 11.871094 10.121094 21.292968 22 21.292968h90.101563l144.105469-259.519531c-17.957032-3.886719-36.921876-6.519531-55.425782-6.519531zm0 0" fill="#75b8db"/><path d="m47.785156 252.746094c-1.414062-42.191406.824219-137.496094 44.242188-197.273438 3.828125-5.265625 8.929687-9.464844 14.863281-12.132812 19.621094-8.828125 70.417969-29.6875 121.664063-34.382813-6.675782-.613281-13.363282-.953125-19.988282-.953125-57.472656 0-119.496094 25.355469-141.675781 35.335938-5.9375 2.667968-11.039063 6.867187-14.863281 12.132812-43.417969 59.777344-45.65625 155.082032-44.242188 197.273438.398438 11.875 10.121094 21.292968 22 21.292968h40c-11.878906 0-21.601562-9.417968-22-21.292968zm0 0" fill="#66a9cc"/><path d="m409.628906 233.058594c-.164062-36.570313-4.1875-91.433594-23.191406-138.359375-11.871094-29.320313-35.5625-52.226563-65.222656-63.214844-16.003906-5.925781-35.902344-12.335937-57.222656-16.964844-21.578126 4.683594-41.695313 11.191407-57.792969 17.179688-28.824219 10.71875-52.140625 32.8125-63.925781 61.21875-32.6875 78.792969-22.386719 181.121093-22.386719 181.121093h46.355469zm0 0" fill="#efedee"/><path d="m504.5 274.039062s-6.042969-40.980468-37.621094-40.980468h-263.015625c-31.574219 0-37.621093 40.980468-37.621093 40.980468zm0 0" fill="#fd747f"/><path d="m243.863281 233.058594h-40c-31.574219 0-37.621093 40.980468-37.621093 40.980468h40s6.046874-40.980468 37.621093-40.980468zm0 0" fill="#e36263"/><path d="m200.722656 148.699219v-14.632813c0-4.144531-3.359375-7.5-7.5-7.5-4.144531 0-7.5 3.355469-7.5 7.5v14.632813c0 4.140625 3.355469 7.5 7.5 7.5 4.140625 0 7.5-3.359375 7.5-7.5zm0 0"/><path d="m362.414062 148.699219v-14.632813c0-4.144531-3.355468-7.5-7.5-7.5-4.140624 0-7.5 3.355469-7.5 7.5v14.632813c0 4.140625 3.359376 7.5 7.5 7.5 4.144532 0 7.5-3.359375 7.5-7.5zm0 0"/><path d="m274.070312 164.007812c9.941407 0 19.269532-4.152343 25.601563-11.390624 2.722656-3.121094 2.40625-7.855469-.710937-10.582032-3.121094-2.726562-7.859376-2.410156-10.585938.710938-3.480469 3.980468-8.691406 6.261718-14.304688 6.261718-5.613281 0-10.828124-2.28125-14.308593-6.261718-2.726563-3.121094-7.464844-3.4375-10.582031-.710938-3.121094 2.726563-3.4375 7.464844-.710938 10.582032 6.328125 7.238281 15.660156 11.390624 25.601562 11.390624zm0 0"/><path d="m29.785156 281.539062h474.714844c4.511719 0 8.078125-4.132812 7.421875-8.59375-.070313-.472656-1.769531-11.660156-7.769531-22.921874-8.527344-16.003907-21.417969-24.464844-37.273438-24.464844h-49.835937c-.6875-37.609375-5.570313-89.011719-23.65625-133.675782-12.609375-31.148437-37.96875-55.726562-69.570313-67.429687-20.003906-7.410156-39.59375-13.21875-58.238281-17.261719-20.496094-4.441406-39.675781-6.691406-57.011719-6.691406-58.429687 0-120.695312 25.175781-144.753906 35.996094-7.0625 3.179687-13.238281 8.214844-17.851562 14.566406-24.242188 33.371094-39.097657 80.734375-44.160157 140.777344-.347656 4.125 2.714844 7.753906 6.84375 8.101562 4.070313.332032 7.757813-2.757812 8.101563-6.84375 4.761718-56.464844 19.0625-102.53125 41.351562-133.21875 3.078125-4.238281 7.183594-7.59375 11.871094-9.703125 69.570312-31.296875 120.101562-34.675781 138.597656-34.675781 6.132813 0 12.527344.304688 19.152344.90625-8.117188 2.53125-16.164062 5.296875-24.132812 8.261719-30.894532 11.488281-55.765626 35.316406-68.238282 65.375-4.292968 10.347656-8.09375 21.691406-11.300781 33.707031-1.066406 4.003906 1.3125 8.113281 5.316406 9.179688 4 1.066406 8.109375-1.3125 9.179688-5.3125 3.035156-11.378907 6.621093-22.085938 10.660156-31.824219 10.910156-26.292969 32.972656-47.160157 59.609375-57.066407 17.984375-6.6875 36.464844-12.363281 55.207031-16.519531 17.46875 3.875 35.824219 9.359375 54.585938 16.3125 27.65625 10.242188 49.847656 31.746094 60.878906 58.992188 17.195313 42.464843 21.878906 91.785156 22.558594 128.046875 0 0-198.101563 0-198.179688 0-23.15625 0-38.441406 20.371094-43.730469 40.980468h-33.300781c-.601562-9.21875-1.410156-27.15625-.636719-49.394531 0-.019531.003907-.039062.003907-.0625.964843-20.382812 2.59375-40.753906 6.097656-60.875.714844-4.082031-2.019531-7.964843-6.097656-8.679687-4.082031-.710938-7.96875 2.023437-8.679688 6.101562-6.464843 37.109375-8.183593 75.328125-5.742187 112.910156h-81.992188c-7.871094 0-14.238281-6.167968-14.503906-14.042968-.328125-9.78125-.371094-19.820313-.125-29.84375.101562-4.140625-3.171875-7.582032-7.3125-7.683594-4.125-.09375-7.582031 3.175781-7.683594 7.316406-.2499998 10.3125-.207031 20.644532.128906 30.710938.539063 16.007812 13.492188 28.542968 29.496094 28.542968zm171.59375-40.851562c.140625-.015625.285156-.027344.425782-.039062.671874-.054688 265.074218-.089844 265.074218-.089844 16.972656 0 24.789063 15.722656 28.082032 25.980468h-319.128907c3.167969-9.722656 10.421875-24.390624 25.546875-25.851562zm0 0"/></svg>