<svg height="512pt" viewBox="-29 0 512 512" width="512pt" xmlns="http://www.w3.org/2000/svg"><path d="m363.773438 121.023438-8.136719 153.136718 27.792969 71.371094 31.226562 22.644531 25.390625-22.644531s0-81.664062 0-148.230469c0-66.570312-76.273437-76.277343-76.273437-76.277343zm0 0" fill="#b1785d"/><path d="m90.15625 121.023438 8.132812 153.136718-27.792968 71.371094-31.222656 22.644531-25.394532-22.644531s0-81.664062 0-148.230469c0-66.570312 76.277344-76.277343 76.277344-76.277343zm0 0" fill="#c58d6f"/><path d="m440.046875 345.53125h-56.617187l-27.792969 31.566406 27.792969 36.714844h56.617187c7.667969 0 13.882813-6.214844 13.882813-13.878906v-40.523438c0-7.664062-6.214844-13.878906-13.882813-13.878906zm0 0" fill="#fedaad"/><path d="m13.878906 345.53125h56.617188l27.792968 31.566406-27.792968 36.714844h-56.617188c-7.664062 0-13.878906-6.214844-13.878906-13.878906v-40.523438c0-7.664062 6.214844-13.878906 13.878906-13.878906zm0 0" fill="#fedaad"/><path d="m350.984375 112.957031h-136.238281l-75.28125 129.085938 128.191406 200.59375 57.101562 34.679687 58.671876-34.679687s0-257.347657 0-286.167969c0-28.824219-32.445313-43.511719-32.445313-43.511719zm0 0" fill="#c58d6f"/><path d="m139.464844 242.042969 128.191406 200.59375 30.90625 18.769531v-153.371094c0-33.71875-15.832031-64.582031-42.269531-84.121094l-10.503907-110.957031h-31.042968zm0 0" fill="#b1785d"/><path d="m226.964844 242.039062-12.21875-129.085937h-111.800782s-32.449218 14.691406-32.449218 43.511719v286.171875l98.582031 34.679687 98.578125-34.679687v-134.601563c0-27.917968-15.738281-53.457031-40.691406-65.996094zm0 0" fill="#dfae96"/><path d="m207.976562 234.128906c-2.5-1.046875-25.097656-10.675781-48.160156-27.5-25.941406-18.929687-56.867187-50.546875-56.867187-93.671875 0-35.613281 14.492187-66.460937 40.804687-86.851562 22.035156-17.078125 50.808594-26.105469 83.210938-26.105469s61.175781 9.027344 83.210937 26.105469c26.3125 20.390625 40.804688 51.238281 40.804688 86.851562 0 43.125-30.925781 74.742188-56.871094 93.671875-23.0625 16.828125-45.660156 26.457032-48.160156 27.5l-18.984375 7.917969zm0 0" fill="#fedaad"/><path d="m226.964844 56.617188c-41.125 0-79.007813 20.585937-79.007813 70 0 34.464843 38.441407 60.914062 61.695313 73.761718 10.78125 5.957032 23.84375 5.957032 34.625 0 23.253906-12.847656 61.691406-39.296875 61.691406-73.761718 0-49.414063-37.878906-70-79.003906-70zm0 0" fill="#c58d6f"/><path d="m228.679688 303.328125c0 8.148437-6.605469 14.753906-14.753907 14.753906-8.148437 0-14.753906-6.605469-14.753906-14.753906s6.605469-14.757813 14.753906-14.757813c8.148438 0 14.753907 6.609376 14.753907 14.757813zm0 0" fill="#b1785d"/><path d="m228.679688 382.929688c0 8.148437-6.605469 14.753906-14.753907 14.753906-8.148437 0-14.753906-6.605469-14.753906-14.753906 0-8.148438 6.605469-14.753907 14.753906-14.753907 8.148438 0 14.753907 6.605469 14.753907 14.753907zm0 0" fill="#b1785d"/><path d="m383.429688 442.636719h-312.933594c-8.976563 0-16.253906 7.277343-16.253906 16.253906v36.855469c0 8.976562 7.277343 16.253906 16.253906 16.253906h312.933594c8.980468 0 16.253906-7.277344 16.253906-16.253906v-36.855469c0-8.976563-7.273438-16.253906-16.253906-16.253906zm0 0" fill="#fedaad"/></svg>