<svg height="511pt" viewBox="0 -27 511.99991 511" width="511pt" xmlns="http://www.w3.org/2000/svg"><path d="m256 375.296875-143.128906 16.140625v22.582031c0 10.402344 8.433594 18.835938 18.835937 18.835938h248.585938c10.402343 0 18.835937-8.433594 18.835937-18.835938v-22.582031zm0 0" fill="#96ccec"/><path d="m445.550781 369.683594-42.011719 12.480468-16.886718 51.238282 74.992187 24.71875 16.898438-51.238282zm0 0" fill="#75b8db"/><path d="m66.449219 369.683594 42.011719 12.480468 16.886718 51.238282-74.992187 24.71875-16.898438-51.238282zm0 0" fill="#75b8db"/><path d="m505.105469 326.289062-26.5625 80.59375-75.003907-24.71875 28.679688-86.984374c3.800781-11.515626 2.558594-24.097657-3.421875-34.648438l-79.898437-141.117188 68.707031-38.902343 76.589843 135.253906c19.058594 33.660156 23.015626 73.792969 10.910157 110.523437zm0 0" fill="#96ccec"/><path d="m6.894531 326.289062 26.5625 80.59375 75.003907-24.71875-28.679688-86.984374c-3.800781-11.515626-2.558594-24.097657 3.421875-34.648438l79.898437-141.117188-68.707031-38.902343-76.59375 135.253906c-19.054687 33.660156-23.011719 73.792969-10.90625 110.523437zm0 0" fill="#96ccec"/><path d="m399.128906 210.355469v181.082031h-286.257812v-181.082031c23.222656-78.601563-18.476563-129.839844-18.476563-129.839844l58.019531-45.292969h207.171876l58.019531 45.292969c0-.003906-41.703125 51.238281-18.476563 129.839844zm0 0" fill="#75b8db"/><path d="m263.726562 391.4375s.621094-334.851562.617188-334.976562h-15.417969c-.003906.125-.652343 334.976562-.652343 334.976562zm0 0" fill="#b4dbf3"/><path d="m197.703125 120.800781c7.5 5.457031 16.335937 8.339844 25.554687 8.339844 12.945313 0 24.703126-5.648437 32.742188-14.792969 8.039062 9.144532 19.792969 14.792969 32.738281 14.792969h.003907c9.21875 0 18.054687-2.882813 25.554687-8.339844l52.382813-38.09375c9.460937-6.878906 16.246093-16.070312 20.117187-26.242187l-27.210937-21.242188h-207.171876l-27.210937 21.242188c3.871094 10.171875 10.65625 19.363281 20.117187 26.242187zm0 0" fill="#66a9cc"/><path d="m248.800781 120.878906c2.628907-1.902344 5.050781-4.089844 7.199219-6.53125 2.425781 2.757813 5.191406 5.191406 8.226562 7.253906.070313-38.359374.117188-65.105468.117188-65.140624h-15.417969c0 .035156-.050781 26.445312-.125 64.417968zm0 0" fill="#75b8db"/><path d="m322.300781 383.269531c-4.265625 0-7.726562-3.460937-7.726562-7.726562v-14.421875c0-4.269532 3.460937-7.726563 7.726562-7.726563s7.726563 3.457031 7.726563 7.726563v14.421875c0 4.265625-3.460938 7.726562-7.726563 7.726562zm0-40.175781c-4.265625 0-7.726562-3.460938-7.726562-7.726562v-14.425782c0-4.265625 3.460937-7.726562 7.726562-7.726562s7.726563 3.460937 7.726563 7.726562v14.425782c0 4.265624-3.460938 7.726562-7.726563 7.726562zm0-40.179688c-4.265625 0-7.726562-3.457031-7.726562-7.726562v-14.421875c0-4.265625 3.460937-7.726563 7.726562-7.726563s7.726563 3.460938 7.726563 7.726563v14.421875c0 4.269531-3.460938 7.726562-7.726563 7.726562zm0-40.175781c-4.265625 0-7.726562-3.460937-7.726562-7.726562v-14.421875c0-4.269532 3.460937-7.726563 7.726562-7.726563s7.726563 3.457031 7.726563 7.726563v14.421875c0 4.265625-3.460938 7.726562-7.726563 7.726562zm0 0" fill="#b4dbf3"/><path d="m189.699219 383.269531c-4.265625 0-7.726563-3.460937-7.726563-7.726562v-14.421875c0-4.269532 3.460938-7.726563 7.726563-7.726563s7.726562 3.457031 7.726562 7.726563v14.421875c0 4.265625-3.460937 7.726562-7.726562 7.726562zm0-40.175781c-4.265625 0-7.726563-3.460938-7.726563-7.726562v-14.425782c0-4.265625 3.460938-7.726562 7.726563-7.726562s7.726562 3.460937 7.726562 7.726562v14.425782c0 4.265624-3.460937 7.726562-7.726562 7.726562zm0-40.179688c-4.265625 0-7.726563-3.457031-7.726563-7.726562v-14.421875c0-4.265625 3.460938-7.726563 7.726563-7.726563s7.726562 3.460938 7.726562 7.726563v14.421875c0 4.269531-3.460937 7.726562-7.726562 7.726562zm0-40.175781c-4.265625 0-7.726563-3.460937-7.726563-7.726562v-14.421875c0-4.269532 3.460938-7.726563 7.726563-7.726563s7.726562 3.457031 7.726562 7.726563v14.421875c0 4.265625-3.460937 7.726562-7.726562 7.726562zm0 0" fill="#b4dbf3"/><path d="m355.773438 207.113281c0 18.488281-14.984376 33.476563-33.472657 33.476563s-33.472656-14.988282-33.472656-33.476563v-45.820312l33.472656 10.5625 33.472657-10.5625zm0 0" fill="#96ccec"/><path d="m288.828125 148.945312v12.347657c0 18.488281 14.984375 33.476562 33.472656 33.476562 18.484375 0 33.472657-14.988281 33.472657-33.476562v-12.347657zm0 0" fill="#b4dbf3"/><path d="m328.644531 171.855469c0 3.503906-2.839843 6.34375-6.34375 6.34375-3.503906 0-6.34375-2.839844-6.34375-6.34375 0-3.503907 2.839844-6.34375 6.34375-6.34375 3.503907 0 6.34375 2.839843 6.34375 6.34375zm0 0" fill="#606673"/><path d="m156.226562 207.113281c0 18.488281 14.984376 33.476563 33.472657 33.476563s33.472656-14.988282 33.472656-33.476563v-45.820312l-33.472656 10.5625-33.472657-10.5625zm0 0" fill="#96ccec"/><path d="m223.171875 148.945312v12.347657c0 18.488281-14.984375 33.476562-33.472656 33.476562-18.484375 0-33.472657-14.988281-33.472657-33.476562v-12.347657zm0 0" fill="#b4dbf3"/><g fill="#606673"><path d="m196.042969 171.855469c0 3.503906-2.839844 6.34375-6.34375 6.34375-3.503907 0-6.34375-2.839844-6.34375-6.34375 0-3.503907 2.839843-6.34375 6.34375-6.34375 3.503906 0 6.34375 2.839843 6.34375 6.34375zm0 0"/><path d="m452.875 427.894531c0 4.046875-3.28125 7.328125-7.324219 7.328125-4.046875 0-7.328125-3.28125-7.328125-7.328125s3.28125-7.324219 7.328125-7.324219c4.042969 0 7.324219 3.277344 7.324219 7.324219zm0 0"/><path d="m73.777344 427.894531c0 4.046875-3.28125 7.328125-7.328125 7.328125-4.042969 0-7.324219-3.28125-7.324219-7.328125s3.28125-7.324219 7.324219-7.324219c4.046875 0 7.328125 3.277344 7.328125 7.324219zm0 0"/></g><path d="m168.96875.5h174.0625l-35.230469 48.867188-51.800781 7.28125-51.800781-7.28125zm0 0" fill="#75b8db"/><path d="m355.859375 22.234375-12.828125-21.734375-87.03125 56.148438s16.386719 8.824218 20.226562 31.023437c1.601563 9.253906 12.300782 13.660156 19.894532 8.136719l52.382812-38.09375c11.226563-8.167969 14.410156-23.527344 7.355469-35.480469zm0 0" fill="#96ccec"/><path d="m156.140625 22.234375 12.828125-21.734375 87.03125 56.148438s-16.386719 8.824218-20.226562 31.023437c-1.601563 9.253906-12.300782 13.660156-19.894532 8.136719l-52.382812-38.09375c-11.226563-8.167969-14.410156-23.527344-7.355469-35.480469zm0 0" fill="#96ccec"/><path d="m225.03125 68.886719c0 4.046875-3.28125 7.328125-7.328125 7.328125-4.042969 0-7.324219-3.28125-7.324219-7.328125 0-4.042969 3.28125-7.324219 7.324219-7.324219 4.046875 0 7.328125 3.28125 7.328125 7.324219zm0 0" fill="#606673"/><path d="m301.621094 68.886719c0 4.046875-3.28125 7.328125-7.324219 7.328125-4.046875 0-7.328125-3.28125-7.328125-7.328125 0-4.042969 3.28125-7.324219 7.328125-7.324219 4.042969 0 7.324219 3.28125 7.324219 7.324219zm0 0" fill="#606673"/></svg>