<svg height="511pt" viewBox="0 -6 511.99959 511" width="511pt" xmlns="http://www.w3.org/2000/svg"><g fill="#81e2e1"><path d="m50.730469 410.476562-43.824219 10.882813-6.355469 32.835937c-2.5625 10.960938 4.03125 21.976563 14.902344 24.910157l29.714844 8.027343c10.949219 2.957032 22.253906-3.367187 25.480469-14.234374l7.355468-31.671876zm0 0"/><path d="m461.269531 410.476562 43.824219 10.882813 6.355469 32.835937c2.558593 10.960938-4.03125 21.976563-14.902344 24.910157l-29.714844 8.027343c-10.953125 2.957032-22.253906-3.367187-25.480469-14.234374l-7.355468-31.671876zm0 0"/><path d="m256 429.933594-127.285156 5.238281c2.078125 14.695313 4.753906 28.765625 8.160156 41.589844 1.769531 6.652343 7.058594 11.789062 13.796875 13.257812 15.859375 3.460938 49.820313 8.96875 105.328125 8.96875s89.46875-5.507812 105.328125-8.96875c6.738281-1.46875 12.027344-6.605469 13.792969-13.257812 3.410156-12.824219 6.089844-26.894531 8.164062-41.589844zm0 0"/></g><path d="m433.996094 441.226562-46.773438-201.230468s8.367188 108.375-3.9375 195.175781c-24.488281 5.117187-66.042968 11.027344-127.285156 11.027344-61.238281 0-102.796875-5.910157-127.285156-11.027344-12.304688-86.800781-3.933594-195.175781-3.933594-195.175781l-46.777344 201.230468s-44.378906-2.304687-71.097656-19.867187l51.558594-266.203125c8.535156-44.070312 36.554687-81.9375 76.261718-102.859375.496094-.261719.765626-.394531.765626-.394531h241.015624s.265626.132812.761719.394531c39.707031 20.921875 67.730469 58.789063 76.265625 102.859375l51.558594 266.203125c-26.71875 17.566406-71.097656 19.867187-71.097656 19.867187zm0 0" fill="#a3f0f1"/><path d="m377.273438 52.296875c-.496094-.257813-.765626-.394531-.765626-.394531h-90.960937c-6.128906 11.535156-17.597656 24.960937-29.503906 36.429687-3.058594-2.925781-6.292969-6.160156-9.519531-9.621093-10.464844-11.25-16.503907-20.148438-19.988282-26.808594h-91.042968s-.269532.136718-.765626.394531c-10.195312 5.371094-19.613281 11.867187-28.132812 19.292969 5.132812 21.902344 19.683594 42.425781 41.640625 58.074218 9.726563 6.933594 20.605469 12.722657 32.460937 17.316407 22.078126 8.570312 47.542969 13.011719 75.308594 13.011719 27.753906 0 53.226563-4.441407 75.304688-13.011719 11.859375-4.59375 22.726562-10.382813 32.453125-17.316407 21.964843-15.648437 36.511719-36.171874 41.644531-58.078124-8.523438-7.421876-17.941406-13.917969-28.132812-19.289063zm0 0" fill="#81e2e1"/><path d="m352.457031 369.921875c-12.570312-20.636719-18.996093-45.75-22.140625-62.714844-2.082031-11.21875-11.867187-19.34375-23.273437-19.34375h-102.085938c-11.40625 0-21.195312 8.125-23.273437 19.34375-3.144532 16.964844-9.574219 42.078125-22.144532 62.714844-3.488281 5.726563-.480468 13.191406 6.011719 14.871094 17.738281 4.59375 51.132813 11.5625 90.449219 11.5625s72.710938-6.96875 90.445312-11.5625c6.496094-1.679688 9.5-9.140625 6.011719-14.871094zm0 0" fill="#81e2e1"/><path d="m206.324219 350.203125c-4.265625 0-7.726563-3.460937-7.726563-7.726563v-8.992187c0-4.265625 3.460938-7.722656 7.726563-7.722656s7.726562 3.457031 7.726562 7.722656v8.992187c0 4.265626-3.460937 7.726563-7.726562 7.726563zm0 0" fill="#545b67"/><path d="m305.675781 350.203125c-4.269531 0-7.726562-3.460937-7.726562-7.726563v-8.992187c0-4.265625 3.457031-7.722656 7.726562-7.722656 4.265625 0 7.726563 3.457031 7.726563 7.722656v8.992187c0 4.265626-3.460938 7.726563-7.726563 7.726563zm0 0" fill="#545b67"/><path d="m256 355c-7.007812 0-13.597656-2.9375-18.078125-8.066406-2.808594-3.210938-2.480469-8.09375.734375-10.902344 3.210938-2.804688 8.09375-2.480469 10.902344.734375 1.542968 1.769531 3.890625 2.785156 6.441406 2.785156 2.546875 0 4.898438-1.015625 6.445312-2.785156 2.804688-3.214844 7.6875-3.539063 10.902344-.734375 3.210938 2.808594 3.539063 7.691406.730469 10.902344-4.480469 5.128906-11.070313 8.066406-18.078125 8.066406zm0 0" fill="#545b67"/><path d="m206.75 5.789062c12.503906-3.261718 29.949219-5.289062 49.25-5.289062s36.746094 2.027344 49.25 5.289062l27.210938 13.949219 13.429687 42.363281-23.761719 30.996094-27.898437 20.664063-38.230469 15.328125-44.429688-21.011719-37.195312-28.414063-8.785156-30.996093 13.949218-26.863281zm0 0" fill="#81e2e1"/><path d="m256 129.089844s103.667969-77.835938 49.25-123.300782c112.96875 0 88.171875 123.300782-49.25 123.300782zm0 0" fill="#bffafe"/><path d="m256 129.089844s-103.667969-77.835938-49.25-123.300782c-112.96875 0-88.171875 123.300782 49.25 123.300782zm0 0" fill="#bffafe"/><path d="m175.914062 220.15625c-9.417968.066406-15.726562-10.191406-11.570312-18.601562 8.867188-17.960938 10.027344-32.851563 11.148438-47.25 1.300781-16.726563 2.648437-34.019532 16.734374-50.722657 4.597657-5.449219 12.746094-6.140625 18.199219-1.542969 5.453125 4.597657 6.144531 12.746094 1.546875 18.199219-8.722656 10.339844-9.5625 21.132813-10.726562 36.070313-1.1875 15.261718-2.667969 34.253906-13.742188 56.679687-2.214844 4.492188-6.835937 7.132813-11.589844 7.167969zm0 0" fill="#fff"/><path d="m336.085938 220.15625c9.417968.066406 15.726562-10.191406 11.570312-18.601562-8.867188-17.960938-10.027344-32.851563-11.148438-47.25-1.300781-16.726563-2.648437-34.019532-16.734374-50.722657-4.597657-5.449219-12.746094-6.140625-18.199219-1.542969-5.453125 4.597657-6.144531 12.746094-1.546875 18.199219 8.722656 10.339844 9.5625 21.132813 10.726562 36.070313 1.1875 15.261718 2.667969 34.253906 13.742188 56.679687 2.214844 4.492188 6.835937 7.132813 11.589844 7.167969zm0 0" fill="#fff"/></svg>