<svg height="512pt" viewBox="0 -22 512.0002 512" width="512pt" xmlns="http://www.w3.org/2000/svg"><path d="m364.019531 159.503906c65.910157 0 128.207031 169.414063 146.800781 224.769532 3.371094 10.035156-.679687 21.066406-9.734374 26.550781l-34.0625 20.628906c-9.261719 5.609375-21.195313 3.875-28.476563-4.132813l-45.160156-49.679687h-38.925781zm0 0" fill="#edc15f"/><path d="m147.980469 159.503906c-65.910157 0-128.207031 169.414063-146.800781 224.769532-3.371094 10.035156.679687 21.066406 9.734374 26.550781l34.0625 20.628906c9.261719 5.609375 21.195313 3.875 28.476563-4.132813l45.160156-49.679687h38.925781zm0 0" fill="#edc15f"/><path d="m364.019531 159.503906-10.828125-3.933594h-194.386718l-10.824219 3.933594c-21.082031 7.65625-34.625 28.253906-33.296875 50.640625l5.257812 224.089844c.4375 18.660156 15.691406 33.558594 34.355469 33.558594h203.40625c18.664063 0 33.917969-14.898438 34.355469-33.558594l5.257812-224.089844c1.328125-22.386719-12.21875-42.984375-33.296875-50.640625zm0 0" fill="#fbd173"/><path d="m295.566406 328.226562v32.695313l35.738282 27.210937 35.738281-27.210937v-32.695313zm0 0" fill="#fed994"/><path d="m216.433594 328.226562v32.695313l-35.738282 27.210937-35.738281-27.210937v-32.695313zm0 0" fill="#fed994"/><g fill="#545b67"><path d="m268.25 255.066406c0 6.765625-5.484375 12.25-12.25 12.25s-12.25-5.484375-12.25-12.25 5.484375-12.25 12.25-12.25 12.25 5.484375 12.25 12.25zm0 0"/><path d="m268.25 312.53125c0 6.769531-5.484375 12.253906-12.25 12.253906s-12.25-5.484375-12.25-12.253906c0-6.765625 5.484375-12.25 12.25-12.25s12.25 5.484375 12.25 12.25zm0 0"/><path d="m268.25 370c0 6.765625-5.484375 12.25-12.25 12.25s-12.25-5.484375-12.25-12.25 5.484375-12.25 12.25-12.25 12.25 5.484375 12.25 12.25zm0 0"/><path d="m268.25 427.464844c0 6.765625-5.484375 12.25-12.25 12.25s-12.25-5.484375-12.25-12.25 5.484375-12.25 12.25-12.25 12.25 5.484375 12.25 12.25zm0 0"/></g><path d="m366.96875 65.878906c-35.382812-69.171875-110.96875-65.8515622-110.96875-65.8515622s-75.585938-3.3203128-110.96875 65.8515622c-11.492188 22.464844-11.039062 49.246094 1.359375 71.222656 11.132813 19.742188 31.476563 44.21875 68.601563 66.171876 25.28125 14.953124 56.734374 14.953124 82.015624 0 37.125-21.953126 57.46875-46.429688 68.601563-66.171876 12.398437-21.976562 12.851563-48.757812 1.359375-71.222656zm0 0" fill="#edc15f"/><path d="m339.820312 94.019531c-1.113281-7.0625-7.285156-12.21875-14.433593-12.21875h-138.769531c-7.148438 0-13.324219 5.15625-14.4375 12.21875-1.390626 8.820313.171874 17.9375 4.667968 25.90625 14.105469 25.007813 38.207032 42.761719 55.945313 53.25 7.015625 4.152344 15.042969 6.34375 23.207031 6.34375 8.167969 0 16.191406-2.191406 23.210938-6.34375 32.132812-19.003906 48.160156-39.449219 55.945312-53.25 4.492188-7.96875 6.054688-17.085937 4.664062-25.90625zm0 0" fill="#545b67"/><path d="m208.519531 60.152344c-4.265625 0-7.726562-3.457032-7.726562-7.726563v-8.59375c0-4.265625 3.460937-7.726562 7.726562-7.726562s7.726563 3.460937 7.726563 7.726562v8.59375c0 4.269531-3.460938 7.726563-7.726563 7.726563zm0 0" fill="#545b67"/><path d="m303.480469 60.152344c-4.265625 0-7.726563-3.457032-7.726563-7.726563v-8.59375c0-4.265625 3.460938-7.726562 7.726563-7.726562 4.269531 0 7.726562 3.460937 7.726562 7.726562v8.59375c0 4.269531-3.457031 7.726563-7.726562 7.726563zm0 0" fill="#545b67"/><path d="m256 64.738281c-6.796875 0-13.1875-2.851562-17.535156-7.824219-2.808594-3.214843-2.480469-8.09375.730468-10.902343 3.214844-2.808594 8.09375-2.480469 10.902344.730469 1.414063 1.617187 3.566406 2.542968 5.902344 2.542968 2.339844 0 4.488281-.925781 5.902344-2.542968 2.808594-3.210938 7.691406-3.539063 10.902344-.730469 3.214843 2.808593 3.542968 7.6875.734374 10.902343-4.351562 4.972657-10.742187 7.824219-17.539062 7.824219zm0 0" fill="#545b67"/><path d="m367.042969 360.921875v33.855469c0 11.355468-9.210938 20.566406-20.578125 20.566406h-30.328125c-11.355469 0-20.566407-9.210938-20.566407-20.566406v-33.855469zm0 0" fill="#edc15f"/><path d="m144.957031 360.921875v33.855469c0 11.355468 9.210938 20.566406 20.578125 20.566406h30.328125c11.355469 0 20.566407-9.210938 20.566407-20.566406v-33.855469zm0 0" fill="#edc15f"/></svg>