<svg height="512pt" viewBox="0 -28 512.00011 512" width="512pt" xmlns="http://www.w3.org/2000/svg"><path d="m256 117.007812-133.722656 48.234376-64.007813 151.390624c-3.261719 7.722657-12.058593 11.46875-19.894531 8.472657l-28.367188-10.84375c-7.484374-2.863281-11.574218-10.945313-9.449218-18.667969l63.492187-230.816406c5.964844-21.667969 22.960938-38.554688 44.667969-44.375l76.054688-20.402344c11.714843 27.761719 39.191406 47.242188 71.226562 47.242188s59.511719-19.480469 71.226562-47.242188l76.054688 20.402344c21.707031 5.820312 38.707031 22.707031 44.667969 44.375l63.492187 230.816406c2.125 7.722656-1.964844 15.804688-9.449218 18.667969l-28.367188 10.84375c-7.835938 2.996093-16.632812-.75-19.894531-8.472657l-64.007813-151.390624zm0 0" fill="#75b8db"/><path d="m389.722656 165.242188-9.355468 269.226562c-.425782 12.300781-10.519532 22.050781-22.820313 22.050781h-203.09375c-12.300781 0-22.394531-9.75-22.820313-22.050781l-9.355468-269.226562 68.703125-100.585938c18.265625 13.96875 40.953125 21.980469 65.019531 21.980469s46.746094-8 65.019531-21.980469zm0 0" fill="#dedcdd"/><g fill="#545b67"><path d="m191.648438 167.132812c-4.269532 0-7.726563-3.460937-7.726563-7.726562v-11.644531c0-4.269531 3.457031-7.726563 7.726563-7.726563 4.265624 0 7.726562 3.457032 7.726562 7.726563v11.644531c0 4.265625-3.460938 7.726562-7.726562 7.726562zm0 0"/><path d="m320.351562 167.132812c-4.265624 0-7.726562-3.460937-7.726562-7.726562v-11.644531c0-4.269531 3.460938-7.726563 7.726562-7.726563 4.269532 0 7.726563 3.457032 7.726563 7.726563v11.644531c0 4.265625-3.457031 7.726562-7.726563 7.726562zm0 0"/><path d="m256 173.347656c-8.417969 0-16.328125-3.523437-21.699219-9.667968-2.808593-3.210938-2.480469-8.09375.730469-10.902344 3.214844-2.804688 8.09375-2.480469 10.902344.734375 2.4375 2.785156 6.105468 4.382812 10.066406 4.382812s7.628906-1.597656 10.066406-4.382812c2.808594-3.214844 7.6875-3.539063 10.902344-.734375 3.210938 2.808594 3.539062 7.691406.730469 10.902344-5.367188 6.144531-13.277344 9.667968-21.699219 9.667968zm0 0"/></g></svg>