<svg height="512pt" viewBox="0 -35 512.00046 512" width="512pt" xmlns="http://www.w3.org/2000/svg"><path d="m66.894531 134.027344-52.320312-7.074219-12.507813 17.398437c-3.613281 5.03125-2.359375 12.046876 2.773438 15.511719l59.074218 39.878907c4.164063 2.804687 9.695313 2.4375 13.441407-.894532l18.871093-16.773437zm0 0" fill="#fd89a0"/><path d="m445.105469 134.027344 52.320312-7.074219 12.507813 17.398437c3.617187 5.03125 2.359375 12.042969-2.773438 15.507813l-59.074218 39.882813c-4.164063 2.804687-9.695313 2.4375-13.441407-.894532l-18.871093-16.773437zm0 0" fill="#fd89a0"/><path d="m22.238281 171.605469 17.058594-24.046875 11.308594-15.730469-36.03125-4.875s-12.5 17.386719-12.507813 17.398437c-3.511718 4.882813-2.210937 12.148438 2.773438 15.511719zm0 0" fill="#f27991"/><path d="m415.773438 182.074219-17.238282-15.324219.144532 261.402344c.554687 7.683594-5.535157 14.234375-13.246094 14.234375h-258.867188c-7.714844 0-13.800781-6.550781-13.246094-14.234375l.140626-261.402344-17.234376 15.324219-81.652343-55.121094 55.75-77.5625c7.804687-10.855469 18.765625-19.039063 31.386719-23.429687l56.011718-19.511719 26.066406 19.179687 32.09375 34.925782 40.117188 8.496093 37.3125-3.300781 35.371094-40.121094 25.589844-19.179687 56.015624 19.511719c12.621094 4.390624 23.578126 12.574218 31.386719 23.429687l55.75 77.5625zm0 0" fill="#7eda9a"/><path d="m14.574219 126.953125 26.617187 17.96875 53.855469-74.929687c7.808594-10.851563 18.765625-19.039063 31.386719-23.425782l56.015625-19.511718.003906.003906 2.28125-.398438-.945313-1.027344-26.0625-19.183593-28.007812 9.753906-28.007812 9.757813c-9.464844 3.292968-17.996094 8.71875-24.964844 15.804687-.578125.589844-1.148438 1.195313-1.707032 1.808594-1.675781 1.839843-3.25 3.78125-4.714843 5.816406zm0 0" fill="#61c87c"/><path d="m354.273438 6.453125c-8.136719 46.90625-49.039063 82.578125-98.273438 82.578125s-90.136719-35.671875-98.273438-82.578125l37.203126-6.453125c5.152343 29.710938 30.835937 51.273438 61.070312 51.273438s55.917969-21.5625 61.070312-51.273438zm0 0" fill="#fd89a0"/><path d="m166.199219 32.710938s16.25-5.65625 16.253906-5.65625c0 0 21.652344-3.753907 21.652344-3.757813-1.664063-2.542969-3.148438-5.222656-4.433594-8.023437-2.210937-4.8125-3.832031-10.015626-4.742187-15.273438l-37.203126 6.453125c1.605469 9.257813 4.503907 18.066406 8.472657 26.257813zm0 0" fill="#f27991"/><g fill="#545b67"><path d="m185.617188 190.128906c-4.265626 0-7.726563-3.457031-7.726563-7.726562v-12.738282c0-4.265624 3.460937-7.726562 7.726563-7.726562 4.265624 0 7.726562 3.460938 7.726562 7.726562v12.738282c0 4.269531-3.460938 7.726562-7.726562 7.726562zm0 0"/><path d="m326.382812 190.128906c-4.269531 0-7.726562-3.457031-7.726562-7.726562v-12.738282c0-4.265624 3.457031-7.726562 7.726562-7.726562 4.265626 0 7.726563 3.460938 7.726563 7.726562v12.738282c0 4.269531-3.460937 7.726562-7.726563 7.726562zm0 0"/><path d="m256 196.929688c-9 0-17.453125-3.765626-23.1875-10.328126-2.808594-3.210937-2.480469-8.09375.730469-10.902343 3.214843-2.808594 8.09375-2.480469 10.902343.734375 2.804688 3.203125 7.015626 5.042968 11.554688 5.042968s8.753906-1.839843 11.554688-5.042968c2.808593-3.214844 7.6875-3.542969 10.902343-.734375 3.210938 2.808593 3.539063 7.691406.730469 10.902343-5.738281 6.5625-14.1875 10.328126-23.1875 10.328126zm0 0"/></g></svg>