<svg height="511pt" viewBox="0 -67 511.99947 511" width="511pt" xmlns="http://www.w3.org/2000/svg"><g fill="#75b8db"><path d="m483.03125 180.34375c5.710938 32.003906 9.199219 69.507812 6.335938 108.992188l-88.125 44.429687-98.054688-14.910156s-20.253906-35.042969-29.003906-63.480469l-18.179688-94.0625 31.390625-79.839844 33-40.492187h74.375l59.882813 40.492187-12.886719 49.4375zm0 0"/><path d="m28.964844 180.34375c-5.707032 32.003906-9.195313 69.507812-6.332032 108.992188l88.125 44.429687 98.050782-14.910156s20.257812-35.042969 29.007812-63.480469l18.175782-94.0625-31.390626-79.839844-32.996093-40.492187h-74.375l-59.882813 40.492187 12.886719 49.4375zm0 0"/><path d="m171.371094.5h-32.8125l-21.328125 40.484375 21.328125 40.484375h32.8125l20.234375-40.484375zm0 0"/><path d="m340.628906.5h32.8125l21.328125 40.484375-21.328125 40.484375h-32.8125l-20.234375-40.484375zm0 0"/></g><path d="m454.652344 30.261719v51.207031h-81.210938v-80.96875h51.449219c16.4375 0 29.761719 13.320312 29.761719 29.761719zm0 0" fill="#b4dbf3"/><path d="m287.398438 81.46875h-.003907l-31.394531-24.039062-31.394531 24.039062h-.003907s-8.023437 98.074219 13.214844 173.90625h36.367188c21.238281-75.832031 13.214844-173.90625 13.214844-173.90625zm0 0" fill="#96ccec"/><path d="m171.371094.5h169.257812v80.96875h-169.257812zm0 0" fill="#b4dbf3"/><path d="m138.558594.5v80.96875h-81.210938v-51.207031c0-16.441407 13.324219-29.761719 29.761719-29.761719zm0 0" fill="#b4dbf3"/><path d="m272.445312 40.984375c0 9.082031-7.363281 16.445313-16.445312 16.445313s-16.445312-7.363282-16.445312-16.445313 7.363281-16.445313 16.445312-16.445313 16.445312 7.363282 16.445312 16.445313zm0 0" fill="#545b67"/><path d="m295.589844 365.683594-4.902344-29.3125c-1.386719-8.289063 4.210938-16.132813 12.5-17.519532l186.179688-29.515624c8.289062-1.386719 16.132812 4.210937 17.519531 12.5l4.902343 29.316406c1.386719 8.289062-4.210937 16.128906-12.5 17.515625l-186.179687 29.515625c-8.289063 1.386718-16.132813-4.210938-17.519531-12.5zm0 0" fill="#b4dbf3"/><path d="m216.40625 365.683594 4.902344-29.3125c1.386718-8.289063-4.207032-16.132813-12.496094-17.519532l-186.179688-29.515624c-8.289062-1.386719-16.132812 4.210937-17.519531 12.5l-4.902343 29.316406c-1.386719 8.289062 4.210937 16.128906 12.5 17.515625l186.179687 29.515625c8.289063 1.386718 16.128906-4.210938 17.515625-12.5zm0 0" fill="#b4dbf3"/><path d="m483.03125 180.34375c-96.664062 0-81.699219-98.875-81.699219-98.875h53.320313s17.925781 40.195312 28.378906 98.875zm0 0" fill="#96ccec"/><path d="m28.964844 180.34375c96.667968 0 81.703125-98.875 81.703125-98.875h-53.320313s-17.925781 40.195312-28.382812 98.875zm0 0" fill="#96ccec"/></svg>