<?xml version="1.0" encoding="iso-8859-1"?>
<!-- Generator: Adobe Illustrator 19.0.0, SVG Export Plug-In . SVG Version: 6.00 Build 0)  -->
<svg version="1.1" id="Capa_1" xmlns="http://www.w3.org/2000/svg" xmlns:xlink="http://www.w3.org/1999/xlink" x="0px" y="0px"
	 viewBox="0 0 464 464" style="enable-background:new 0 0 464 464;" xml:space="preserve">
<path style="fill:#FFD422;" d="M340.88,180.88L232,142.8c0,0-48.96-17.12-48.96-17.12L144,112c0,0-48,16-64,16s-40-16-40-16l104-24
	l88,24.24c0,0,48.96,13.44,48.96,13.44L464,176L340.88,180.88z"/>
<g>
	<path style="fill:#8034AD;" d="M161.76,214.32l-80-4.48c-18.32-0.96-33.76,13.6-33.76,32V264v16c0,39.765,32.235,72,72,72
		s72-32.235,72-72v-8v-25.76C192,229.28,178.72,215.28,161.76,214.32z"/>
	<path style="fill:#8034AD;" d="M302.24,214.32l80-4.48c18.32-0.96,33.76,13.6,33.76,32V264v16c0,39.765-32.235,72-72,72
		s-72-32.235-72-72v-8v-25.76C272,229.28,285.28,215.28,302.24,214.32z"/>
</g>
<g>
	<path style="fill:#FFD422;" d="M192,272v8c0,39.764-32.235,72-72,72h0c-39.764,0-72-32.235-72-72v-16H24v16
		c0,52.938,43.063,96,96,96s96-43.063,96-96v-8H192z"/>
	<path style="fill:#FFD422;" d="M440,264v16c0,52.938-43.063,96-96,96s-96-43.063-96-96v-8h24v8c0,39.764,32.235,72,72,72h0
		c39.764,0,72-32.235,72-72v-16H440z"/>
</g>
<g>
	<path style="fill:#FFFFFF;" d="M80,264H64v-8c0-17.648,14.352-32,32-32v16c-8.82,0-16,7.18-16,16V264z"/>
	<rect x="64" y="272" style="fill:#FFFFFF;" width="16" height="16"/>
	<path style="fill:#FFFFFF;" d="M304,264h-16v-8c0-17.648,14.352-32,32-32v16c-8.82,0-16,7.18-16,16V264z"/>
	<rect x="288" y="272" style="fill:#FFFFFF;" width="16" height="16"/>
</g>
<g>
	<rect x="16" y="192" style="fill:#FFD422;" width="16" height="16"/>
	<rect x="432" y="192" style="fill:#FFD422;" width="16" height="16"/>
</g>
<path style="fill:#5AAAE7;" d="M464,176v48c-13.28,0-24,10.72-24,24v16h-24v-22.16c0-18.4-15.44-32.96-33.76-32l-80,4.48
	c-16.96,0.96-30.24,14.96-30.24,31.92V272h-24v-24c0,0,8-24-16-24s-16,24-16,24v24h-24v-25.76c0-16.96-13.28-30.96-30.24-31.92
	l-80-4.48c-18.32-0.96-33.76,13.6-33.76,32V264H24v-16c0-6.64-2.72-12.64-7.04-16.96C12.64,226.72,6.64,224,0,224v-48l123.12,4.88
	l65.92,2.64c7.04,0.32,13.76,3.28,18.72,8.24c5.28,5.28,4.4,8.24,11.92,8.24h32.64c3.76,0,5.44-0.72,6.8-2.16
	c1.36-1.36,2.48-3.44,5.12-6.08c4.96-4.96,11.68-7.92,18.72-8.24L464,176z"/>
<path style="fill:#1E81CE;" d="M123.12,180.88L232,142.8c0,0,48.96-17.12,48.96-17.12L320,112c0,0,48,16,64,16s40-16,40-16L320,88
	l-88,24.24c0,0-48.96,13.44-48.96,13.44L0,176L123.12,180.88z"/>
<g>
</g>
<g>
</g>
<g>
</g>
<g>
</g>
<g>
</g>
<g>
</g>
<g>
</g>
<g>
</g>
<g>
</g>
<g>
</g>
<g>
</g>
<g>
</g>
<g>
</g>
<g>
</g>
<g>
</g>
</svg>
