<?xml version="1.0" encoding="iso-8859-1"?>
<!-- Generator: Adobe Illustrator 19.0.0, SVG Export Plug-In . SVG Version: 6.00 Build 0)  -->
<svg version="1.1" id="Layer_1" xmlns="http://www.w3.org/2000/svg" xmlns:xlink="http://www.w3.org/1999/xlink" x="0px" y="0px"
	 viewBox="0 0 493.168 493.168" style="enable-background:new 0 0 493.168 493.168;" xml:space="preserve">
<g>
	<polygon style="fill:#125A6B;" points="342.288,32 150.88,32 150.584,0 342.584,0 	"/>
	<rect x="174.584" y="24" style="fill:#125A6B;" width="144" height="144"/>
</g>
<g>
	<polygon style="fill:#29808E;" points="230.584,488 166.888,488 150.6,24 230.584,24 	"/>
	<polygon style="fill:#29808E;" points="262.584,488 326.28,488 342.568,24 262.584,24 	"/>
	<rect x="174.584" y="24" style="fill:#29808E;" width="144" height="128"/>
</g>
<g>
	<path style="fill:#BFE8EF;" d="M246.576,35.496c-1.008,0-1.832-0.824-1.832-1.848V29.96c0-1.024,0.832-1.848,1.832-1.848
		c1.024,0,1.848,0.832,1.848,1.848v3.688C248.424,34.672,247.6,35.496,246.576,35.496z"/>
	<path style="fill:#BFE8EF;" d="M246.576,136.576c-1.008,0-1.832-0.832-1.832-1.84v-7.224c0-1.016,0.832-1.84,1.832-1.84
		c1.024,0,1.848,0.832,1.848,1.84v7.224C248.424,135.752,247.6,136.576,246.576,136.576z M246.576,122.136
		c-1.008,0-1.832-0.832-1.832-1.848v-7.216c0-1.016,0.832-1.84,1.832-1.84c1.024,0,1.848,0.832,1.848,1.84v7.216
		C248.424,121.312,247.6,122.136,246.576,122.136z M246.576,107.696c-1.008,0-1.832-0.832-1.832-1.84v-7.224
		c0-1.008,0.832-1.84,1.832-1.84c1.024,0,1.848,0.832,1.848,1.84v7.224C248.424,106.864,247.6,107.696,246.576,107.696z
		 M246.576,93.256c-1.008,0-1.832-0.832-1.832-1.848v-7.216c0-1.016,0.832-1.84,1.832-1.84c1.024,0,1.848,0.832,1.848,1.84v7.216
		C248.424,92.432,247.6,93.256,246.576,93.256z M246.576,78.824c-1.008,0-1.832-0.832-1.832-1.848v-7.224
		c0-1.016,0.832-1.84,1.832-1.84c1.024,0,1.848,0.832,1.848,1.84v7.216C248.424,77.984,247.6,78.824,246.576,78.824z
		 M246.576,64.376c-1.008,0-1.832-0.824-1.832-1.84v-7.224c0-1.024,0.832-1.848,1.832-1.848c1.024,0,1.848,0.832,1.848,1.848v7.224
		C248.424,63.552,247.6,64.376,246.576,64.376z M246.576,49.936c-1.008,0-1.832-0.832-1.832-1.848v-7.216
		c0-1.024,0.832-1.848,1.832-1.848c1.024,0,1.848,0.832,1.848,1.848v7.208C248.424,49.104,247.6,49.936,246.576,49.936z"/>
	<path style="fill:#BFE8EF;" d="M246.576,147.496c-1.008,0-1.832-0.832-1.832-1.84v-3.696c0-1.016,0.832-1.84,1.832-1.84
		c1.024,0,1.848,0.832,1.848,1.84v3.696C248.424,146.664,247.6,147.496,246.576,147.496z"/>
	<path style="fill:#BFE8EF;" d="M256.496,95.712c-0.488,0-0.952-0.184-1.312-0.544c-0.72-0.72-0.72-1.88,0-2.608l5.224-5.224
		c0.72-0.72,1.88-0.72,2.608,0c0.728,0.72,0.72,1.888,0,2.616l-5.224,5.216C257.424,95.528,256.96,95.712,256.496,95.712z
		 M265.632,84.728c-1.008,0-1.848-0.824-1.848-1.84v-7.392c0-1.008,0.84-1.832,1.848-1.832c1.024,0,1.848,0.832,1.848,1.832v7.392
		C267.488,83.904,266.656,84.728,265.632,84.728z M265.632,69.952c-1.008,0-1.848-0.832-1.848-1.832v-7.392
		c0-1.016,0.84-1.84,1.848-1.84c1.024,0,1.848,0.832,1.848,1.84v7.392C267.488,69.128,266.656,69.952,265.632,69.952z
		 M265.632,55.184c-1.008,0-1.848-0.832-1.848-1.84V45.96c0-1.024,0.84-1.848,1.848-1.848c1.024,0,1.848,0.832,1.848,1.848v7.384
		C267.488,54.36,266.656,55.184,265.632,55.184z M265.632,40.424c-1.008,0-1.848-0.832-1.848-1.848v-7.384
		c0-1.024,0.84-1.848,1.848-1.848c1.024,0,1.848,0.832,1.848,1.848v7.376C267.488,39.592,266.656,40.424,265.632,40.424z"/>
</g>
<polyline style="fill:#125A6B;" points="174.584,32 174.584,84.12 156.128,103.592 "/>
<path style="fill:#BFE8EF;" d="M157.96,104.424c-0.48,0-0.952-0.176-1.312-0.544c-0.72-0.72-0.72-1.888,0-2.608l4.544-4.536
	c0.72-0.72,1.88-0.72,2.6,0s0.72,1.88,0,2.6l-4.544,4.544C158.896,104.248,158.424,104.424,157.96,104.424z M167.712,94.656
	c-0.464,0-0.936-0.176-1.296-0.544c-0.72-0.712-0.72-1.88,0-2.6l5.224-5.224c0.704-0.72,1.88-0.72,2.608,0s0.72,1.888,0,2.616
	l-5.224,5.216C168.664,94.48,168.2,94.656,167.712,94.656z M176.416,83.496c-1.008,0-1.832-0.832-1.832-1.848v-7.392
	c0-1.008,0.824-1.832,1.832-1.832c1.024,0,1.848,0.832,1.848,1.832v7.392C178.264,82.664,177.44,83.496,176.416,83.496z
	 M176.416,68.728c-1.008,0-1.832-0.84-1.832-1.848v-7.384c0-1.016,0.824-1.84,1.832-1.84c1.024,0,1.848,0.832,1.848,1.84v7.384
	C178.264,67.888,177.44,68.728,176.416,68.728z M176.416,53.952c-1.008,0-1.832-0.824-1.832-1.84v-7.384
	c0-1.016,0.824-1.848,1.832-1.848c1.024,0,1.848,0.832,1.848,1.848v7.384C178.264,53.128,177.44,53.952,176.416,53.952z
	 M176.416,39.184c-1.008,0-1.832-0.824-1.832-1.848V29.96c0-1.024,0.824-1.848,1.832-1.848c1.024,0,1.848,0.832,1.848,1.848v7.376
	C178.264,38.36,177.44,39.184,176.416,39.184z"/>
<g>
	<polygon style="fill:#125A6B;" points="174.584,65.344 168.272,60.672 154.888,56 174.584,56 	"/>
	<polyline style="fill:#125A6B;" points="318.584,32 318.584,84.12 337.056,103.592 	"/>
</g>
<path style="fill:#BFE8EF;" d="M335.208,104.424c-0.488,0-0.952-0.176-1.312-0.544l-4.544-4.544c-0.704-0.72-0.704-1.88,0-2.6
	c0.72-0.72,1.896-0.72,2.616,0l4.544,4.536c0.72,0.72,0.72,1.888,0,2.608C336.16,104.248,335.688,104.424,335.208,104.424z
	 M325.44,94.656c-0.472,0-0.936-0.176-1.296-0.544l-5.224-5.216c-0.72-0.72-0.72-1.888,0-2.616c0.72-0.728,1.88-0.72,2.608,0
	l5.224,5.224c0.72,0.72,0.72,1.888,0,2.6C326.392,94.48,325.92,94.656,325.44,94.656z M316.736,83.496
	c-1.008,0-1.832-0.832-1.832-1.848v-7.392c0-1.008,0.832-1.832,1.832-1.832c1.024,0,1.848,0.832,1.848,1.832v7.392
	C318.584,82.664,317.76,83.496,316.736,83.496z M316.736,68.728c-1.008,0-1.832-0.832-1.832-1.84v-7.392
	c0-1.016,0.832-1.84,1.832-1.84c1.024-0.008,1.848,0.824,1.848,1.84v7.384C318.584,67.888,317.76,68.728,316.736,68.728z
	 M316.736,53.952c-1.008,0-1.832-0.832-1.832-1.84v-7.384c0-1.016,0.832-1.848,1.832-1.848c1.024-0.008,1.848,0.832,1.848,1.848
	v7.384C318.584,53.128,317.76,53.952,316.736,53.952z M316.736,39.184c-1.008,0-1.832-0.832-1.832-1.848V29.96
	c0-1.024,0.832-1.848,1.832-1.848c1.024-0.008,1.848,0.824,1.848,1.848v7.376C318.584,38.36,317.76,39.184,316.736,39.184z"/>
<polygon style="fill:#125A6B;" points="318.584,65.344 324.896,60.672 338.28,56 318.584,56 "/>
<g>
	<path style="fill:#21677C;" d="M192.288,300.112c-11.504,0-22.472-1.888-31.264-9.312l5.864,197.2h63.696V283.36
		C222.584,296.896,206.912,300.112,192.288,300.112z"/>
	<path style="fill:#21677C;" d="M300.888,300.112c-14.624,0-30.304-3.216-38.304-16.752V488h63.696l5.864-197.2
		C323.352,298.216,312.384,300.112,300.888,300.112z"/>
	<ellipse style="fill:#21677C;" cx="198.272" cy="488.08" rx="31.088" ry="5.088"/>
	<ellipse style="fill:#21677C;" cx="294.904" cy="488.08" rx="31.088" ry="5.088"/>
</g>
<g>
	<rect x="182.584" style="fill:#29808E;" width="16" height="32"/>
	<rect x="294.584" style="fill:#29808E;" width="16" height="32"/>
</g>
<g>
</g>
<g>
</g>
<g>
</g>
<g>
</g>
<g>
</g>
<g>
</g>
<g>
</g>
<g>
</g>
<g>
</g>
<g>
</g>
<g>
</g>
<g>
</g>
<g>
</g>
<g>
</g>
<g>
</g>
</svg>
