<svg height="512pt" viewBox="0 0 512 512.00103" width="512pt" xmlns="http://www.w3.org/2000/svg"><path d="m235.726562 38.839844v-10.957032c0-11.195312 9.074219-20.277343 20.277344-20.277343s20.277344 9.082031 20.277344 20.277343v411.394532c0 35.910156-29.21875 65.117187-65.121094 65.117187-35.910156 0-65.121094-29.207031-65.121094-65.117187 0-11.195313 9.085938-20.277344 20.277344-20.277344 11.203125 0 20.277344 9.082031 20.277344 20.277344 0 13.542968 11.023438 24.5625 24.566406 24.5625 13.546875 0 24.566406-11.019532 24.566406-24.5625v-152.863282" fill="#e6e6e6"/><path d="m276.28125 390.945312v48.332032c0 35.910156-29.21875 65.117187-65.121094 65.117187-35.910156 0-65.121094-29.207031-65.121094-65.117187 0-11.195313 9.085938-20.277344 20.277344-20.277344 11.203125 0 20.277344 9.082031 20.277344 20.277344 0 13.542968 11.023438 24.5625 24.566406 24.5625 13.546875 0 24.566406-11.019532 24.566406-24.5625v-48.332032zm0 0" fill="#936a60"/><path d="m235.726562 266.066406h40.554688v62.96875h-40.554688zm0 0" fill="#c4becc"/><path d="m504.398438 286.414062h-496.789063c0-137.183593 111.207031-248.394531 248.394531-248.394531 137.183594 0 248.394532 111.210938 248.394532 248.394531zm0 0" fill="#ff694f"/><path d="m256.003906 38.019531v248.394531h-248.394531c0-137.183593 111.207031-248.394531 248.394531-248.394531zm0 0" fill="#ed2867"/><path d="m362.492188 286.417969c0-137.183594-47.679688-248.394531-106.492188-248.394531s-106.492188 111.210937-106.492188 248.394531" fill="#ffdf59"/><path d="m437.019531 105.398438c-41.714843-41.714844-95.300781-67.246094-153.136719-73.472657v-4.042969c0-15.375-12.507812-27.882812-27.878906-27.882812-15.375 0-27.882812 12.507812-27.882812 27.882812v4.042969c-57.835938 6.226563-111.421875 31.753907-153.140625 73.472657-48.351563 48.351562-74.980469 112.640624-74.980469 181.019531 0 4.199219 3.402344 7.605469 7.605469 7.605469h220.515625v54.34375c0 4.199218 3.40625 7.605468 7.605468 7.605468 4.199219 0 7.605469-3.40625 7.605469-7.605468v-54.34375h25.34375v89.320312h-25.34375v-9.625c0-4.199219-3.40625-7.605469-7.605469-7.605469-4.199218 0-7.605468 3.40625-7.605468 7.605469v65.558594c0 9.351562-7.609375 16.960937-16.960938 16.960937-9.351562 0-16.960937-7.609375-16.960937-16.960937 0-15.375-12.507813-27.882813-27.878907-27.882813-15.375 0-27.882812 12.507813-27.882812 27.882813 0 40.101562 32.625 72.722656 72.722656 72.722656 40.101563 0 72.722656-32.621094 72.722656-72.722656v-145.253906h140.957032c4.203125 0 7.605468-3.40625 7.605468-7.605469s-3.402343-7.601563-7.605468-7.601563h-54.796875c-.820313-64.515625-12.015625-125-31.753907-171.035156-10.894531-25.417969-23.828124-45-38.082031-58.113281 47.484375 8.765625 91.179688 31.605469 126.058594 66.484375 43.683594 43.683594 68.515625 101.191406 70.410156 162.664062h-46.488281c-4.199219 0-7.601562 3.402344-7.601562 7.601563s3.402343 7.605469 7.601562 7.605469h54.210938c4.199218 0 7.601562-3.40625 7.601562-7.605469 0-68.378907-26.628906-132.667969-74.980469-181.019531zm-225.859375 391.394531c-31.714844 0-57.515625-25.800781-57.515625-57.515625 0-6.988282 5.683594-12.675782 12.671875-12.675782 6.988282 0 12.675782 5.6875 12.675782 12.675782 0 17.738281 14.429687 32.167968 32.167968 32.167968 17.738282 0 32.167969-14.429687 32.167969-32.167968v-40.722656h25.347656v40.722656c0 31.714844-25.800781 57.515625-57.515625 57.515625zm32.171875-468.910157c0-6.988281 5.683594-12.675781 12.671875-12.675781 6.988282 0 12.671875 5.6875 12.671875 12.675781v2.84375c-4.207031-.203124-8.433593-.308593-12.675781-.308593-4.238281 0-8.464844.105469-12.667969.308593zm-157.597656 88.269532c34.878906-34.878906 78.578125-57.71875 126.058594-66.484375-14.25 13.113281-27.183594 32.695312-38.082031 58.113281-19.734376 46.035156-30.933594 106.519531-31.75 171.035156h-126.636719c1.894531-61.472656 26.726562-118.980468 70.410156-162.664062zm238.578125-2.378906c18.949219 44.199218 29.710938 102.558593 30.519531 165.042968h-197.664062c.808593-62.484375 11.570312-120.84375 30.519531-165.042968 18.566406-43.308594 43.464844-68.148438 68.3125-68.148438s49.746094 24.839844 68.3125 68.148438zm0 0"/></svg>